<svg width="829" height="218" viewBox="0 0 829 218" fill="none" xmlns="http://www.w3.org/2000/svg">
<path d="M215.153 92.1843H112.156V213.722H215.153V92.1843Z" fill="#E5E6EB"/>
<path d="M160.912 103.643H120.898V106.882H160.912V103.643Z" fill="white"/>
<path d="M207.548 103.643H167.535V106.882H207.548V103.643Z" fill="white"/>
<path d="M160.912 115.565H120.898V118.805H160.912V115.565Z" fill="white"/>
<path d="M207.548 115.565H167.535V118.805H207.548V115.565Z" fill="white"/>
<path d="M160.912 127.488H120.898V130.727H160.912V127.488Z" fill="white"/>
<path d="M207.548 127.488H167.535V130.727H207.548V127.488Z" fill="white"/>
<path d="M160.912 139.411H120.898V142.65H160.912V139.411Z" fill="white"/>
<path d="M207.548 139.411H167.535V142.65H207.548V139.411Z" fill="white"/>
<path d="M160.912 151.333H120.898V154.573H160.912V151.333Z" fill="white"/>
<path d="M207.548 151.333H167.535V154.573H207.548V151.333Z" fill="white"/>
<path d="M160.912 163.256H120.898V166.496H160.912V163.256Z" fill="white"/>
<path d="M207.548 163.256H167.535V166.496H207.548V163.256Z" fill="white"/>
<path d="M160.912 175.179H120.898V178.418H160.912V175.179Z" fill="white"/>
<path d="M207.548 175.179H167.535V178.418H207.548V175.179Z" fill="white"/>
<path d="M160.912 187.101H120.898V190.341H160.912V187.101Z" fill="white"/>
<path d="M207.548 187.102H167.535V190.341H207.548V187.102Z" fill="white"/>
<path d="M160.912 199.024H120.898V202.264H160.912V199.024Z" fill="white"/>
<path d="M207.548 199.024H167.535V202.264H207.548V199.024Z" fill="white"/>
<path d="M215.153 44.4937H112.156V154.573H215.153V44.4937Z" fill="#E5E6EB"/>
<path d="M160.912 55.9518H120.898V59.1911H160.912V55.9518Z" fill="white"/>
<path d="M207.548 55.9518H167.535V59.1911H207.548V55.9518Z" fill="white"/>
<path d="M160.912 67.8745H120.898V71.1139H160.912V67.8745Z" fill="white"/>
<path d="M207.548 67.8745H167.535V71.1139H207.548V67.8745Z" fill="white"/>
<path d="M160.912 79.7972H120.898V83.0366H160.912V79.7972Z" fill="white"/>
<path d="M207.548 79.7972H167.535V83.0366H207.548V79.7972Z" fill="white"/>
<path d="M160.912 91.7198H120.898V94.9592H160.912V91.7198Z" fill="white"/>
<path d="M207.548 91.7198H167.535V94.9592H207.548V91.7198Z" fill="white"/>
<path d="M160.912 103.643H120.898V106.882H160.912V103.643Z" fill="white"/>
<path d="M207.548 103.643H167.535V106.882H207.548V103.643Z" fill="white"/>
<path d="M160.912 115.565H120.898V118.805H160.912V115.565Z" fill="white"/>
<path d="M207.548 115.566H167.535V118.805H207.548V115.566Z" fill="white"/>
<path d="M160.912 127.488H120.898V130.727H160.912V127.488Z" fill="white"/>
<path d="M207.548 127.488H167.535V130.727H207.548V127.488Z" fill="white"/>
<path d="M160.912 139.411H120.898V142.65H160.912V139.411Z" fill="white"/>
<path d="M207.548 139.411H167.535V142.65H207.548V139.411Z" fill="white"/>
<path d="M160.912 151.333H120.898V154.573H160.912V151.333Z" fill="white"/>
<path d="M207.548 151.333H167.535V154.573H207.548V151.333Z" fill="white"/>
<path d="M112.153 13.2911H9.15625V213.722H112.153V13.2911Z" fill="#E5E6EB"/>
<path d="M39.6472 37.5757H26.875V59.7668H39.6472V37.5757Z" fill="white"/>
<path d="M57.9128 37.5757H45.1406V59.7668H57.9128V37.5757Z" fill="white"/>
<path d="M76.1745 37.5757H63.4023V59.7668H76.1745V37.5757Z" fill="white"/>
<path d="M94.4362 37.5757H81.6641V59.7668H94.4362V37.5757Z" fill="white"/>
<path d="M39.6472 69.9933H26.875V92.1844H39.6472V69.9933Z" fill="white"/>
<path d="M57.9128 69.9933H45.1406V92.1844H57.9128V69.9933Z" fill="white"/>
<path d="M76.1745 69.9933H63.4023V92.1844H76.1745V69.9933Z" fill="white"/>
<path d="M94.4362 69.9933H81.6641V92.1844H94.4362V69.9933Z" fill="white"/>
<path d="M39.6472 102.411H26.875V124.602H39.6472V102.411Z" fill="white"/>
<path d="M57.9128 102.411H45.1406V124.602H57.9128V102.411Z" fill="white"/>
<path d="M76.1745 102.411H63.4023V124.602H76.1745V102.411Z" fill="white"/>
<path d="M94.4362 102.411H81.6641V124.602H94.4362V102.411Z" fill="white"/>
<path d="M39.6472 134.828H26.875V157.02H39.6472V134.828Z" fill="white"/>
<path d="M57.9128 134.828H45.1406V157.02H57.9128V134.828Z" fill="white"/>
<path d="M76.1745 134.828H63.4023V157.02H76.1745V134.828Z" fill="white"/>
<path d="M94.4362 134.828H81.6641V157.02H94.4362V134.828Z" fill="white"/>
<path d="M39.6472 167.246H26.875V189.437H39.6472V167.246Z" fill="white"/>
<path d="M57.9128 167.246H45.1406V189.437H57.9128V167.246Z" fill="white"/>
<path d="M76.1745 167.246H63.4023V189.437H76.1745V167.246Z" fill="white"/>
<path d="M94.4362 167.246H81.6641V189.437H94.4362V167.246Z" fill="white"/>
<path d="M215.152 19.6519V213.722H267.989V72.4882C267.989 43.3074 244.333 19.6519 215.152 19.6519Z" fill="#E5E6EB"/>
<path d="M247.978 47.9989H224.664V51.2383H247.978V47.9989Z" fill="white"/>
<path d="M257.089 59.9215H224.664V63.1609H257.089V59.9215Z" fill="white"/>
<path d="M257.089 71.8442H224.664V75.0836H257.089V71.8442Z" fill="white"/>
<path d="M257.089 83.767H224.664V87.0063H257.089V83.767Z" fill="white"/>
<path d="M257.089 95.6896H224.664V98.9289H257.089V95.6896Z" fill="white"/>
<path d="M257.089 107.612H224.664V110.852H257.089V107.612Z" fill="white"/>
<path d="M257.089 119.535H224.664V122.775H257.089V119.535Z" fill="white"/>
<path d="M257.089 131.458H224.664V134.697H257.089V131.458Z" fill="white"/>
<path d="M257.089 143.38H224.664V146.62H257.089V143.38Z" fill="white"/>
<path d="M257.089 143.38H224.664V146.62H257.089V143.38Z" fill="white"/>
<path d="M257.089 155.303H224.664V158.543H257.089V155.303Z" fill="white"/>
<path d="M257.089 167.226H224.664V170.465H257.089V167.226Z" fill="white"/>
<path d="M257.089 179.149H224.664V182.388H257.089V179.149Z" fill="white"/>
<path d="M257.089 191.071H224.664V194.311H257.089V191.071Z" fill="white"/>
<path d="M257.089 202.994H224.664V206.233H257.089V202.994Z" fill="white"/>
<path d="M829.004 215.452C829.004 215.929 828.808 216.362 828.491 216.675C828.174 216.988 827.736 217.182 827.253 217.182H550.672C549.706 217.182 548.922 216.407 548.922 215.452C548.922 214.973 549.118 214.54 549.435 214.229C549.752 213.916 550.189 213.722 550.672 213.722H827.253C828.219 213.722 829.004 214.495 829.004 215.452Z" fill="#253746"/>
<path d="M281.12 215.452C281.12 215.929 280.922 216.362 280.604 216.675C280.288 216.988 279.848 217.182 279.362 217.182H1.75765C0.787136 217.182 0 216.407 0 215.452C0 214.973 0.197217 214.54 0.515531 214.229C0.832115 213.916 1.27153 213.722 1.75765 213.722H279.362C280.333 213.722 281.12 214.495 281.12 215.452Z" fill="#253746"/>
<path d="M552.896 215.452C552.896 215.929 552.703 216.362 552.389 216.675C552.076 216.988 551.644 217.182 551.166 217.182H277.832C276.877 217.182 276.102 216.407 276.102 215.452C276.102 214.973 276.295 214.54 276.608 214.229C276.922 213.916 277.354 213.722 277.832 213.722H551.166C552.121 213.722 552.896 214.495 552.896 215.452Z" fill="#253746"/>
<path d="M150.875 105.463V202.499C150.875 208.697 155.9 213.722 162.098 213.722H250.447C256.645 213.722 261.67 208.697 261.67 202.499V105.463H150.875Z" fill="#46647C"/>
<path d="M138.398 105.751L151.838 83.1262H163.934L153.482 105.751H138.398Z" fill="#FFBD00"/>
<path d="M153.48 105.751L163.933 83.1262H176.03L168.563 105.751H153.48Z" fill="white"/>
<path d="M168.562 105.751L176.029 83.1262H188.125L183.646 105.751H168.562Z" fill="#FFBD00"/>
<path d="M183.648 105.751L188.128 83.1262H200.225L198.732 105.751H183.648Z" fill="white"/>
<path d="M198.727 105.751L200.22 83.1262H212.316L213.81 105.751H198.727Z" fill="#FFBD00"/>
<path d="M213.814 105.751L212.32 83.1262H224.417L228.897 105.751H213.814Z" fill="white"/>
<path d="M228.894 105.751L224.414 83.1262H236.511L243.977 105.751H228.894Z" fill="#FFBD00"/>
<path d="M243.982 105.751L236.516 83.1262H248.612L259.065 105.751H243.982Z" fill="white"/>
<path d="M259.063 105.751L248.609 83.1262H260.706L274.145 105.751H259.063Z" fill="#FFBD00"/>
<path d="M138.398 113.796C138.398 117.961 141.775 121.337 145.94 121.337C150.105 121.337 153.482 117.961 153.482 113.796V105.751H138.398V113.796Z" fill="#DCA000"/>
<path d="M168.566 113.796C168.566 117.961 171.943 121.337 176.108 121.337C180.273 121.337 183.65 117.961 183.65 113.796V105.751H168.566V113.796Z" fill="#DCA000"/>
<path d="M198.73 113.796C198.73 117.961 202.107 121.337 206.272 121.337C210.437 121.337 213.814 117.961 213.814 113.796V105.751H198.73V113.796Z" fill="#DCA000"/>
<path d="M228.898 113.796C228.898 117.961 232.275 121.337 236.44 121.337C240.605 121.337 243.982 117.961 243.982 113.796V105.751H228.898V113.796Z" fill="#DCA000"/>
<path d="M259.062 105.751V113.795C259.062 117.96 262.439 121.337 266.604 121.337C270.769 121.337 274.145 117.96 274.145 113.795V105.751H259.062Z" fill="#DCA000"/>
<path d="M153.48 113.796C153.48 117.961 156.857 121.337 161.022 121.337C165.187 121.337 168.563 117.961 168.563 113.796V105.751H153.48V113.796Z" fill="#E5E6EB"/>
<path d="M183.648 113.796C183.648 117.961 187.025 121.337 191.19 121.337C195.355 121.337 198.731 117.961 198.731 113.796V105.751H183.648V113.796Z" fill="#E5E6EB"/>
<path d="M213.812 113.796C213.812 117.961 217.189 121.337 221.354 121.337C225.519 121.337 228.895 117.961 228.895 113.796V105.751H213.812V113.796Z" fill="#E5E6EB"/>
<path d="M243.977 113.796C243.977 117.961 247.353 121.337 251.518 121.337C255.683 121.337 259.059 117.961 259.059 113.796V105.751H243.977V113.796Z" fill="#E5E6EB"/>
<path d="M266.127 201.373H146.414V213.722H266.127V201.373Z" fill="#253746"/>
<path d="M245.453 135.175H167.09V184.616H245.453V135.175Z" fill="white"/>
<path d="M207.66 135.175L174.383 184.616H167.09V172.409L192.15 135.175H207.66Z" fill="#E5E6EB"/>
<path d="M228.016 135.175L194.739 184.616H185.047L218.322 135.175H228.016Z" fill="#E5E6EB"/>
<path d="M245.455 135.175V171.915L236.906 184.616H204.781L238.058 135.175H245.455Z" fill="#E5E6EB"/>
<path d="M134.863 91.3425H87.5508V213.722H134.863V91.3425Z" fill="#253746"/>
<path d="M135.316 82.6327H87.0977V93.0448H135.316V82.6327Z" fill="#253746"/>
<path d="M92.9863 84.1442H91.707V91.5332H92.9863V84.1442Z" fill="#253746"/>
<path d="M100.529 84.1442H99.25V91.5332H100.529V84.1442Z" fill="#253746"/>
<path d="M108.076 84.1442H106.797V91.5332H108.076V84.1442Z" fill="#253746"/>
<path d="M115.619 84.1442H114.34V91.5332H115.619V84.1442Z" fill="#253746"/>
<path d="M123.162 84.1442H121.883V91.5332H123.162V84.1442Z" fill="#253746"/>
<path d="M130.709 84.1442H129.43V91.5332H130.709V84.1442Z" fill="#253746"/>
<path d="M99.3991 116.202H60.875V213.722H99.3991V116.202Z" fill="#46647C"/>
<path d="M91.115 127.428H60.875V201.909H91.115V127.428Z" fill="#253746"/>
<path d="M100.304 107.492H59.9688V116.202H100.304V107.492Z" fill="#253746"/>
<path d="M64.8944 108.757H63.8242V114.938H64.8944V108.757Z" fill="#253746"/>
<path d="M71.2069 108.757H70.1367V114.938H71.2069V108.757Z" fill="#253746"/>
<path d="M77.5155 108.757H76.4453V114.938H77.5155V108.757Z" fill="#253746"/>
<path d="M83.828 108.757H82.7578V114.938H83.828V108.757Z" fill="#253746"/>
<path d="M90.1405 108.757H89.0703V114.938H90.1405V108.757Z" fill="#253746"/>
<path d="M96.4491 108.757H95.3789V114.938H96.4491V108.757Z" fill="#253746"/>
<path d="M237.484 213.722V158.904L111.118 158.904L111.118 213.722L237.484 213.722Z" fill="#253746"/>
<path d="M230.771 211.52H117.833C115.341 211.52 113.32 209.5 113.32 207.007V165.619C113.32 163.126 115.341 161.106 117.833 161.106H230.771C233.264 161.106 235.284 163.126 235.284 165.619V207.007C235.284 209.5 233.264 211.52 230.771 211.52Z" fill="#46647C"/>
<path d="M133.099 174.094C133.099 177.034 130.84 179.446 127.962 179.686C127.806 179.702 127.645 179.708 127.485 179.708C127.324 179.708 127.163 179.702 127.007 179.686C124.13 179.446 121.871 177.033 121.871 174.094C121.871 171.155 124.13 168.743 127.007 168.503C127.164 168.487 127.324 168.481 127.485 168.481C127.646 168.481 127.806 168.487 127.962 168.503C130.84 168.743 133.099 171.155 133.099 174.094Z" fill="white"/>
<path d="M127.963 168.503V179.686C127.807 179.702 127.646 179.708 127.485 179.708C127.325 179.708 127.164 179.702 127.008 179.686V168.503C127.164 168.487 127.325 168.481 127.485 168.481C127.646 168.481 127.807 168.487 127.963 168.503Z" fill="#E5E6EB"/>
<path d="M156.509 174.094C156.509 177.034 154.25 179.446 151.373 179.686C151.216 179.702 151.056 179.708 150.895 179.708C150.734 179.708 150.574 179.702 150.417 179.686C147.54 179.446 145.281 177.033 145.281 174.094C145.281 171.155 147.54 168.743 150.417 168.503C150.574 168.487 150.734 168.481 150.895 168.481C151.056 168.481 151.216 168.487 151.373 168.503C154.25 168.743 156.509 171.155 156.509 174.094Z" fill="white"/>
<path d="M151.369 168.503V179.686C151.213 179.702 151.052 179.708 150.892 179.708C150.731 179.708 150.57 179.702 150.414 179.686V168.503C150.57 168.487 150.731 168.481 150.892 168.481C151.052 168.481 151.213 168.487 151.369 168.503Z" fill="#E5E6EB"/>
<path d="M179.915 174.094C179.915 177.034 177.656 179.446 174.779 179.686C174.623 179.702 174.462 179.708 174.301 179.708C174.141 179.708 173.98 179.702 173.824 179.686C170.946 179.446 168.688 177.033 168.688 174.094C168.688 171.155 170.946 168.743 173.824 168.503C173.98 168.487 174.141 168.481 174.301 168.481C174.462 168.481 174.623 168.487 174.779 168.503C177.656 168.743 179.915 171.155 179.915 174.094Z" fill="white"/>
<path d="M174.776 168.503V179.686C174.619 179.702 174.459 179.708 174.298 179.708C174.137 179.708 173.977 179.702 173.82 179.686V168.503C173.977 168.487 174.137 168.481 174.298 168.481C174.459 168.481 174.619 168.487 174.776 168.503Z" fill="#E5E6EB"/>
<path d="M203.325 174.094C203.325 177.034 201.066 179.446 198.189 179.686C198.033 179.702 197.872 179.708 197.711 179.708C197.551 179.708 197.39 179.702 197.234 179.686C194.356 179.446 192.098 177.033 192.098 174.094C192.098 171.155 194.356 168.743 197.234 168.503C197.39 168.487 197.551 168.481 197.711 168.481C197.872 168.481 198.033 168.487 198.189 168.503C201.066 168.743 203.325 171.155 203.325 174.094Z" fill="white"/>
<path d="M198.19 168.503V179.686C198.033 179.702 197.873 179.708 197.712 179.708C197.551 179.708 197.391 179.702 197.234 179.686V168.503C197.391 168.487 197.551 168.481 197.712 168.481C197.873 168.481 198.033 168.487 198.19 168.503Z" fill="#E5E6EB"/>
<path d="M226.735 174.094C226.735 177.034 224.476 179.446 221.599 179.686C221.443 179.702 221.282 179.708 221.122 179.708C220.961 179.708 220.8 179.702 220.644 179.686C217.766 179.446 215.508 177.033 215.508 174.094C215.508 171.155 217.767 168.743 220.644 168.503C220.8 168.487 220.961 168.481 221.122 168.481C221.282 168.481 221.443 168.487 221.599 168.503C224.476 168.743 226.735 171.155 226.735 174.094Z" fill="white"/>
<path d="M221.596 168.503V179.686C221.44 179.702 221.279 179.708 221.118 179.708C220.958 179.708 220.797 179.702 220.641 179.686V168.503C220.797 168.487 220.958 168.481 221.118 168.481C221.279 168.481 221.44 168.487 221.596 168.503Z" fill="#E5E6EB"/>
<path d="M133.099 198.531C133.099 201.47 130.84 203.883 127.962 204.123C127.806 204.139 127.645 204.145 127.485 204.145C127.324 204.145 127.163 204.139 127.007 204.123C124.13 203.883 121.871 201.47 121.871 198.531C121.871 195.592 124.13 193.18 127.007 192.94C127.164 192.924 127.324 192.918 127.485 192.918C127.646 192.918 127.806 192.924 127.962 192.94C130.84 193.18 133.099 195.592 133.099 198.531Z" fill="white"/>
<path d="M127.963 192.94V204.123C127.807 204.139 127.646 204.145 127.485 204.145C127.325 204.145 127.164 204.139 127.008 204.123V192.94C127.164 192.924 127.325 192.918 127.485 192.918C127.646 192.918 127.807 192.924 127.963 192.94Z" fill="#E5E6EB"/>
<path d="M156.509 198.531C156.509 201.47 154.25 203.883 151.373 204.123C151.216 204.139 151.056 204.145 150.895 204.145C150.734 204.145 150.574 204.139 150.417 204.123C147.54 203.883 145.281 201.47 145.281 198.531C145.281 195.592 147.54 193.18 150.417 192.94C150.574 192.924 150.734 192.918 150.895 192.918C151.056 192.918 151.216 192.924 151.373 192.94C154.25 193.18 156.509 195.592 156.509 198.531Z" fill="white"/>
<path d="M151.369 192.939V204.123C151.213 204.139 151.052 204.145 150.892 204.145C150.731 204.145 150.57 204.139 150.414 204.123V192.939C150.57 192.924 150.731 192.917 150.892 192.917C151.052 192.917 151.213 192.924 151.369 192.939Z" fill="#E5E6EB"/>
<path d="M179.915 198.531C179.915 201.47 177.656 203.883 174.779 204.123C174.623 204.139 174.462 204.145 174.301 204.145C174.141 204.145 173.98 204.139 173.824 204.123C170.946 203.883 168.688 201.47 168.688 198.531C168.688 195.592 170.946 193.18 173.824 192.94C173.98 192.924 174.141 192.918 174.301 192.918C174.462 192.918 174.623 192.924 174.779 192.94C177.656 193.18 179.915 195.592 179.915 198.531Z" fill="white"/>
<path d="M174.776 192.94V204.123C174.619 204.139 174.459 204.145 174.298 204.145C174.137 204.145 173.977 204.139 173.82 204.123V192.94C173.977 192.924 174.137 192.918 174.298 192.918C174.459 192.918 174.619 192.924 174.776 192.94Z" fill="#E5E6EB"/>
<path d="M203.325 198.531C203.325 201.47 201.066 203.883 198.189 204.123C198.033 204.139 197.872 204.145 197.711 204.145C197.551 204.145 197.39 204.139 197.234 204.123C194.356 203.883 192.098 201.47 192.098 198.531C192.098 195.592 194.356 193.18 197.234 192.94C197.39 192.924 197.551 192.918 197.711 192.918C197.872 192.918 198.033 192.924 198.189 192.94C201.066 193.18 203.325 195.592 203.325 198.531Z" fill="white"/>
<path d="M198.19 192.94V204.123C198.033 204.139 197.873 204.145 197.712 204.145C197.551 204.145 197.391 204.139 197.234 204.123V192.94C197.391 192.924 197.551 192.918 197.712 192.918C197.873 192.918 198.033 192.924 198.19 192.94Z" fill="#E5E6EB"/>
<path d="M226.735 198.531C226.735 201.47 224.476 203.883 221.599 204.123C221.443 204.139 221.282 204.145 221.122 204.145C220.961 204.145 220.8 204.139 220.644 204.123C217.766 203.883 215.508 201.47 215.508 198.531C215.508 195.592 217.767 193.18 220.644 192.94C220.8 192.924 220.961 192.918 221.122 192.918C221.282 192.918 221.443 192.924 221.599 192.94C224.476 193.18 226.735 195.592 226.735 198.531Z" fill="white"/>
<path d="M221.596 192.94V204.123C221.44 204.139 221.279 204.145 221.118 204.145C220.958 204.145 220.797 204.139 220.641 204.123V192.94C220.797 192.924 220.958 192.918 221.118 192.918C221.279 192.918 221.44 192.924 221.596 192.94Z" fill="#E5E6EB"/>
<path d="M226.463 186.973H122.142C121.992 186.973 121.871 186.852 121.871 186.703V185.923C121.871 185.774 121.992 185.653 122.142 185.653H226.463C226.612 185.653 226.734 185.774 226.734 185.923V186.703C226.734 186.852 226.612 186.973 226.463 186.973Z" fill="white"/>
<path d="M45.4531 82.2L115.129 37.7943L116.441 36.9575L117.791 37.9742L134.463 50.5366L131.319 50.2063L188.115 19.6873L192.38 28.1933L133.947 55.4472L132.172 56.2752L130.803 55.1172L114.869 41.6309L117.531 41.8108L45.4531 82.2Z" fill="#FFBD00"/>
<path d="M192.903 38.5301L208.559 14.7608L180.145 13.084L192.903 38.5301Z" fill="#FFBD00"/>
<path d="M40.1493 213.721L56.5386 213.722C56.5264 213.16 56.4167 212.621 56.0779 212.185C55.6897 211.682 55.0592 211.419 54.4353 211.311C53.8089 211.203 53.1671 211.232 52.5331 211.201C50.9782 211.125 49.4423 210.68 48.0867 209.913C47.3786 209.515 46.7161 209.026 45.9514 208.748L41.4845 208.865C40.8734 209.523 40.4802 210.386 40.2908 211.273C40.1181 212.075 40.0989 212.9 40.1493 213.721Z" fill="#253746"/>
<path d="M7.3125 160.717L11.0847 208.877L16.6123 208.732L22.5947 160.13L7.3125 160.717Z" fill="#155BCC"/>
<path d="M32.1484 159.766L41.1716 208.748H46.506L47.2265 159.188H47.2242L32.1484 159.766Z" fill="#155BCC"/>
<path d="M10.2586 213.721H26.648C26.6357 213.16 26.5258 212.62 26.1871 212.185C25.7987 211.681 25.1683 211.419 24.5443 211.311C23.9179 211.203 23.2761 211.232 22.6421 211.2C21.0872 211.124 19.5513 210.679 18.1955 209.912C17.4875 209.515 16.8249 209.026 16.0602 208.747L11.5933 208.865C10.9823 209.523 10.5892 210.386 10.3998 211.273C10.2273 212.076 10.2084 212.9 10.2586 213.721Z" fill="#253746"/>
<path d="M80.7358 44.7842C81.5807 45.0151 82.0912 45.867 81.9004 46.7292C81.6371 48.0064 81.3199 49.2774 81.0185 50.554L80.5182 52.4635C80.3587 53.102 80.1554 53.734 79.9753 54.371C79.2193 56.9118 78.3408 59.4505 77.2048 61.9501C76.0691 64.4449 74.6602 66.9108 72.8335 69.1772C71.0144 71.4374 68.7676 73.4914 66.2316 75.0539C63.7027 76.6303 60.9685 77.7728 58.2374 78.6121C55.5004 79.4527 52.7564 80.0099 50.0407 80.4315C47.3205 80.8582 44.6357 81.1107 41.9631 81.3194C39.2877 81.5308 36.6455 81.6411 34.0046 81.7427C30.6484 81.7847 28.0154 79.0156 28.1834 75.7359C28.3519 72.4443 31.1752 69.9661 34.3571 70.2138C36.8626 70.4514 39.3695 70.6808 41.8429 70.8143C44.3172 70.9513 46.7837 71.0475 49.1911 70.9925C54.0077 70.8941 58.6716 70.3348 62.6589 68.5505C64.6585 67.6673 66.4617 66.4242 68.1024 64.8795C69.7403 63.3336 71.1909 61.4699 72.4735 59.4244C73.7578 57.378 74.8807 55.1602 75.9076 52.8728C76.1568 52.2964 76.4277 51.7307 76.6604 51.1429L77.38 49.3885C77.8321 48.2035 78.3012 47.0226 78.7223 45.8177C79.0083 45.0067 79.8909 44.5531 80.7358 44.7842Z" fill="#EA8096"/>
<path d="M51.7425 83.4194L36.5643 83.7196C31.9731 83.8104 28.0534 80.4838 27.9625 75.8927C27.8717 71.3015 31.6444 67.1845 36.2356 67.0937L51.4138 66.7936L51.7425 83.4194Z" fill="white"/>
<path d="M4.79297 122.492L5.45641 160.787L7.31509 160.717L22.5974 160.13L27.3341 159.95L27.7713 159.933L32.1498 159.766L47.2256 159.188H47.2279L48.3352 159.146L41.173 123.243L41.3773 105.5L41.5465 90.9492L41.5927 86.8321V86.8276L41.6343 83.3761C41.6343 83.3761 41.6343 83.3739 41.6343 83.3716L41.6366 83.1893L41.6409 82.7521L41.6606 81.0121C41.6695 80.7045 41.6695 80.4014 41.6606 80.0982V80.0959C41.5331 75.557 39.4262 71.5189 36.1856 68.7946C34.3534 67.2544 32.1564 66.1361 29.7484 65.587C29.6891 65.5739 29.6298 65.5607 29.5704 65.5497C28.5269 65.3234 27.4459 65.2047 26.3387 65.2047C26.0574 65.2047 25.7719 65.2135 25.4863 65.2289H25.4732C24.4999 65.2839 23.5463 65.4113 22.6192 65.6068C14.4529 67.3248 8.24875 74.3178 7.72803 82.8796L4.79297 122.492Z" fill="white"/>
<path d="M16.3735 67.6489L16.6831 67.9696C18.4825 66.8645 20.484 66.0539 22.6172 65.6056C23.5443 65.4101 24.4979 65.2826 25.4712 65.2278H25.4843C25.7699 65.2124 26.0556 65.2036 26.3367 65.2036C27.2287 65.2036 28.103 65.2805 28.9533 65.4298C28.9929 65.2892 29.0366 65.1465 29.0785 65.0081C28.1822 64.8455 27.2615 64.7642 26.3367 64.7642C26.0642 64.7642 25.7743 64.773 25.4733 64.7906H25.447C24.4628 64.8456 23.4807 64.9752 22.5271 65.1773C20.3038 65.6454 18.2299 66.4934 16.3735 67.6489ZM41.3028 111.705L41.7422 111.791L41.8147 105.505L41.9839 90.9547L42.0301 86.8375L42.0718 83.4563L41.6324 83.3573V83.3705C41.6324 83.3727 41.6324 83.375 41.6324 83.375L41.5907 86.8264V86.8309L41.5445 90.9481L41.3753 105.499L41.3028 111.705ZM4.62178 138.021L5.02383 161.243L7.32849 161.155L22.6129 160.569L27.3496 160.388L27.7867 160.371L41.8145 159.835L41.7728 159.395L32.1478 159.764L27.7693 159.931L27.3321 159.949L22.5955 160.129L7.31309 160.716L5.45442 160.786L5.05895 137.959L4.62178 138.021ZM4.35156 122.479L4.43287 127.13L4.87004 127.062L4.79098 122.49L6.25643 102.719C6.11146 102.708 5.96424 102.697 5.81702 102.687L4.35156 122.479ZM7.28663 82.8522L6.46489 93.9404H6.90655L7.72604 82.8785C7.97654 78.7416 9.55842 74.9692 12.0475 71.9814L11.6147 71.8299C9.11018 74.8859 7.53937 78.7131 7.28663 82.8522ZM41.171 123.242L47.2809 153.872L47.6961 153.708L41.6104 123.202L41.6697 118.101L41.2303 118L41.171 123.242ZM34.112 67.3261C34.8436 67.7567 35.5356 68.2488 36.1838 68.7936C38.9653 71.1311 40.9096 74.4355 41.4851 78.1944H41.9289C41.3621 74.4222 39.4287 70.9488 36.4672 68.4573C35.773 67.8729 35.0303 67.3522 34.2482 66.8996L34.112 67.3261Z" fill="#46647C"/>
<path d="M29.3748 71.4621C29.3748 71.4621 31.1567 76.9931 27.353 82.9784C27.353 82.9784 21.7064 77.7588 22.2745 71.0079C22.2745 71.0079 26.0941 73.8728 29.3748 71.4621Z" fill="#155BCC"/>
<path d="M25.4527 136.587L27.3334 159.95L27.7706 159.933L25.8899 136.552C25.3583 129.959 25.3318 123.274 25.8086 116.68L27.5706 81.5725L27.1312 81.5505L25.3714 116.652C24.8926 123.265 24.9189 129.972 25.4527 136.587Z" fill="#155BCC"/>
<path d="M36.0376 75.9858C32.3537 75.6728 29.1018 78.4155 28.7891 82.0995L30.4881 82.2437C30.7214 79.4967 33.1462 77.4516 35.8933 77.6848C38.6404 77.9181 40.6857 80.3429 40.4523 83.09L42.1515 83.2343C42.4643 79.5504 39.7214 76.2985 36.0376 75.9858Z" fill="#83A8FF"/>
<path d="M29.2422 81.9009C29.2834 82.2547 30.2918 90.5969 34.3119 93.4597C35.5351 94.3309 36.9148 94.6046 38.4126 94.2731L38.2652 93.6072C36.9639 93.8953 35.7671 93.6586 34.7073 92.9042C30.9318 90.2154 29.9295 81.9061 29.92 81.8225L29.2422 81.9009Z" fill="#253746"/>
<path d="M39.3347 93.7192C39.2125 93.1675 38.6664 92.8193 38.1147 92.9414C37.563 93.0635 37.2148 93.6097 37.3369 94.1614C37.459 94.7131 38.0052 95.0613 38.5569 94.9392C39.1084 94.8172 39.4566 94.271 39.3347 93.7192Z" fill="#253746"/>
<path d="M41.7628 82.7754C41.6943 83.125 40.0417 91.3636 35.8116 93.906C34.5243 94.6798 33.1277 94.8455 31.6602 94.3989L31.8588 93.7463C33.1339 94.1345 34.3454 93.9915 35.4604 93.3214C39.4331 90.9337 41.0771 82.7271 41.0932 82.6448L41.7628 82.7754Z" fill="#253746"/>
<path d="M30.7399 94.2344C30.9044 93.6938 31.476 93.389 32.0166 93.5535C32.5572 93.718 32.8621 94.2896 32.6975 94.8302C32.533 95.3708 31.9614 95.6757 31.4208 95.5111C30.8802 95.3466 30.5754 94.775 30.7399 94.2344Z" fill="#253746"/>
<path d="M29.6366 102.515C29.9596 100.221 30.0512 97.7073 29.9175 94.8286C29.6274 88.584 28.4228 83.1327 26.3372 78.6259C26.0619 78.0313 25.5438 77.276 24.9437 76.4012C22.9426 73.4845 21.2777 70.7694 22.8617 69.5998C24.4308 68.4414 28.2315 69.4386 30.2587 70.571C32.6791 71.923 34.3888 74.4768 34.7206 77.2361L36.2476 77.0524C35.858 73.8137 33.8504 70.8156 31.0086 69.2284C29.1081 68.1667 24.3925 66.5584 21.9482 68.3627C19.0383 70.5117 21.8291 74.5795 23.6758 77.2714C24.2133 78.0549 24.7209 78.7948 24.9418 79.2719C26.9435 83.5972 28.1009 88.855 28.3816 94.9001C28.5109 97.682 28.4233 100.103 28.114 102.301L29.6366 102.515Z" fill="#83A8FF"/>
<path d="M29.6276 103.936C30.4753 103.524 30.8287 102.503 30.417 101.655C30.0052 100.808 28.9842 100.454 28.1365 100.866C27.2888 101.278 26.9354 102.299 27.3471 103.146C27.7589 103.994 28.7799 104.348 29.6276 103.936Z" fill="#83A8FF"/>
<path d="M26.8825 102.821C26.6545 101.722 27.3634 100.642 28.4627 100.414C28.995 100.303 29.5387 100.407 29.9935 100.706C30.4481 101.004 30.7594 101.462 30.8697 101.994C30.9803 102.527 30.8766 103.071 30.5782 103.525C30.2798 103.98 29.8222 104.291 29.2896 104.402C29.1507 104.43 29.0121 104.444 28.8756 104.444C27.931 104.444 27.0816 103.782 26.8825 102.821ZM28.5965 101.059C27.8532 101.214 27.3736 101.944 27.5279 102.687C27.6823 103.431 28.4125 103.91 29.1558 103.756C29.516 103.681 29.8255 103.471 30.0272 103.163C30.2291 102.856 30.2992 102.488 30.2244 102.128C30.1497 101.768 29.9394 101.458 29.6319 101.257C29.4048 101.107 29.1446 101.03 28.8791 101.03C28.7851 101.03 28.6905 101.04 28.5965 101.059Z" fill="#253746"/>
<path d="M30.0706 60.565L29.3736 71.4619C27.2834 73.1161 24.5418 72.6964 22.2734 71.0078L22.9704 60.1107L30.0706 60.565Z" fill="#F4BCC7"/>
<path d="M30.0686 60.565L29.7532 65.4939C29.2427 65.6551 28.7009 65.7449 28.1402 65.7568C27.9606 65.7597 27.7814 65.7554 27.6025 65.744C25.6482 65.6189 23.8708 64.5958 22.7812 63.0352L22.9683 60.1107L30.0686 60.565Z" fill="#EA8096"/>
<path d="M33.7216 54.1069L33.0694 60.487C32.8089 63.0361 30.6872 64.99 28.1253 65.0403C25.7971 65.086 23.6615 63.7096 22.7833 61.5529C22.2021 60.1251 21.6987 58.4808 21.2264 56.7501C20.4716 53.9846 21.2546 50.9828 23.3637 49.0416C25.1615 47.3868 27.3143 46.9753 29.8482 47.8982C32.4082 48.8305 33.9987 51.3966 33.7216 54.1069Z" fill="#F4BCC7"/>
<path d="M32.5469 50.6415C32.5469 50.6415 33.7189 52.8027 33.457 56.7259C33.457 56.7259 34.3889 52.8031 33.7412 49.6857L32.5469 50.6415Z" fill="#253746"/>
<path d="M20.3915 57.9359C20.3915 57.9359 15.5638 51.463 19.2199 47.539C23.1603 43.3097 25.7182 43.7939 28.4642 44.5748C31.9373 45.5625 33.7996 46.7966 35.1358 46.5252C35.8501 46.3802 36.4866 45.7836 36.5978 46.1913C36.709 46.5989 36.8689 49.0006 34.8388 50.7679C32.8087 52.5353 30.1914 52.2369 27.6331 50.871C25.075 49.5054 23.858 49.6592 22.7624 51.2362C21.6 52.9093 23.1288 55.9969 23.1288 55.9969L22.3347 56.2755C22.3347 56.2755 20.8132 55.7641 20.3915 57.9359Z" fill="#253746"/>
<path d="M33.7843 56.3019C33.799 56.2206 33.8093 56.1391 33.8144 56.0585C33.8276 55.8607 33.8131 55.6665 33.7738 55.4796C33.6034 54.6671 32.9662 53.9934 32.1007 53.8182C31.0548 53.6064 30.0324 54.1955 29.6693 55.1636C29.6423 55.235 29.6191 55.3085 29.5999 55.3841L28.6808 55.2596V55.2597L28.6315 55.2495C28.4611 54.437 27.8239 53.7633 26.9584 53.5881C25.9125 53.3763 24.8901 53.9652 24.5269 54.9335C24.5103 54.9674 24.4967 55.0028 24.4858 55.0394L19.1094 55.8488L19.1438 56.0773L24.4289 55.2817C24.3719 55.5748 24.3778 55.8661 24.4373 56.1408C24.482 56.3462 24.556 56.5423 24.6563 56.7238C24.9499 57.2554 25.4661 57.6594 26.108 57.7893C26.8333 57.9362 27.5473 57.698 28.0379 57.2153C28.1912 57.0645 28.3228 56.8897 28.4259 56.6951C28.5211 56.5169 28.5918 56.3219 28.6341 56.1138C28.6534 56.0182 28.6661 55.9228 28.6723 55.828C28.6745 55.7938 28.6759 55.7597 28.6764 55.7258L29.5333 55.8414C29.53 55.9313 29.5324 56.0206 29.54 56.1086C29.5402 56.109 29.54 56.1093 29.54 56.1093C29.5478 56.1977 29.5613 56.2849 29.5798 56.3706C29.6213 56.5612 29.6878 56.7439 29.7776 56.9141C29.7845 56.9273 29.7916 56.9406 29.7988 56.9536C30.0924 57.4852 30.6086 57.8891 31.2505 58.019C31.9758 58.1659 32.6898 57.9277 33.1804 57.4452C33.2287 57.3976 33.2747 57.3478 33.3185 57.2957C33.4136 57.1824 33.4977 57.0586 33.5684 56.9248C33.6634 56.7468 33.7343 56.5515 33.7766 56.3434C33.7792 56.3301 33.7817 56.3161 33.7843 56.3019ZM28.2047 56.6271C27.8089 57.3338 26.9894 57.7371 26.1526 57.5677C25.398 57.4149 24.8373 56.8383 24.6686 56.1361C24.6051 55.8727 24.5968 55.5919 24.6543 55.3087C24.6683 55.2393 24.6859 55.1719 24.707 55.1061C24.7089 55.0987 24.7114 55.0918 24.714 55.0843C24.7766 54.8942 24.8674 54.7196 24.9805 54.5639C25.4077 53.9751 26.1535 53.6566 26.9131 53.8104C27.6523 53.96 28.2052 54.5164 28.386 55.199C28.4074 55.2796 28.4237 55.3616 28.4342 55.4452C28.4481 55.5516 28.4528 55.6602 28.4477 55.7701C28.4436 55.869 28.4315 55.969 28.4112 56.0692C28.3708 56.2704 28.3002 56.4574 28.2047 56.6271ZM33.3473 56.857C32.9515 57.5637 32.132 57.967 31.2953 57.7976C30.5407 57.6448 29.98 57.0683 29.8113 56.3661C29.7935 56.2924 29.78 56.2175 29.7713 56.1413L29.7682 55.7289C29.7712 55.6967 29.7755 55.6644 29.7805 55.6319C29.7848 55.6009 29.7905 55.5698 29.7968 55.5386C29.8061 55.4928 29.8168 55.4476 29.8296 55.4035C29.8357 55.3808 29.8424 55.3585 29.8497 55.336C29.8516 55.3286 29.854 55.3219 29.8566 55.3142C29.9193 55.1241 30.0099 54.9496 30.1232 54.7939C30.5503 54.205 31.2961 53.8865 32.0558 54.0403C32.795 54.1899 33.3479 54.7463 33.5287 55.4289C33.5501 55.5095 33.5664 55.5916 33.5769 55.6751C33.5835 55.7258 33.588 55.7767 33.5902 55.8282C33.5928 55.8851 33.593 55.9426 33.5904 56C33.5861 56.099 33.5741 56.1989 33.5539 56.2991L33.5529 56.3046C33.512 56.5036 33.442 56.6887 33.3473 56.857Z" fill="#36373C"/>
<path d="M23.9772 56.3516C23.8937 57.6591 22.6348 58.6428 21.1655 58.5488C19.6963 58.4549 18.5732 57.3188 18.6567 56.0113C18.7405 54.7038 19.9992 53.72 21.4684 53.8141C22.9377 53.908 24.0608 55.0441 23.9772 56.3516Z" fill="#F4BCC7"/>
<path d="M33.6797 117.797H60.5862L71.6542 82.9445H44.7478L33.6797 117.797Z" fill="#253746"/>
<path d="M67.7022 109.67C67.832 110.542 67.1241 111.345 66.212 111.392C63.5389 111.548 60.9396 111.309 58.3639 110.911C55.7963 110.492 53.2705 109.879 50.7923 109.127C50.1772 108.93 49.5507 108.752 48.9421 108.537L47.1087 107.9L45.2973 107.209C44.6904 106.982 44.1034 106.719 43.5043 106.475L42.6092 106.101L41.7275 105.704C41.141 105.436 40.5487 105.175 39.965 104.9C38.8116 104.329 37.6363 103.783 36.5054 103.169C27.3592 98.3835 18.9585 92.3411 11.1372 85.7215C10.8308 85.4537 10.5604 85.1603 10.3268 84.8481C10.0959 84.5336 9.90888 84.1941 9.75508 83.8456C9.44923 83.1467 9.29197 82.3981 9.2854 81.6483C9.27139 80.1479 9.86321 78.6468 11.0425 77.5C12.2218 76.3532 13.7425 75.7842 15.2131 75.774C15.9489 75.7694 16.6731 75.9052 17.3408 76.1837C17.6756 76.3219 17.9928 76.4999 18.297 76.7068C18.6032 76.911 18.89 77.1511 19.1526 77.4279C25.5727 84.6003 32.5727 91.2662 40.3677 96.8336C41.3332 97.5469 42.3352 98.1904 43.3254 98.8667C43.8257 99.1935 44.3331 99.5059 44.8378 99.8272L45.5969 100.306L46.3672 100.76C46.8829 101.059 47.3917 101.378 47.9154 101.661L49.4841 102.524L51.0759 103.338C51.6064 103.613 52.1495 103.851 52.6872 104.11C54.8486 105.109 57.0654 105.984 59.3304 106.686C61.5913 107.366 63.9214 107.904 66.2134 108.086C66.9788 108.142 67.5739 108.806 67.7022 109.67Z" fill="#F4BCC7"/>
<path d="M23.7791 98.7577L12.129 89.0239C8.60503 86.0797 7.83018 80.9972 10.7744 77.4732C13.7186 73.9493 19.2672 73.3186 22.7909 76.2628L34.4411 85.9966L23.7791 98.7577Z" fill="white"/>
<path d="M26.7359 79.5611L32.9512 84.7548L33.2346 84.4165L27.0017 79.2096L26.7359 79.5611ZM8.58876 83.5222C8.84584 85.5413 9.80147 87.4176 11.3043 88.872L11.6558 88.6018C9.12488 86.1741 8.27028 82.5666 9.54457 79.4975L9.16225 79.2734C8.59966 80.5937 8.39985 82.0459 8.58876 83.5222ZM17.4953 73.9545C15.5048 73.9545 13.5628 74.5982 11.9985 75.7341L12.2864 76.0657C14.9888 74.1105 18.7433 73.8181 21.6389 75.4682L21.9443 75.1386C20.6283 74.3674 19.0883 73.9545 17.4953 73.9545ZM15.6609 91.9785L15.406 92.3388L23.8315 99.3758L27.6191 94.8435L27.2302 94.6259L23.7765 98.7584L15.6609 91.9785ZM33.8191 86.7365L29.7262 91.638L30.159 91.8027L34.1509 87.0264C34.0432 86.9342 33.9333 86.8353 33.8191 86.7365Z" fill="#46647C"/>
<path d="M541.035 22.9739V151.677H286.973V22.9739C286.973 17.5127 291.401 13.084 296.863 13.084H531.146C536.607 13.084 541.035 17.5127 541.035 22.9739Z" fill="#253746"/>
<path d="M295.859 21.9738V142.788H532.141V21.9738H295.859Z" fill="white"/>
<path d="M470.9 213.722L457.879 198.623H457.879V185.759H370.125V198.624L357.105 213.722H470.9Z" fill="#E5E6EB"/>
<g opacity="0.1">
<path d="M470.9 213.722L457.879 198.623H457.879V185.759H370.125V198.624L357.105 213.722H470.9Z" fill="#253746"/>
</g>
<path d="M541.035 151.677V175.869C541.035 181.332 536.607 185.759 531.146 185.759H296.863C291.401 185.759 286.973 181.332 286.973 175.869V151.677H541.035Z" fill="#E5E6EB"/>
<path d="M541.031 151.677V142.788L286.968 142.788V151.677L541.031 151.677Z" fill="#253746"/>
<path d="M414.002 176.009C418.029 176.009 421.294 172.745 421.294 168.718C421.294 164.691 418.029 161.427 414.002 161.427C409.975 161.427 406.711 164.691 406.711 168.718C406.711 172.745 409.975 176.009 414.002 176.009Z" fill="#253746"/>
<path d="M295.859 21.879V142.693H532.141V21.879H295.859Z" fill="white"/>
<path d="M314.64 109.66H305.836V117.433H314.64V109.66Z" fill="#46647C"/>
<path d="M333.507 89.0917H324.703V96.8637H333.507V89.0917Z" fill="#46647C"/>
<path d="M352.371 100.675H343.566V108.447H352.371V100.675Z" fill="#46647C"/>
<path d="M371.234 77.3469H362.43V85.119H371.234V77.3469Z" fill="#46647C"/>
<path d="M390.101 65.1588H381.297V72.9309H390.101V65.1588Z" fill="#46647C"/>
<path d="M408.968 65.1588H400.164V72.9309H408.968V65.1588Z" fill="#46647C"/>
<path d="M427.836 77.3469H419.031V85.119H427.836V77.3469Z" fill="#46647C"/>
<path d="M446.699 93.7483H437.895V101.52H446.699V93.7483Z" fill="#46647C"/>
<path d="M465.566 65.3857H456.762V73.1595H465.566V65.3857Z" fill="#46647C"/>
<path d="M484.433 46.778H475.629V54.5517H484.433V46.778Z" fill="#46647C"/>
<path d="M503.3 59.6779H494.496V67.4499H503.3V59.6779Z" fill="#46647C"/>
<path d="M522.164 65.1588H513.359V72.9309H522.164V65.1588Z" fill="#46647C"/>
<path d="M314.64 117.433H305.836V142.693H314.64V117.433Z" fill="#E5E6EB"/>
<path d="M333.507 96.8638H324.703V142.693H333.507V96.8638Z" fill="#E5E6EB"/>
<path d="M352.371 108.447H343.566V142.693H352.371V108.447Z" fill="#E5E6EB"/>
<path d="M371.234 85.1189H362.43V142.693H371.234V85.1189Z" fill="#E5E6EB"/>
<path d="M390.101 72.931H381.297V142.693H390.101V72.931Z" fill="#E5E6EB"/>
<path d="M408.968 72.931H400.164V142.693H408.968V72.931Z" fill="#E5E6EB"/>
<path d="M427.836 85.1189H419.031V142.693H427.836V85.1189Z" fill="#E5E6EB"/>
<path d="M446.699 101.52H437.895V142.693H446.699V101.52Z" fill="#E5E6EB"/>
<path d="M465.566 73.1595H456.762V142.693H465.566V73.1595Z" fill="#E5E6EB"/>
<path d="M484.433 54.5519H475.629V142.693H484.433V54.5519Z" fill="#E5E6EB"/>
<path d="M503.3 67.45H494.496V142.693H503.3V67.45Z" fill="#E5E6EB"/>
<path d="M522.164 72.931H513.359V142.693H522.164V72.931Z" fill="#E5E6EB"/>
<path d="M532.141 63.6366V64.5943L517.61 57.7486L498.711 52.2574L480.081 39.5774L461.501 57.8474L442.388 86.5806L423.172 69.8762L404.44 57.7746H385.831L367.128 69.9005L348.067 93.4263L329.329 81.8945L310.522 102.173L310.482 102.201L295.859 112.207V111.158L309.954 101.514L329.178 80.7844L347.872 92.2902L366.542 69.2493L385.574 56.9087H404.696L423.718 69.2024L442.211 85.2818L460.829 57.2933L460.862 57.2603L479.981 38.4623L499.085 51.4642L517.918 56.9364L517.949 56.9503L532.141 63.6366Z" fill="#46647C"/>
<path d="M312.432 102.197C312.628 100.99 311.809 99.8527 310.602 99.6568C309.395 99.4609 308.258 100.281 308.062 101.487C307.866 102.694 308.685 103.832 309.892 104.027C311.099 104.223 312.236 103.404 312.432 102.197Z" fill="#253746"/>
<path d="M329.253 83.5528C330.476 83.5528 331.467 82.5616 331.467 81.339C331.467 80.1163 330.476 79.1251 329.253 79.1251C328.03 79.1251 327.039 80.1163 327.039 81.339C327.039 82.5616 328.03 83.5528 329.253 83.5528Z" fill="#253746"/>
<path d="M347.972 95.0721C349.194 95.0721 350.185 94.0809 350.185 92.8582C350.185 91.6356 349.194 90.6444 347.972 90.6444C346.749 90.6444 345.758 91.6356 345.758 92.8582C345.758 94.0809 346.749 95.0721 347.972 95.0721Z" fill="#253746"/>
<path d="M366.839 71.7886C368.062 71.7886 369.053 70.7975 369.053 69.5748C369.053 68.3521 368.062 67.361 366.839 67.361C365.616 67.361 364.625 68.3521 364.625 69.5748C364.625 70.7975 365.616 71.7886 366.839 71.7886Z" fill="#253746"/>
<path d="M387.872 57.8753C388.153 56.6854 387.417 55.493 386.227 55.2121C385.037 54.9311 383.844 55.6679 383.563 56.8578C383.282 58.0477 384.019 59.2401 385.209 59.5211C386.399 59.802 387.591 59.0652 387.872 57.8753Z" fill="#253746"/>
<path d="M406.134 58.9094C406.998 58.0448 406.998 56.6431 406.134 55.7786C405.269 54.914 403.867 54.914 403.003 55.7786C402.138 56.6431 402.138 58.0448 403.003 58.9094C403.867 59.7739 405.269 59.7739 406.134 58.9094Z" fill="#253746"/>
<path d="M423.433 71.7437C424.655 71.7437 425.646 70.7525 425.646 69.5299C425.646 68.3072 424.655 67.316 423.433 67.316C422.21 67.316 421.219 68.3072 421.219 69.5299C421.219 70.7525 422.21 71.7437 423.433 71.7437Z" fill="#253746"/>
<path d="M442.3 88.1452C443.522 88.1452 444.514 87.154 444.514 85.9314C444.514 84.7087 443.522 83.7175 442.3 83.7175C441.077 83.7175 440.086 84.7087 440.086 85.9314C440.086 87.154 441.077 88.1452 442.3 88.1452Z" fill="#253746"/>
<path d="M462.025 59.609C463.155 59.141 463.691 57.846 463.223 56.7164C462.755 55.5867 461.46 55.0503 460.331 55.5182C459.201 55.9862 458.664 57.2812 459.132 58.4108C459.6 59.5405 460.895 60.0769 462.025 59.609Z" fill="#253746"/>
<path d="M498.901 54.0746C500.124 54.0746 501.115 53.0835 501.115 51.8608C501.115 50.6381 500.124 49.647 498.901 49.647C497.679 49.647 496.688 50.6381 496.688 51.8608C496.688 53.0835 497.679 54.0746 498.901 54.0746Z" fill="#253746"/>
<path d="M519.96 57.6916C520.155 56.4847 519.336 55.3476 518.129 55.1517C516.922 54.9558 515.785 55.7754 515.589 56.9823C515.393 58.1892 516.213 59.3264 517.42 59.5223C518.627 59.7181 519.764 58.8985 519.96 57.6916Z" fill="#253746"/>
<path d="M480.03 41.234C481.253 41.234 482.244 40.2428 482.244 39.0201C482.244 37.7974 481.253 36.8063 480.03 36.8063C478.808 36.8063 477.816 37.7974 477.816 39.0201C477.816 40.2428 478.808 41.234 480.03 41.234Z" fill="#253746"/>
<path d="M817.805 22.9739V151.677H563.742V22.9739C563.742 17.5127 568.171 13.084 573.632 13.084H807.915C813.376 13.084 817.805 17.5127 817.805 22.9739Z" fill="#253746"/>
<path d="M572.633 21.9738V142.788H808.915V21.9738H572.633Z" fill="white"/>
<path d="M747.669 213.722L734.649 198.623H734.648V185.759H646.895V198.624L633.875 213.722H747.669Z" fill="#E5E6EB"/>
<g opacity="0.1">
<path d="M747.669 213.722L734.649 198.623H734.648V185.759H646.895V198.624L633.875 213.722H747.669Z" fill="#253746"/>
</g>
<path d="M817.805 151.677V175.869C817.805 181.332 813.376 185.759 807.915 185.759H573.632C568.171 185.759 563.742 181.332 563.742 175.869V151.677H817.805Z" fill="#E5E6EB"/>
<path d="M817.805 151.677V142.788L563.742 142.788V151.677L817.805 151.677Z" fill="#253746"/>
<path d="M690.776 176.009C694.803 176.009 698.067 172.745 698.067 168.718C698.067 164.691 694.803 161.427 690.776 161.427C686.749 161.427 683.484 164.691 683.484 168.718C683.484 172.745 686.749 176.009 690.776 176.009Z" fill="#253746"/>
<path d="M398.374 208.837L396.419 213.722H369.093C367.189 213.722 365.708 212.068 365.918 210.177L371.082 163.588L371.143 163.045L392.755 163.716L392.712 164.04L392.111 168.63L387.855 201.083L398.374 208.837Z" fill="#FFBD00"/>
<path d="M352.367 127.694V151.048L367.753 155.444V123.298L352.367 127.694Z" fill="#253746"/>
<path d="M407.226 117.071V157.917H368.256C364.924 157.917 362.134 155.59 361.426 152.472V152.47C361.311 151.968 361.25 151.447 361.25 150.91V124.077C361.25 120.206 364.387 117.071 368.256 117.071H407.226Z" fill="#253746"/>
<path d="M401.18 157.917L397.904 164.989L397.057 166.82C396.331 168.388 394.597 169.228 392.916 168.823L392.11 168.63L381.968 166.198L371.081 163.588L370.763 163.512C369.623 163.238 368.82 162.219 368.82 161.05V157.917H401.18Z" fill="#253746"/>
<path d="M390.768 179.036L388.863 193.416H390.05C392.298 193.416 394.197 191.752 394.492 189.524L395.21 184.106C395.566 181.421 393.476 179.036 390.768 179.036Z" fill="#253746"/>
<path d="M467.078 88.1453V186.764C463.598 183.769 460.05 180.972 456.437 178.387C456.201 178.217 455.964 178.048 455.728 177.884C455.256 177.55 454.781 177.218 454.305 176.892C454.067 176.726 453.829 176.564 453.591 176.404C453.352 176.24 453.114 176.08 452.874 175.922C452.636 175.76 452.398 175.602 452.158 175.445C451.439 174.971 450.717 174.505 449.993 174.048C449.786 173.917 449.579 173.786 449.372 173.657C448.612 173.183 447.849 172.718 447.082 172.263C446.838 172.117 446.594 171.973 446.35 171.832C446.153 171.715 445.953 171.6 445.756 171.486C444.884 170.981 444.005 170.489 443.123 170.009C442.875 169.872 442.625 169.737 442.373 169.603C442.067 169.439 441.76 169.275 441.452 169.115C441.143 168.953 440.835 168.793 440.526 168.634C440.493 168.617 440.46 168.599 440.425 168.582C439.839 168.283 439.253 167.99 438.666 167.701C438.356 167.549 438.043 167.399 437.731 167.248C436.806 166.803 435.872 166.374 434.937 165.956C434.914 165.944 434.89 165.935 434.867 165.925C434.566 165.79 434.266 165.659 433.965 165.528C433.649 165.39 433.333 165.255 433.017 165.12C432.333 164.831 431.646 164.548 430.957 164.273C430.74 164.187 430.526 164.101 430.309 164.017C429.745 163.797 429.181 163.58 428.613 163.369C428.478 163.319 428.341 163.268 428.205 163.219C428.127 163.19 428.048 163.16 427.969 163.133C427.422 162.932 426.875 162.737 426.325 162.548C424.956 162.073 423.58 161.628 422.192 161.212C421.979 161.148 421.766 161.085 421.554 161.023C420.874 160.822 420.191 160.63 419.506 160.445C419.273 160.382 419.043 160.32 418.811 160.259C418.76 160.246 418.709 160.232 418.656 160.218C418.463 160.168 418.27 160.119 418.077 160.07C417.852 160.011 417.63 159.955 417.405 159.9C417.075 159.818 416.745 159.738 416.413 159.66C416.076 159.578 415.736 159.5 415.396 159.422C415.061 159.346 414.725 159.271 414.387 159.199C414.084 159.133 413.782 159.069 413.477 159.006C413.399 158.991 413.319 158.973 413.241 158.957C413.003 158.909 412.765 158.862 412.527 158.815C411.543 158.622 410.555 158.442 409.563 158.278C409.345 158.241 409.126 158.206 408.905 158.171C408.894 158.169 408.884 158.167 408.872 158.165C408.603 158.122 408.333 158.081 408.062 158.04C407.785 157.997 407.508 157.956 407.228 157.917C406.447 156.337 405.764 154.742 405.178 153.134C401.079 141.864 401.762 129.842 407.228 117.071C424.369 115.976 440.476 109.672 455.553 98.1581C459.464 95.1712 463.307 91.833 467.078 88.1453Z" fill="#FFBD00"/>
<path d="M486.161 137.456C486.161 164.687 477.619 186.764 467.081 186.764C463.139 186.764 459.479 183.678 456.439 178.387C451.348 169.532 448 154.504 448 137.456C448 129.069 448.81 121.172 450.239 114.258C451.543 107.946 453.363 102.455 455.555 98.158C458.757 91.8739 462.749 88.1453 467.081 88.1453C477.618 88.1453 486.161 110.223 486.161 137.456Z" fill="#FFBD00"/>
<path d="M484.048 137.456C484.048 143.05 483.704 148.407 483.075 153.352C482.691 156.386 482.199 159.264 481.611 161.946C481.512 162.411 481.406 162.869 481.299 163.32C480.444 166.941 479.413 170.176 478.244 172.915C475.634 179.029 472.333 182.682 468.745 182.682C462.738 182.682 457.537 172.453 455.032 157.563C454.806 156.224 454.603 154.848 454.423 153.436C454.382 153.112 454.341 152.786 454.302 152.458C454.29 152.355 454.279 152.251 454.267 152.146C454.207 151.627 454.148 151.102 454.095 150.574C453.67 146.422 453.441 142.018 453.441 137.456C453.441 132.136 453.752 127.031 454.324 122.291V122.287C456.434 104.768 462.093 92.2273 468.745 92.2273C477.195 92.2273 484.048 112.475 484.048 137.456Z" fill="#DCA000"/>
<path d="M481.298 163.32C480.442 166.941 479.412 170.176 478.242 172.915L455.031 157.563C454.805 156.224 454.601 154.848 454.422 153.436L481.298 163.32Z" fill="#EAC666"/>
<path d="M483.074 153.352C482.689 156.386 482.197 159.263 481.61 161.946L454.266 152.146C454.205 151.627 454.147 151.101 454.094 150.574L483.074 153.352Z" fill="#EAC666"/>
<path d="M470.293 127.07V147.841C460.268 147.533 454.306 152.47 454.306 152.47L454.302 152.458C453.746 147.763 453.441 142.715 453.441 137.456C453.441 132.136 453.752 127.031 454.324 122.291V122.287C459.663 128.872 470.293 127.07 470.293 127.07Z" fill="#253746"/>
<path d="M470.29 147.84C473.086 147.84 475.353 143.191 475.353 137.455C475.353 131.719 473.086 127.069 470.29 127.069C467.493 127.069 465.227 131.719 465.227 137.455C465.227 143.191 467.493 147.84 470.29 147.84Z" fill="#FFBD00"/>
<path d="M407.23 157.917H368.26C364.928 157.917 362.138 155.59 361.43 152.472V152.47C361.43 152.47 368.992 152.284 392.059 152.47C396.253 152.503 400.706 152.788 405.18 153.134C405.766 154.742 406.449 156.337 407.23 157.917Z" fill="#253746"/>
<path d="M456.438 178.387C456.202 178.217 455.966 178.047 455.73 177.884C455.257 177.55 454.783 177.218 454.306 176.892C454.068 176.728 453.83 176.566 453.592 176.404C453.354 176.242 453.115 176.082 452.875 175.922C452.637 175.762 452.397 175.604 452.159 175.445C451.44 174.971 450.718 174.505 449.994 174.048C449.787 173.917 449.58 173.786 449.373 173.657C448.614 173.183 447.85 172.718 447.083 172.263C446.839 172.119 446.595 171.974 446.351 171.832C446.154 171.715 445.957 171.6 445.757 171.486C444.885 170.981 444.006 170.489 443.124 170.009C442.874 169.872 442.624 169.735 442.374 169.603C442.068 169.437 441.761 169.275 441.453 169.115C441.145 168.953 440.836 168.793 440.528 168.634C440.494 168.617 440.461 168.599 440.426 168.582C439.842 168.283 439.255 167.988 438.667 167.701C438.357 167.547 438.044 167.397 437.732 167.248C436.807 166.803 435.876 166.372 434.939 165.956C434.915 165.944 434.892 165.935 434.868 165.925C434.568 165.79 434.267 165.657 433.967 165.528C433.65 165.39 433.334 165.253 433.018 165.12C432.334 164.831 431.647 164.548 430.958 164.273C430.742 164.187 430.527 164.101 430.31 164.017C429.746 163.797 429.182 163.58 428.614 163.369C428.479 163.319 428.342 163.268 428.206 163.219C428.128 163.19 428.05 163.16 427.97 163.133C427.423 162.932 426.875 162.737 426.326 162.547C424.958 162.073 423.581 161.628 422.193 161.212C421.98 161.148 421.768 161.085 421.555 161.023C420.876 160.822 420.192 160.63 419.507 160.445C419.277 160.382 419.044 160.32 418.812 160.259C418.761 160.246 418.71 160.232 418.658 160.218C418.464 160.168 418.271 160.117 418.078 160.07C417.853 160.011 417.631 159.955 417.406 159.9C417.076 159.816 416.746 159.736 416.415 159.66C416.077 159.578 415.737 159.5 415.398 159.422C415.062 159.346 414.726 159.271 414.388 159.199C414.086 159.133 413.783 159.069 413.479 159.006C413.401 158.991 413.32 158.973 413.242 158.957C413.004 158.909 412.766 158.862 412.528 158.815C411.544 158.622 410.556 158.442 409.564 158.278C409.346 158.241 409.127 158.204 408.907 158.171C408.895 158.169 408.885 158.167 408.873 158.165C408.604 158.122 408.334 158.079 408.063 158.04C407.786 157.997 407.509 157.956 407.23 157.917C406.449 156.337 405.765 154.742 405.18 153.134C405.863 153.186 406.546 153.241 407.23 153.298C426.695 154.862 445.881 157.027 445.164 144.125C444.698 135.742 447.45 123.847 450.238 114.258C448.809 121.173 447.999 129.069 447.999 137.456C447.999 154.504 451.347 169.532 456.438 178.387Z" fill="#DCA000"/>
<path d="M381.969 166.198C378.471 168.318 375.459 172.222 373.975 179.037C368.989 201.935 365.563 210.977 371.307 213.722H369.093C367.189 213.722 365.708 212.069 365.918 210.177L371.082 163.588L381.969 166.198Z" fill="#DCA000"/>
<path d="M401.18 157.917L397.904 164.989C396.479 164.593 394.683 164.206 392.711 164.041C389.32 163.75 385.408 164.111 381.968 166.198L371.081 163.588L370.763 163.512C369.623 163.238 368.82 162.219 368.82 161.05V157.917H401.18Z" fill="#253746"/>
<path d="M412.539 118.466C410.315 118.616 408.39 120.056 407.605 122.143C406.563 124.91 405.524 128.807 406.285 132.033C407.379 136.668 409.901 134.563 410.553 130.37C411.479 124.415 409.948 122.36 417.959 121.151C425.969 119.942 433.072 115.408 437.909 112.083C437.909 112.083 425.48 117.592 412.539 118.466Z" fill="#FFD766"/>
<path d="M365.269 95.0475C365.792 95.7543 365.713 96.712 365.089 97.2336C363.241 98.7743 361.359 100.291 359.364 101.721C357.367 103.151 355.279 104.518 352.89 105.645C351.694 106.206 350.411 106.701 348.984 107.026C347.569 107.356 345.97 107.496 344.317 107.247C342.666 107.004 341.026 106.33 339.686 105.426C338.328 104.526 337.239 103.45 336.301 102.36C335.36 101.265 334.582 100.142 333.869 99.0177C333.158 97.8929 332.523 96.7648 331.927 95.6379C330.741 93.3843 329.707 91.1355 328.723 88.896C326.763 84.4161 324.994 79.9689 323.213 75.5549C322.154 72.73 323.893 69.5401 327.035 68.5229C330.177 67.5055 333.462 69.1063 334.239 72.0207C335.362 76.6377 336.459 81.2361 337.681 85.6942C338.294 87.9202 338.942 90.1107 339.677 92.1946C340.046 93.2341 340.437 94.2461 340.861 95.2044C341.285 96.1602 341.741 97.0707 342.238 97.8626C342.734 98.6583 343.265 99.3476 343.817 99.8594C344.371 100.38 344.933 100.731 345.608 100.962C346.941 101.432 348.915 101.253 350.934 100.629C352.963 100.018 355.041 99.0747 357.079 98.0176C359.124 96.962 361.142 95.7725 363.145 94.544C363.814 94.1202 364.746 94.3406 365.269 95.0475Z" fill="#EA8096"/>
<path d="M327.918 89.8766L323.423 77.1801C322.063 73.3398 323.33 69.2643 326.579 68.1137C329.828 66.9631 333.829 69.173 335.189 73.0135L339.685 85.7099L327.918 89.8766Z" fill="#46647C"/>
<path d="M318.916 74.3867C318.916 74.3867 316.509 83.6334 308.529 82.5342C302.483 81.7014 296.857 73.853 303.366 66.6168C303.366 66.6168 301.274 60.8591 304.445 58.7693C304.445 58.7693 302.611 52.9336 308.038 49.3027C313.465 45.6717 313.663 43.4788 320.909 44.1843C328.156 44.8898 331.826 49.3837 330.499 53.4874C328.208 60.5707 326.709 58.8484 329.37 62.4209C330.936 64.5225 329.187 68.6656 327.412 70.2987C324.534 72.9467 323.353 70.7827 324.274 73.6731C325.194 76.5637 323.91 78.8393 321.065 77.8098C318.219 76.7802 323.043 72.0034 318.916 74.3867Z" fill="#253746"/>
<path d="M323.16 204.502C323.16 204.502 323.994 207.757 326.206 209.998L318.172 206.68L318.24 205.768C318.24 205.768 319.133 204.681 319.688 203.201L323.16 204.502Z" fill="#F5BDC8"/>
<path d="M317.869 208.081L328.266 211.977C328.647 212.12 328.968 211.659 328.7 211.351L325.844 208.061C325.526 207.843 325.25 207.995 325.092 208.279C324.962 208.512 324.678 208.61 324.428 208.517L320.263 206.971C319.738 206.776 319.271 206.45 318.907 206.023L318.458 205.497C318.343 205.363 318.125 205.401 318.063 205.567L317.459 207.179C317.323 207.542 317.507 207.945 317.869 208.081Z" fill="#253746"/>
<path d="M341.11 147.978L341.111 147.977L341.099 147.935C341.053 147.736 340.997 147.541 340.933 147.348C340.933 147.348 330.596 110.857 330.525 110.608C329.195 105.909 324.978 103.795 320.215 104.874C315.453 105.952 312.466 110.688 313.545 115.45C313.545 115.451 313.545 115.451 313.545 115.451L313.544 115.452C315.714 130.469 319.907 142.951 327.458 151.22L319.639 203.218L323.37 204.588L340.868 151.792L340.866 151.791L340.883 151.744C340.954 151.542 341.017 151.339 341.07 151.136L341.073 151.126C341.342 150.067 341.341 148.991 341.11 147.978Z" fill="#253746"/>
<path d="M318.74 208.512C318.74 208.512 320.664 211.267 323.522 212.589L314.834 212.303L314.578 211.426C314.578 211.426 315.033 210.094 315.032 208.513L318.74 208.512Z" fill="#F5BDC8"/>
<path d="M315.041 213.722L326.144 213.718C326.552 213.718 326.689 213.174 326.331 212.98L322.501 210.902C322.127 210.81 321.922 211.049 321.874 211.371C321.834 211.634 321.602 211.826 321.336 211.827L316.893 211.842C316.332 211.843 315.781 211.702 315.29 211.431L314.685 211.096C314.53 211.01 314.34 211.122 314.34 211.3L314.34 213.021C314.34 213.408 314.654 213.722 315.041 213.722Z" fill="#253746"/>
<path d="M314.535 104.675C309.663 104.355 305.919 105.735 305.599 110.608C305.222 112.537 305.178 112.772 305.067 113.498C302.669 129.086 303.451 142.128 308.897 152.345L315.179 208.508L319.137 208.871L322.778 114.088C322.778 114.084 322.779 114.081 322.779 114.078C323.099 109.205 319.408 104.995 314.535 104.675Z" fill="#253746"/>
<path d="M308.897 152.367C305.365 145.766 303.855 137.743 303.841 128.677C303.837 125.525 304.011 122.246 304.344 118.859L303.927 118.607C302.494 132.96 303.99 144.086 308.469 152.499L309.68 163.199L310.114 163.099L308.897 152.367ZM322.686 116.363C322.686 116.363 321.253 151.682 321.249 151.81L321.687 151.91L323.129 116.246L322.686 116.363ZM320.259 176.265L319.179 207.868L319.624 207.86L320.698 176.301L320.259 176.265ZM313.676 194.54L313.245 194.643L314.874 208.926L318.585 209.262V208.819L315.272 208.521L313.676 194.54Z" fill="#46647C"/>
<path d="M318.176 65.2217C328.22 65.2217 335.912 74.1566 334.418 84.0891L330.526 110.608C323.342 113.293 313.918 112.927 305.602 110.608L304.629 79.8802C304.005 71.9782 310.249 65.2217 318.176 65.2217Z" fill="#46647C"/>
<path d="M330.955 70.644C329.442 68.8833 327.6 67.4735 325.56 66.4803L325.447 66.9158C330.914 69.6163 334.605 75.2618 334.605 81.6186C334.605 82.4299 334.545 83.2571 334.42 84.0904L333.743 88.6895L334.116 89.1751L334.852 84.153C335.585 79.294 334.166 74.3692 330.955 70.644ZM307.016 71.0545L306.725 70.7099C304.842 73.3698 303.93 76.6342 304.187 79.8926L304.942 103.762L305.387 103.819L304.629 79.8802C304.369 76.6091 305.29 73.5357 307.016 71.0545ZM331.606 103.245L330.526 110.607C325.068 112.647 318.317 112.929 311.741 111.926L311.719 112.368C314.166 112.738 316.603 112.929 318.956 112.929C323.351 112.929 327.293 112.287 330.679 111.021L330.924 110.93L332.048 103.245H331.606Z" fill="#253746"/>
<path d="M323.136 63.2844L321.83 73.2756C319.476 74.4017 317.306 74.118 315.32 72.4248L316.626 62.4336L323.136 63.2844Z" fill="#F5BDC8"/>
<path d="M323.02 64.1896L322.696 66.6678C321.641 67.1233 320.466 67.3323 319.259 67.2323C319.191 67.2255 319.123 67.219 319.056 67.2101C317.928 67.0627 316.898 66.4882 316.211 65.6248L316.51 63.339L323.02 64.1896Z" fill="#EA8096"/>
<path d="M327.063 54.2311L325.964 61.3179C325.436 64.527 322.532 66.7929 319.291 66.5254C318.344 66.4472 317.377 65.9713 316.761 65.1318C316.094 64.2211 315.704 63.2653 315.357 62.2784C314.696 60.397 314.211 58.5847 314.591 56.6271L315.195 54.4897L325.46 51.561L327.063 54.2311Z" fill="#F5BDC8"/>
<path d="M315.417 57.5319C315.417 57.5319 317.073 53.2825 319.687 52.2596C319.687 52.2596 318.086 49.3846 315.267 52.8348C313.897 54.512 312.476 57.7557 313.094 58.8093C313.712 59.8625 315.134 60.26 315.417 57.5319Z" fill="#253746"/>
<path d="M327.082 60.6282C327.056 60.6669 327.028 60.7055 326.999 60.7439C326.656 58.3311 325.456 56.3934 322.796 55.5123C322.278 55.3407 321.705 55.2092 321.072 55.122C317.099 54.575 317.16 52.6099 317.16 52.6099L316.316 49.459C327.154 45.0552 327.703 53.9775 327.343 58.5128C327.267 59.4672 327.151 60.2275 327.082 60.6282Z" fill="#253746"/>
<path d="M316.676 58.0709C316.505 59.3791 315.306 60.301 313.997 60.1299C312.689 59.959 311.767 58.76 311.938 57.4518C312.109 56.1436 313.308 55.2217 314.617 55.3928C315.925 55.5637 316.847 56.7627 316.676 58.0709Z" fill="#F5BDC8"/>
<path d="M365.999 111.205C364.874 111.201 363.733 111.166 362.63 111.132L361.822 111.108C361.373 111.093 360.926 111.068 360.478 111.045C360.233 111.031 359.988 111.018 359.743 111.007L358.707 110.953L357.674 110.874C357.429 110.854 357.185 110.836 356.94 110.818C356.504 110.787 356.053 110.755 355.613 110.705L353.566 110.492L351.535 110.215C351.104 110.158 350.67 110.081 350.25 110.007C350.01 109.965 349.77 109.922 349.531 109.883C346.658 109.36 344.148 108.687 341.858 107.827C339.354 106.887 337.083 105.702 335.107 104.306C331.423 101.705 328.197 98.0844 324.956 92.9116C323.689 90.8922 322.388 88.5979 320.979 85.898C319.863 83.7364 318.708 81.3847 317.342 78.4961C316.617 77.0059 315.331 75.8642 313.814 75.3633C312.454 74.9146 311.036 75.0168 309.82 75.6507C308.605 76.2837 307.72 77.3914 307.327 78.7693C306.882 80.3318 307.126 82.0733 308 83.5492C309.752 86.3964 311.228 88.7147 312.646 90.8458C314.516 93.6325 316.161 95.9051 317.822 97.9984C319.903 100.617 321.911 102.808 323.959 104.696C326.344 106.897 328.876 108.743 331.484 110.182C334.088 111.619 336.984 112.747 340.09 113.533C342.792 114.218 345.679 114.662 348.916 114.89C349.168 114.904 349.421 114.92 349.673 114.936C350.142 114.966 350.627 114.998 351.103 115.009L353.281 115.063L355.443 115.049C355.454 115.049 355.464 115.049 355.475 115.049C355.934 115.049 356.396 115.032 356.843 115.015C357.095 115.005 357.347 114.996 357.6 114.989L358.677 114.952L359.747 114.89C359.998 114.874 360.249 114.86 360.499 114.846C360.962 114.819 361.425 114.793 361.886 114.758L362.674 114.695C363.812 114.605 364.988 114.511 366.139 114.388C367.062 114.297 367.749 113.566 367.704 112.724C367.659 111.883 366.911 111.216 365.999 111.205Z" fill="#F4BCC7"/>
<path d="M314.469 98.3277L307.212 86.1403C305.017 82.4539 305.907 77.7333 309.594 75.5382L309.912 75.4906C313.599 73.2955 318.367 74.5044 320.562 78.1908L327.819 90.3782L314.469 98.3277Z" fill="#46647C"/>
<path d="M320.944 77.9625C319.471 75.4878 316.764 73.9502 313.879 73.9502C313.18 73.9502 312.484 74.0395 311.812 74.2157L312.002 74.6285C315.242 73.8163 318.763 75.1729 320.56 78.19L322.463 81.3877L322.858 81.178L320.944 77.9625ZM326.694 87.6181L326.299 87.828L327.819 90.3787L319.708 95.2077L319.924 95.5981L328.431 90.5326L326.694 87.6181ZM308.864 76.0322L308.646 75.6395C307.166 76.7529 306.155 78.3395 305.761 80.1872C305.314 82.2693 305.694 84.4649 306.827 86.3684L312.54 95.9594L312.966 95.8054L307.211 86.1408C305.167 82.7111 305.796 78.3843 308.864 76.0322Z" fill="#253746"/>
<path d="M328.106 104.881L327.879 106.277L369.46 113.055L369.688 111.659L328.106 104.881Z" fill="#253746"/>
<path d="M369.677 111.667L343.852 107.457L355.275 87.618L381.1 91.8279L369.677 111.667Z" fill="#155BCC"/>
<path d="M363.63 101.721C362.752 103.803 361.414 105.227 360.643 104.902C359.872 104.576 359.959 102.625 360.838 100.543C361.716 98.4606 363.054 97.0367 363.825 97.3621C364.596 97.6875 364.509 99.6391 363.63 101.721Z" fill="white"/>
<path d="M322.504 103.293C322.988 103.78 323.474 104.245 323.961 104.695C326.346 106.897 328.877 108.744 331.485 110.182C334.089 111.618 336.985 112.748 340.091 113.532C342.733 114.202 345.555 114.644 348.706 114.874L350.356 110.025C350.32 110.02 350.286 110.012 350.252 110.007C350.011 109.965 349.771 109.923 349.533 109.884C346.661 109.358 344.151 108.686 341.86 107.825C339.357 106.887 337.084 105.702 335.11 104.305C332.803 102.676 330.674 100.649 328.613 98.0889C328.312 98.5099 328.001 98.9205 327.685 99.3312C327.243 99.9327 326.759 100.498 326.233 101.023C325.805 101.517 325.321 101.949 324.779 102.32C324.445 102.511 324.107 102.705 323.772 102.896C323.362 103.082 322.938 103.215 322.504 103.293Z" fill="#F4BCC7"/>
<path d="M528.167 132.823H510.626C500.504 132.823 492.27 141.057 492.27 151.179V201.102C492.27 208.061 497.931 213.722 504.889 213.722H533.903C540.862 213.722 546.523 208.061 546.523 201.102V151.179C546.523 141.057 538.289 132.823 528.167 132.823Z" fill="#253746"/>
<path d="M542.504 158.841V201.1C542.504 205.844 538.649 209.705 533.899 209.705H504.886C500.142 209.705 496.281 205.844 496.281 201.1V158.841C496.281 156.18 506.629 154.029 519.393 154.029C532.161 154.029 542.504 156.18 542.504 158.841Z" fill="#46647C"/>
<g opacity="0.3">
<path d="M542.504 158.841V201.1C542.504 205.844 538.649 209.705 533.899 209.705H504.886C500.142 209.705 496.281 205.844 496.281 201.1V158.841C496.281 156.18 506.629 154.029 519.393 154.029C532.161 154.029 542.504 156.18 542.504 158.841Z" fill="#253746"/>
</g>
<path d="M541.379 125.014H497.414V137.3H541.379V125.014Z" fill="#46647C"/>
<path d="M541.379 135.413H497.414V137.3H541.379V135.413Z" fill="#253746"/>
<path d="M542.504 158.841C542.504 161.497 532.161 163.648 519.393 163.648C506.629 163.648 496.281 161.497 496.281 158.841C496.281 156.18 506.629 154.029 519.393 154.029C532.161 154.029 542.504 156.18 542.504 158.841Z" fill="#46647C"/>
<path d="M537.242 209.552C537.243 211.853 535.377 213.721 533.074 213.721L528.344 213.721L528.344 205.384L533.073 205.384C534.225 205.384 535.267 205.85 536.02 206.605C536.776 207.359 537.242 208.401 537.242 209.552Z" fill="#46647C"/>
<path d="M528.343 205.384L528.344 213.721L523.614 213.722C522.465 213.722 521.421 213.254 520.667 212.5C519.914 211.747 519.445 210.703 519.445 209.554C519.445 207.251 521.313 205.385 523.613 205.385L528.343 205.384Z" fill="white"/>
<path d="M516.184 201.215C516.183 203.516 518.049 205.384 520.352 205.384L525.082 205.384L525.082 197.047L520.352 197.047C519.201 197.047 518.159 197.512 517.406 198.268C516.65 199.022 516.184 200.063 516.184 201.215Z" fill="#46647C"/>
<path d="M525.083 197.047L525.082 205.384L529.812 205.384C530.961 205.384 532.005 204.917 532.759 204.163C533.512 203.409 533.98 202.365 533.981 201.216C533.981 198.913 532.113 197.047 529.812 197.047L525.083 197.047Z" fill="white"/>
<path d="M535.2 199.918C536.827 198.291 539.467 198.289 541.095 199.917L544.44 203.262L538.545 209.157L535.2 205.813C534.386 204.999 533.979 203.933 533.98 202.866C533.979 201.798 534.386 200.732 535.2 199.918Z" fill="white"/>
<path d="M538.547 209.157L544.442 203.262L547.786 206.606C548.599 207.418 549.006 208.487 549.006 209.553C549.006 210.619 548.599 211.688 547.787 212.501C546.159 214.13 543.518 214.128 541.892 212.502L538.547 209.157Z" fill="#46647C"/>
<path d="M369.085 211L471.867 213.746L472.415 193.23L369.633 190.484L369.085 211Z" fill="#46647C"/>
<path d="M462.754 213.497L463.559 213.518L463.738 206.814L462.933 206.792L462.754 213.497Z" fill="#253746"/>
<path d="M460.024 213.434L460.828 213.456L461.007 206.751L460.203 206.73L460.024 213.434Z" fill="#253746"/>
<path d="M457.297 213.361L458.102 213.382L458.459 199.995L457.654 199.974L457.297 213.361Z" fill="#253746"/>
<path d="M449.656 213.156L450.461 213.178L450.64 206.473L449.835 206.452L449.656 213.156Z" fill="#253746"/>
<path d="M446.934 213.073L447.738 213.095L447.917 206.39L447.113 206.369L446.934 213.073Z" fill="#253746"/>
<path d="M444.203 213.01L445.008 213.031L445.365 199.644L444.561 199.623L444.203 213.01Z" fill="#253746"/>
<path d="M436.555 212.806L437.359 212.827L437.538 206.122L436.734 206.101L436.555 212.806Z" fill="#253746"/>
<path d="M433.828 212.732L434.633 212.754L434.812 206.049L434.007 206.028L433.828 212.732Z" fill="#253746"/>
<path d="M431.109 212.65L431.914 212.671L432.272 199.284L431.467 199.263L431.109 212.65Z" fill="#253746"/>
<path d="M423.461 212.455L424.266 212.476L424.445 205.772L423.64 205.75L423.461 212.455Z" fill="#253746"/>
<path d="M420.734 212.382L421.539 212.403L421.718 205.699L420.914 205.677L420.734 212.382Z" fill="#253746"/>
<path d="M418.008 212.308L418.812 212.33L419.17 198.943L418.365 198.921L418.008 212.308Z" fill="#253746"/>
<path d="M369.081 210.998L413.332 212.18L413.88 191.664L369.629 190.482L369.081 210.998Z" fill="#E5E6EB"/>
<path d="M410.363 212.104L411.168 212.125L411.347 205.421L410.542 205.399L410.363 212.104Z" fill="white"/>
<path d="M407.641 212.031L408.445 212.052L408.624 205.348L407.82 205.326L407.641 212.031Z" fill="white"/>
<path d="M404.91 211.957L405.715 211.979L406.072 198.592L405.268 198.571L404.91 211.957Z" fill="white"/>
<path d="M397.266 211.753L398.07 211.775L398.249 205.07L397.445 205.049L397.266 211.753Z" fill="white"/>
<path d="M394.539 211.68L395.344 211.702L395.523 204.997L394.718 204.975L394.539 211.68Z" fill="white"/>
<path d="M391.813 211.607L392.617 211.628L392.975 198.242L392.17 198.22L391.813 211.607Z" fill="white"/>
<path d="M384.172 211.402L384.977 211.424L385.156 204.719L384.351 204.698L384.172 211.402Z" fill="white"/>
<path d="M381.449 211.321L382.254 211.342L382.433 204.638L381.628 204.616L381.449 211.321Z" fill="white"/>
<path d="M378.719 211.256L379.523 211.277L379.881 197.891L379.076 197.869L378.719 211.256Z" fill="white"/>
<path d="M412.935 212.169L416.242 212.258L416.79 191.742L413.483 191.653L412.935 212.169Z" fill="#253746"/>
<path d="M364.654 213.629L369.012 213.746L369.707 187.732L365.349 187.615L364.654 213.629Z" fill="#253746"/>
<path d="M340.879 208.587L364.77 209.225L365.229 192.017L341.338 191.379L340.879 208.587Z" fill="#E5E6EB"/>
<path d="M336.075 210.85L340.812 210.977L341.4 188.986L336.662 188.859L336.075 210.85Z" fill="#46647C"/>
<path d="M471.975 210.062L480.199 210.282L480.55 197.141L472.326 196.921L471.975 210.062Z" fill="#253746"/>
<path d="M480.294 206.839L484.406 206.949L484.573 200.691L480.461 200.582L480.294 206.839Z" fill="#253746"/>
<path d="M484.491 203.156L518.714 204.709L484.457 204.43L484.491 203.156Z" fill="#253746"/>
<path d="M795.647 27.6067H585.902V32.4459H795.647V27.6067Z" fill="#E5E6EB"/>
<path d="M795.647 36.5732H585.902V41.4125H795.647V36.5732Z" fill="#E5E6EB"/>
<path d="M715.944 45.5399H585.902V50.3791H715.944V45.5399Z" fill="#E5E6EB"/>
<path d="M795.647 63.473H585.902V68.3123H795.647V63.473Z" fill="#E5E6EB"/>
<path d="M795.647 72.4397H585.902V77.2789H795.647V72.4397Z" fill="#E5E6EB"/>
<path d="M795.647 81.4065H585.902V86.2457H795.647V81.4065Z" fill="#E5E6EB"/>
<path d="M795.647 90.373H585.902V95.2123H795.647V90.373Z" fill="#E5E6EB"/>
<path d="M680.733 99.3396H585.902V104.179H680.733V99.3396Z" fill="#E5E6EB"/>
<path d="M795.645 117.273H636.238V122.112H795.645V117.273Z" fill="#46647C"/>
<path d="M795.648 126.239H647.062V131.079H795.648V126.239Z" fill="#46647C"/>
<path d="M608.702 127.469L613.643 119.073H609.692L606.615 124.564L603.169 118.102C605.065 117.147 606.012 115.638 606.012 113.573C606.012 112.46 605.72 111.45 605.138 110.541C604.555 109.631 603.82 109.008 602.932 108.666C602.045 108.327 600.868 108.157 599.401 108.157H591.453V126.238H595.719V119.073H598.752L602.967 126.238L603.72 127.517L598.117 137.154H602.13L605.761 130.594L609.387 137.154H614.292L608.702 127.469ZM598.316 115.986H595.719V111.377H598.222C599.194 111.377 599.856 111.423 600.209 111.516C600.562 111.608 600.89 111.852 601.189 112.25C601.49 112.647 601.641 113.099 601.641 113.602C601.641 114.132 601.49 114.602 601.189 115.013C600.89 115.424 600.547 115.689 600.163 115.808C599.78 115.926 599.163 115.986 598.316 115.986Z" fill="#46647C"/>
<path d="M719.38 45.6458C719.38 48.1506 718.364 50.4196 716.723 52.0619C715.081 53.7027 712.814 54.7184 710.307 54.7184H567.929C562.918 54.7184 558.855 50.6571 558.855 45.6458C558.855 43.1409 559.871 40.8719 561.513 39.2297C563.156 37.5888 565.423 36.5731 567.929 36.5731H710.307C715.318 36.5733 719.38 40.6346 719.38 45.6458Z" fill="#253746"/>
<path d="M567.928 54.0037C563.32 54.0037 559.57 50.2545 559.57 45.6459C559.57 41.0374 563.32 37.2881 567.928 37.2881H710.307C714.915 37.2881 718.664 41.0374 718.664 45.6459C718.664 50.2544 714.915 54.0037 710.307 54.0037H567.928Z" fill="white"/>
<path d="M719.381 45.6457C719.381 48.1505 718.365 50.4196 716.725 52.0618C715.082 53.7027 712.815 54.7183 710.308 54.7183H693.012V36.5732H710.308C715.32 36.5732 719.381 40.6345 719.381 45.6457Z" fill="#253746"/>
<path d="M704.123 48.0351C702.981 48.0351 701.838 47.6004 700.969 46.7307C699.229 44.9914 699.229 42.1613 700.969 40.422C702.708 38.6827 705.538 38.6827 707.277 40.422C709.017 42.1613 709.017 44.9916 707.277 46.7307C706.408 47.6004 705.266 48.0351 704.123 48.0351ZM704.123 40.5473C703.347 40.5473 702.571 40.8428 701.98 41.4335C700.799 42.6151 700.799 44.5376 701.98 45.7192C703.162 46.9009 705.084 46.9008 706.266 45.7192C707.447 44.5376 707.447 42.6151 706.266 41.4335C705.675 40.8428 704.899 40.5473 704.123 40.5473Z" fill="white"/>
<path d="M712.006 52.1765C711.823 52.1765 711.64 52.1066 711.501 51.967L706.264 46.7307C705.985 46.4513 705.985 45.9984 706.264 45.7192C706.544 45.44 706.997 45.44 707.276 45.7192L712.512 50.9554C712.792 51.2348 712.792 51.6877 712.512 51.967C712.372 52.1066 712.189 52.1765 712.006 52.1765Z" fill="white"/>
<path d="M576.116 43.7589L574.748 48.4264H573.801L572.96 45.1545L572.123 48.4264H571.148L569.711 43.7589H570.829L571.749 46.8967L572.553 43.7589H573.509L574.327 46.8967L575.228 43.7589H576.116Z" fill="#253746"/>
<path d="M582.71 43.7589L581.342 48.4264H580.395L579.554 45.1545L578.717 48.4264H577.742L576.305 43.7589H577.423L578.343 46.8967L579.147 43.7589H580.103L580.921 46.8967L581.822 43.7589H582.71Z" fill="#253746"/>
<path d="M589.303 43.7589L587.936 48.4264H586.988L586.147 45.1545L585.311 48.4264H584.336L582.898 43.7589H584.017L584.936 46.8967L585.74 43.7589H586.697L587.515 46.8967L588.416 43.7589H589.303Z" fill="#253746"/>
<path d="M590.876 47.2156V48.4264H589.734V47.2156H590.876Z" fill="#253746"/>
<path d="M775.296 51.5791C775.004 48.4717 777.069 45.5638 780.196 44.8815C781.824 44.5262 783.442 44.841 784.765 45.6393C785.542 44.9457 786.503 44.4357 787.593 44.1979C790.558 43.551 793.49 45.1204 794.662 47.797C797.077 48.2346 799.111 50.0778 799.667 52.6254C799.961 53.9756 799.795 55.3184 799.275 56.492C801.067 57.2639 802.474 58.8578 802.922 60.9095C803.58 63.928 801.941 66.9111 799.175 68.0394C799.235 68.2285 799.288 68.4215 799.331 68.6194C800.069 71.9984 797.927 75.3355 794.548 76.0727C792.718 76.4721 790.901 76.0254 789.501 74.9963C789.422 75.017 789.342 75.0376 789.26 75.0553C788.226 75.2809 787.196 75.2357 786.243 74.9693C785.488 75.6085 784.571 76.0785 783.537 76.3041C780.158 77.0415 776.821 74.8997 776.083 71.5208C775.875 70.5657 775.897 69.614 776.111 68.7234C775.545 68.0031 775.129 67.1471 774.921 66.192C774.566 64.5682 774.878 62.955 775.672 61.6345C774.4 60.7644 773.445 59.4278 773.091 57.804C772.566 55.4006 773.499 53.0196 775.296 51.5791Z" fill="#253746"/>
<path d="M733.975 104.065C734.458 103.337 735.33 103.034 736.044 103.356C740.326 105.248 745.041 106.221 749.458 105.902C751.667 105.738 753.797 105.249 755.756 104.425C756.737 104.015 757.677 103.526 758.572 102.968C759.468 102.411 760.32 101.785 761.12 101.087C761.921 100.391 762.688 99.6541 763.394 98.8416L763.663 98.5435L763.921 98.2305C764.091 98.0214 764.265 97.8174 764.433 97.6062C764.757 97.1675 765.098 96.753 765.402 96.2952C766.652 94.5088 767.749 92.5803 768.693 90.5422C770.584 86.4678 771.959 82.0576 772.981 77.5192C773.169 76.8087 773.49 76.1641 773.932 75.6126C774.154 75.337 774.406 75.0844 774.683 74.8569C774.957 74.6281 775.25 74.4217 775.568 74.2447C776.834 73.5373 778.432 73.2655 780.029 73.6579C781.626 74.0503 782.896 75.0474 783.637 76.3688C783.822 76.6985 783.977 77.0481 784.09 77.4114C784.2 77.7744 784.274 78.1517 784.309 78.5373C784.379 79.3083 784.296 80.1136 784.007 80.8983C783.078 83.3544 782.054 85.79 780.884 88.1824C779.718 90.5746 778.421 92.9268 776.945 95.1989C775.476 97.4718 773.801 99.6574 771.908 101.683C771.447 102.196 770.935 102.677 770.446 103.168C770.192 103.409 769.93 103.642 769.673 103.878L769.286 104.231L768.882 104.57C767.822 105.485 766.674 106.32 765.486 107.086C763.109 108.623 760.462 109.79 757.728 110.504C754.99 111.221 752.167 111.446 749.437 111.264C746.702 111.081 744.06 110.494 741.559 109.639C739.058 108.772 736.695 107.65 734.475 106.266C733.716 105.801 733.489 104.797 733.975 104.065Z" fill="#EA8096"/>
<path d="M766.234 90.3065L770.757 77.9535C772.125 74.2169 776.043 72.0955 779.779 73.4635C783.516 74.8316 785.657 79.1712 784.288 82.9078L779.766 95.2608L766.234 90.3065Z" fill="#46647C"/>
<path d="M785.986 211.906C786.27 211.538 786.732 211.345 787.189 211.266C787.647 211.188 788.117 211.209 788.581 211.186C789.72 211.13 790.844 210.804 791.837 210.243C792.355 209.952 792.84 209.594 793.4 209.39L796.671 209.476C797.118 209.958 797.406 210.59 797.545 211.239C797.671 211.827 797.685 212.43 797.648 213.031V213.713H785.651V213.031H785.648C785.657 212.62 785.738 212.225 785.986 211.906Z" fill="#253746"/>
<path d="M797.073 205.905L796.669 209.476L793.399 209.39L793.121 205.971L797.073 205.905Z" fill="#F5BDC8"/>
<path d="M783.224 135.558C779.983 143.755 775.797 151.123 771.236 156.53L766.198 206.762L750.043 205.844L757.574 156.672C757.912 154.468 758.418 152.293 759.088 150.166C759.088 150.166 770.673 114.139 770.674 114.136C771.9 109.426 797.342 112.821 797.342 112.821C804.369 122.578 799.951 153.625 799.951 153.625L803.712 205.794L786.516 206.082L786.589 154.339L783.224 135.558Z" fill="#253746"/>
<path d="M759.957 206.407L758.958 209.47L755.688 209.389L756.176 206.193L759.957 206.407Z" fill="#F5BDC8"/>
<path d="M748.277 211.915C748.561 211.546 749.022 211.353 749.479 211.273C749.938 211.194 750.408 211.214 750.872 211.191C752.01 211.133 753.134 210.806 754.126 210.243C754.644 209.952 755.129 209.593 755.689 209.389L758.959 209.47C759.407 209.952 759.696 210.584 759.835 211.233C759.962 211.82 759.977 212.424 759.941 213.025L759.942 213.707L747.945 213.722L747.944 213.04H747.941C747.95 212.629 748.029 212.234 748.277 211.915Z" fill="#253746"/>
<path d="M787.281 69.8484C777.287 69.2526 769.104 77.6862 770.001 87.6572L770.675 114.136C781.573 118.705 790.011 116.489 797.343 112.821L799.89 85.2368C800.979 77.4114 795.167 70.3186 787.281 69.8484Z" fill="#46647C"/>
<path d="M791.296 70.4055L791.312 70.7134C794.923 72.0919 797.745 74.9562 799.114 78.4929C799.212 78.4857 799.313 78.477 799.41 78.4698C798.884 77.0797 798.133 75.7696 797.175 74.6003C795.612 72.6931 793.571 71.2523 791.296 70.4055ZM772.664 115.215C776.061 116.41 779.344 116.994 782.641 116.994C784.744 116.994 786.836 116.753 788.971 116.256L788.94 115.967C784.144 117.084 778.818 117.077 772.699 114.918L772.664 115.215ZM769.709 87.6741L769.767 89.9631L770.058 89.9341L770 87.6566C769.326 80.1589 773.786 73.5297 780.291 70.956L780.239 70.6742C777.885 71.595 775.743 73.0489 774.004 74.9517C770.813 78.4435 769.288 82.9608 769.709 87.6741ZM770.362 101.887H770.073L770.29 110.478H770.581L770.362 101.887ZM794.624 114.08V114.394C795.556 114.003 796.503 113.566 797.472 113.081L797.617 113.008L798.207 106.626L797.928 106.472L797.343 112.821C796.454 113.265 795.548 113.689 794.624 114.08Z" fill="#253746"/>
<path d="M782.309 64.251L782.344 74.2941C784.53 75.7034 786.711 75.6958 788.887 74.2713L788.852 64.2281L782.309 64.251Z" fill="#F5BDC8"/>
<path d="M782.312 65.1611L782.321 67.652C783.307 68.235 784.442 68.5892 785.648 68.6421C785.716 68.644 785.784 68.6461 785.852 68.6457C786.986 68.6418 788.076 68.203 788.864 67.4358L788.856 65.1381L782.312 65.1611Z" fill="#EA8096"/>
<path d="M779.562 54.8053L779.722 60.6538L779.759 61.9516C779.878 65.191 782.464 67.7959 785.703 67.9397C786.024 67.9541 786.356 67.9231 786.68 67.8447C786.804 67.8139 786.928 67.7788 787.051 67.7347C787.076 67.7269 787.102 67.7169 787.127 67.7069C787.59 67.5309 788.022 67.2536 788.38 66.8784C789.154 66.0623 789.66 65.1655 790.126 64.235C790.533 63.4231 790.901 62.6195 791.169 61.7988C791.488 60.823 791.664 59.8201 791.595 58.7418L791.406 53.61L781.484 52.3679L779.562 54.8053Z" fill="#F5BDC8"/>
<path d="M777.538 56.3865C777.569 55.7518 778.154 54.2479 778.154 54.2479C778.154 54.2479 778.603 53.5943 779.373 53.1824C779.579 53.0724 779.872 53.0321 780.191 53.0304C780.515 52.6548 780.903 52.3261 781.372 52.081C783.702 50.8631 786.872 50.7106 788.538 51.4295C789.723 51.9408 792 52.179 791.556 52.651C792.354 52.63 791.837 53.657 792.387 55.741C792.877 57.5989 792.776 60.7209 791.824 61.3211C790.871 61.9212 789.497 61.692 790.359 59.4158C790.359 59.4158 790.372 59.3233 790.384 59.1638C790.005 59.0795 789.65 58.8367 789.409 58.5237C789.05 58.0594 788.898 57.4696 788.807 56.8903C788.715 56.3109 788.674 55.7196 788.499 55.1598C788.263 54.4046 787.788 53.7948 787.187 53.3106C787.102 53.2738 787.017 53.2386 786.931 53.2051C786.707 53.3246 786.489 53.4276 786.37 53.5217C785.696 54.0568 785.296 54.8584 784.792 55.5386C783.799 56.8799 782.358 57.8838 780.756 58.3516C780.41 58.4526 780.021 58.5114 779.652 58.4955C779.656 58.5922 779.662 58.6887 779.673 58.7844C779.673 58.7844 778.361 58.7067 777.966 58.0805C777.571 57.4546 777.507 57.0212 777.538 56.3865Z" fill="#253746"/>
<path d="M793.41 61.5883C794.34 60.6585 794.34 59.151 793.41 58.2212C792.48 57.2914 790.973 57.2914 790.043 58.2212C789.113 59.151 789.113 60.6585 790.043 61.5884C790.973 62.5182 792.48 62.5181 793.41 61.5883Z" fill="#F5BDC8"/>
<path d="M670.79 25.9455C651.627 45.1078 651.627 76.178 670.79 95.3401C685.059 109.609 705.93 113.249 723.571 106.267L739.82 106.242L779.049 145.471C779.913 146.335 781.315 146.335 782.178 145.471L790.315 137.334C791.179 136.47 791.179 135.068 790.315 134.205L751.086 94.9756L751.111 78.7269C758.093 61.0856 754.452 40.2161 740.183 25.9468C721.021 6.78468 689.952 6.78312 670.79 25.9455ZM735.811 90.9668C719.063 107.715 691.911 107.715 675.163 90.9668C658.416 74.219 658.416 47.067 675.163 30.3192C691.911 13.5713 719.063 13.5713 735.811 30.3192C752.559 47.0668 752.559 74.2188 735.811 90.9668Z" fill="#FFBD00"/>
<g opacity="0.3">
<path d="M735.806 90.9705C752.554 74.2233 752.554 47.0707 735.806 30.3235C719.059 13.5763 691.907 13.5763 675.159 30.3235C658.412 47.0707 658.412 74.2233 675.159 90.9705C691.907 107.718 719.059 107.718 735.806 90.9705Z" fill="#E5E6EB"/>
</g>
<path d="M751.173 95.072L739.906 106.338L742.51 108.942L753.776 97.6759L751.173 95.072Z" fill="#DCA000"/>
<path d="M770.523 136.136C769.975 135.455 769.922 134.55 770.426 133.977C771.172 133.121 771.881 132.208 772.555 131.271C772.896 130.807 773.217 130.323 773.542 129.847C773.857 129.36 774.176 128.879 774.477 128.384C775.691 126.411 776.782 124.363 777.762 122.266C779.727 118.073 781.239 113.682 782.389 109.214L782.609 108.378L782.804 107.534L783.192 105.849L783.531 104.152C783.641 103.586 783.762 103.025 783.849 102.453C784.035 101.313 784.243 100.184 784.382 99.0369L784.614 97.3257C784.682 96.7534 784.736 96.1783 784.798 95.6061C785.275 91.0232 785.447 86.4123 785.366 81.8061C785.396 80.3491 786.039 79.0371 787.119 78.0775C788.197 77.1207 789.694 76.5136 791.339 76.5382C792.983 76.5628 794.443 77.23 795.459 78.3104C796.475 79.3876 797.065 80.8771 796.879 82.4658C796.253 87.4543 795.35 92.4119 794.123 97.2883C793.968 97.8976 793.82 98.507 793.658 99.1141L793.142 100.929C792.814 102.139 792.414 103.335 792.037 104.532C791.854 105.131 791.637 105.723 791.43 106.316L790.802 108.091L790.123 109.849L789.782 110.725L789.417 111.594C787.487 116.227 785.186 120.705 782.438 124.891C781.067 126.985 779.587 129.006 777.986 130.928C777.588 131.411 777.171 131.879 776.761 132.35C776.337 132.813 775.921 133.279 775.481 133.727C774.611 134.631 773.708 135.504 772.743 136.335C772.093 136.905 771.073 136.821 770.523 136.136Z" fill="#F5BDC8"/>
<path d="M796.836 97.446L797.935 84.337C798.268 80.3718 795.608 76.798 791.643 76.4655C787.677 76.133 783.908 79.1677 783.576 83.1328L782.477 96.2418L796.836 97.446Z" fill="#46647C"/>
<path d="M782.752 89.4884L782.164 96.5072L784.64 96.7141L784.705 96.429L782.478 96.242L783.042 89.5264L782.752 89.4884ZM783.468 82.0109L783.74 82.1322C784.56 78.6707 788.02 76.1619 791.644 76.4659C792.124 76.5062 792.585 76.5934 793.023 76.7247L793.159 76.4603C792.681 76.3148 792.184 76.2192 791.668 76.1763C789.695 76.0105 787.651 76.6617 786.065 77.9626C784.745 79.0446 783.847 80.455 783.468 82.0109ZM797.557 80.3926L797.32 80.5764C797.823 81.7127 798.049 83.0027 797.937 84.3374L797.558 88.8677L797.843 88.935L798.226 84.3613C798.344 82.9593 798.102 81.5957 797.557 80.3926ZM796.838 97.4461L788.603 96.7554L788.608 97.0475L797.103 97.7602L797.416 94.023L797.127 94.0005L796.838 97.4461Z" fill="#253746"/>
<path d="M641.268 203.509C658.674 203.509 672.785 189.398 672.785 171.991C672.785 154.585 658.674 140.474 641.268 140.474C623.861 140.474 609.75 154.585 609.75 171.991C609.75 189.398 623.861 203.509 641.268 203.509Z" fill="#FFBD00"/>
<path d="M647.051 156.809H635.484V187.173H647.051V156.809Z" fill="white"/>
<path d="M656.449 177.775V166.208H626.086V177.775H656.449Z" fill="white"/>
</svg>
