<svg width="270" height="80" viewBox="0 0 270 80" fill="none" xmlns="http://www.w3.org/2000/svg">
<path d="M260 80H10C4.4 80 0 75.6 0 70V10C0 4.4 4.4 0 10 0H260C265.6 0 270 4.4 270 10V70C270 75.6 265.6 80 260 80Z" fill="black"/>
<path d="M260 1.6C264.6 1.6 268.4 5.4 268.4 10V70C268.4 74.6 264.6 78.4 260 78.4H10C5.4 78.4 1.6 74.6 1.6 70V10C1.6 5.4 5.4 1.6 10 1.6H260ZM260 0H10C4.4 0 0 4.6 0 10V70C0 75.6 4.4 80 10 80H260C265.6 80 270 75.6 270 70V10C270 4.6 265.6 0 260 0Z" fill="#A6A6A6"/>
<path d="M94.7998 20.4008C94.7998 22.0008 94.3998 23.4008 93.3998 24.4008C92.1998 25.6008 90.7998 26.2008 88.9998 26.2008C87.1998 26.2008 85.7998 25.6008 84.5998 24.4008C83.3998 23.2008 82.7998 21.8008 82.7998 20.0008C82.7998 18.2008 83.3998 16.8008 84.5998 15.6008C85.7998 14.4008 87.1998 13.8008 88.9998 13.8008C89.7998 13.8008 90.5998 14.0008 91.3998 14.4008C92.1998 14.8008 92.7998 15.2008 93.1998 15.8008L92.1998 16.8008C91.3998 15.8008 90.3998 15.4008 88.9998 15.4008C87.7998 15.4008 86.5998 15.8008 85.7998 16.8008C84.7998 17.6008 84.3998 18.8008 84.3998 20.2008C84.3998 21.6008 84.7998 22.8008 85.7998 23.6008C86.7998 24.4008 87.7998 25.0008 88.9998 25.0008C90.3998 25.0008 91.3998 24.6008 92.3998 23.6008C92.9998 23.0008 93.3998 22.2008 93.3998 21.2008H88.9998V19.6008H94.7998V20.4008ZM104 15.4008H98.5998V19.2008H103.6V20.6008H98.5998V24.4008H104V26.0008H96.9998V14.0008H104V15.4008ZM110.6 26.0008H109V15.4008H105.6V14.0008H114V15.4008H110.6V26.0008ZM119.8 26.0008V14.0008H121.4V26.0008H119.8ZM128.2 26.0008H126.6V15.4008H123.2V14.0008H131.4V15.4008H128V26.0008H128.2ZM147.2 24.4008C146 25.6008 144.6 26.2008 142.8 26.2008C141 26.2008 139.6 25.6008 138.4 24.4008C137.2 23.2008 136.6 21.8008 136.6 20.0008C136.6 18.2008 137.2 16.8008 138.4 15.6008C139.6 14.4008 141 13.8008 142.8 13.8008C144.6 13.8008 146 14.4008 147.2 15.6008C148.4 16.8008 149 18.2008 149 20.0008C149 21.8008 148.4 23.2008 147.2 24.4008ZM139.6 23.4008C140.4 24.2008 141.6 24.8008 142.8 24.8008C144 24.8008 145.2 24.4008 146 23.4008C146.8 22.6008 147.4 21.4008 147.4 20.0008C147.4 18.6008 147 17.4008 146 16.6008C145.2 15.8008 144 15.2008 142.8 15.2008C141.6 15.2008 140.4 15.6008 139.6 16.6008C138.8 17.4008 138.2 18.6008 138.2 20.0008C138.2 21.4008 138.6 22.6008 139.6 23.4008ZM151.2 26.0008V14.0008H153L158.8 23.4008V14.0008H160.4V26.0008H158.8L152.6 16.2008V26.0008H151.2Z" fill="white" stroke="white" stroke-width="1.18519" stroke-miterlimit="10"/>
<path d="M136.2 43.5992C131.4 43.5992 127.6 47.1992 127.6 52.1992C127.6 56.9992 131.4 60.7992 136.2 60.7992C141 60.7992 144.8 57.1992 144.8 52.1992C144.8 46.9992 141 43.5992 136.2 43.5992ZM136.2 57.1992C133.6 57.1992 131.4 54.9992 131.4 51.9992C131.4 48.9992 133.6 46.7992 136.2 46.7992C138.8 46.7992 141 48.7992 141 51.9992C141 54.9992 138.8 57.1992 136.2 57.1992ZM117.6 43.5992C112.8 43.5992 109 47.1992 109 52.1992C109 56.9992 112.8 60.7992 117.6 60.7992C122.4 60.7992 126.2 57.1992 126.2 52.1992C126.2 46.9992 122.4 43.5992 117.6 43.5992ZM117.6 57.1992C115 57.1992 112.8 54.9992 112.8 51.9992C112.8 48.9992 115 46.7992 117.6 46.7992C120.2 46.7992 122.4 48.7992 122.4 51.9992C122.4 54.9992 120.2 57.1992 117.6 57.1992ZM95.4002 46.1992V49.7992H104C103.8 51.7992 103 53.3992 102 54.3992C100.8 55.5992 98.8002 56.9992 95.4002 56.9992C90.0002 56.9992 86.0002 52.7992 86.0002 47.3992C86.0002 41.9992 90.2002 37.7992 95.4002 37.7992C98.2002 37.7992 100.4 38.9992 102 40.3992L104.6 37.7992C102.4 35.7992 99.6002 34.1992 95.6002 34.1992C88.4002 34.1992 82.2002 40.1992 82.2002 47.3992C82.2002 54.5992 88.4002 60.5992 95.6002 60.5992C99.6002 60.5992 102.4 59.3992 104.8 56.7992C107.2 54.3992 108 50.9992 108 48.3992C108 47.5992 108 46.7992 107.8 46.1992H95.4002ZM186.2 48.9992C185.4 46.9992 183.4 43.5992 179 43.5992C174.6 43.5992 171 46.9992 171 52.1992C171 56.9992 174.6 60.7992 179.4 60.7992C183.2 60.7992 185.6 58.3992 186.4 56.9992L183.6 54.9992C182.6 56.3992 181.4 57.3992 179.4 57.3992C177.4 57.3992 176.2 56.5992 175.2 54.7992L186.6 49.9992L186.2 48.9992ZM174.6 51.7992C174.6 48.5992 177.2 46.7992 179 46.7992C180.4 46.7992 181.8 47.5992 182.2 48.5992L174.6 51.7992ZM165.2 59.9992H169V34.9992H165.2V59.9992ZM159.2 45.3992C158.2 44.3992 156.6 43.3992 154.6 43.3992C150.4 43.3992 146.4 47.1992 146.4 51.9992C146.4 56.7992 150.2 60.3992 154.6 60.3992C156.6 60.3992 158.2 59.3992 159 58.3992H159.2V59.5992C159.2 62.7992 157.4 64.5992 154.6 64.5992C152.4 64.5992 150.8 62.9992 150.4 61.5992L147.2 62.9992C148.2 65.1992 150.6 67.9992 154.8 67.9992C159.2 67.9992 162.8 65.3992 162.8 59.1992V43.9992H159.2V45.3992ZM154.8 57.1992C152.2 57.1992 150 54.9992 150 51.9992C150 48.9992 152.2 46.7992 154.8 46.7992C157.4 46.7992 159.4 48.9992 159.4 51.9992C159.4 54.9992 157.4 57.1992 154.8 57.1992ZM203.6 34.9992H194.6V59.9992H198.4V50.5992H203.6C207.8 50.5992 211.8 47.5992 211.8 42.7992C211.8 37.9992 207.8 34.9992 203.6 34.9992ZM203.8 46.9992H198.4V38.3992H203.8C206.6 38.3992 208.2 40.7992 208.2 42.5992C208 44.7992 206.4 46.9992 203.8 46.9992ZM226.8 43.3992C224 43.3992 221.2 44.5992 220.2 47.1992L223.6 48.5992C224.4 47.1992 225.6 46.7992 227 46.7992C229 46.7992 230.8 47.9992 231 49.9992V50.1992C230.4 49.7992 228.8 49.1992 227.2 49.1992C223.6 49.1992 220 51.1992 220 54.7992C220 58.1992 223 60.3992 226.2 60.3992C228.8 60.3992 230 59.1992 231 57.9992H231.2V59.9992H234.8V50.3992C234.4 45.9992 231 43.3992 226.8 43.3992ZM226.4 57.1992C225.2 57.1992 223.4 56.5992 223.4 54.9992C223.4 52.9992 225.6 52.3992 227.4 52.3992C229 52.3992 229.8 52.7992 230.8 53.1992C230.4 55.5992 228.4 57.1992 226.4 57.1992ZM247.4 43.9992L243.2 54.7992H243L238.6 43.9992H234.6L241.2 59.1992L237.4 67.5992H241.2L251.4 43.9992H247.4ZM213.8 59.9992H217.6V34.9992H213.8V59.9992Z" fill="white"/>
<path d="M20.8 15C20.2 15.6 20 16.6 20 17.8V62C20 63.2 20.4 64.2 21 64.8L21.2 65L46 40.2V39.8L20.8 15Z" fill="url(#paint0_linear_712_1023)"/>
<path d="M54.0003 48.5996L45.8003 40.3996V39.7996L54.0003 31.5996L54.2003 31.7996L64.0003 37.3996C66.8003 38.9996 66.8003 41.5996 64.0003 43.1996L54.0003 48.5996Z" fill="url(#paint1_linear_712_1023)"/>
<path d="M54.2003 48.4L45.8003 40L20.8003 65C21.8003 66 23.2003 66 25.0003 65.2L54.2003 48.4Z" fill="url(#paint2_linear_712_1023)"/>
<path d="M54.2003 31.5992L25.0003 14.9992C23.2003 13.9992 21.8003 14.1992 20.8003 15.1992L45.8003 39.9992L54.2003 31.5992Z" fill="url(#paint3_linear_712_1023)"/>
<path opacity="0.2" d="M54.0003 48.2012L25.0003 64.6012C23.4003 65.6012 22.0003 65.4012 21.0003 64.6012L20.8003 64.8012L21.0003 65.0012C22.0003 65.8012 23.4003 66.0012 25.0003 65.0012L54.0003 48.2012Z" fill="black"/>
<path opacity="0.12" d="M20.8 64.6C20.2 64 20 63 20 61.8V62C20 63.2 20.4 64.2 21 64.8V64.6H20.8ZM64 42.6L54 48.2L54.2 48.4L64 42.8C65.4 42 66 41 66 40C66 41 65.2 41.8 64 42.6Z" fill="black"/>
<path opacity="0.25" d="M25 15.2005L64 37.4005C65.2 38.2005 66 39.0005 66 40.0005C66 39.0005 65.4 38.0005 64 37.2005L25 15.0005C22.2 13.4005 20 14.6005 20 17.8005V18.0005C20 15.0005 22.2 13.6005 25 15.2005Z" fill="white"/>
<defs>
<linearGradient id="paint0_linear_712_1023" x1="43.6" y1="17.42" x2="10.034" y2="50.984" gradientUnits="userSpaceOnUse">
<stop stop-color="#00A0FF"/>
<stop offset="0.007" stop-color="#00A1FF"/>
<stop offset="0.26" stop-color="#00BEFF"/>
<stop offset="0.512" stop-color="#00D2FF"/>
<stop offset="0.76" stop-color="#00DFFF"/>
<stop offset="1" stop-color="#00E3FF"/>
</linearGradient>
<linearGradient id="paint1_linear_712_1023" x1="67.6683" y1="40.0016" x2="19.2743" y2="40.0016" gradientUnits="userSpaceOnUse">
<stop stop-color="#FFE000"/>
<stop offset="0.409" stop-color="#FFBD00"/>
<stop offset="0.775" stop-color="#FFA500"/>
<stop offset="1" stop-color="#FF9C00"/>
</linearGradient>
<linearGradient id="paint2_linear_712_1023" x1="49.6543" y1="44.592" x2="4.1383" y2="90.108" gradientUnits="userSpaceOnUse">
<stop stop-color="#FF3A44"/>
<stop offset="1" stop-color="#C31162"/>
</linearGradient>
<linearGradient id="paint3_linear_712_1023" x1="14.5943" y1="0.351248" x2="34.9203" y2="20.6772" gradientUnits="userSpaceOnUse">
<stop stop-color="#32A071"/>
<stop offset="0.069" stop-color="#2DA771"/>
<stop offset="0.476" stop-color="#15CF74"/>
<stop offset="0.801" stop-color="#06E775"/>
<stop offset="1" stop-color="#00F076"/>
</linearGradient>
</defs>
</svg>
