<svg width="270" height="80" viewBox="0 0 270 80" fill="none" xmlns="http://www.w3.org/2000/svg">
<path d="M268.209 70.5542C268.209 71.5611 268.01 72.5581 267.624 73.4882C267.239 74.4184 266.673 75.2634 265.961 75.975C265.248 76.6866 264.403 77.2508 263.472 77.6354C262.541 78.02 261.544 78.2174 260.536 78.2163H9.46291C7.42795 78.2184 5.47546 77.4124 4.03483 75.9756C2.59421 74.5387 1.78341 72.5886 1.78076 70.5542V9.45141C1.78341 7.41606 2.59389 5.46496 4.03422 4.0265C5.47456 2.58805 7.42702 1.77983 9.46291 1.7793H260.534C261.542 1.7793 262.54 1.97776 263.471 2.36334C264.402 2.74892 265.248 3.31408 265.96 4.02653C266.673 4.73897 267.238 5.58476 267.623 6.51557C268.009 7.44638 268.207 8.44399 268.207 9.45141L268.209 70.5542Z" fill="white"/>
<path d="M260.537 80H9.46311C6.95627 79.9995 4.55202 79.0048 2.77792 77.2341C1.00381 75.4635 0.00476983 73.0616 0 70.5554L0 9.4546C0.00370851 6.94718 1.00209 4.54361 2.77614 2.77116C4.55019 0.998712 6.95503 0.00211635 9.46311 0L260.535 0C263.042 0.00317237 265.447 1.00011 267.22 2.77233C268.994 4.54455 269.993 6.94751 269.998 9.4546V70.5554C270.002 75.7648 265.749 80 260.537 80Z" fill="#A6A6A6"/>
<path d="M268.209 70.5542C268.209 71.5611 268.01 72.5581 267.624 73.4882C267.239 74.4184 266.673 75.2634 265.961 75.975C265.248 76.6866 264.403 77.2508 263.472 77.6354C262.541 78.02 261.544 78.2174 260.536 78.2163H9.46291C7.42795 78.2184 5.47546 77.4124 4.03483 75.9756C2.59421 74.5387 1.78341 72.5886 1.78076 70.5542V9.45141C1.78341 7.41606 2.59389 5.46496 4.03422 4.0265C5.47456 2.58805 7.42702 1.77983 9.46291 1.7793H260.534C261.542 1.7793 262.54 1.97776 263.471 2.36334C264.402 2.74892 265.248 3.31408 265.96 4.02653C266.673 4.73897 267.238 5.58476 267.623 6.51557C268.009 7.44638 268.207 8.44399 268.207 9.45141L268.209 70.5542Z" fill="black"/>
<path d="M60.2886 39.5809C60.2305 33.1331 65.5694 29.9963 65.8136 29.8502C62.7899 25.443 58.1034 24.8409 56.4565 24.7929C52.5204 24.3787 48.7023 27.1475 46.6972 27.1475C44.6521 27.1475 41.5645 24.8329 38.2367 24.9009C33.9544 24.9669 29.9482 27.4456 27.751 31.2946C23.2166 39.1428 26.5984 50.676 30.9427 57.0197C33.1159 60.1286 35.6553 63.5955 38.9791 63.4735C42.2308 63.3415 43.4455 61.4029 47.3696 61.4029C51.2577 61.4029 52.3983 63.4735 55.7881 63.3955C59.278 63.3415 61.4752 60.2746 63.5723 57.1398C66.0837 53.5808 67.0922 50.0718 67.1323 49.8918C67.0522 49.8637 60.3566 47.307 60.2886 39.5809ZM53.8851 20.6197C55.6341 18.4331 56.8307 15.4583 56.4985 12.4395C53.9672 12.5515 50.8015 14.1899 48.9785 16.3285C47.3656 18.213 45.9248 21.3019 46.297 24.2067C49.1406 24.4187 52.0601 22.7723 53.8851 20.6197Z" fill="white"/>
<path d="M260.537 0H126.054L178.729 80H260.537C263.044 79.9979 265.448 79.0018 267.222 77.2303C268.996 75.4587 269.995 73.0561 270 70.5494V9.4546C269.996 6.94735 268.997 4.54408 267.223 2.77175C265.449 0.99941 263.045 0.00264456 260.537 0Z" fill="url(#paint0_linear_712_1013)"/>
<path d="M107.388 63.0252H102.843L100.354 55.2051H91.7014L89.3301 63.0252H84.9058L93.4804 36.4019H98.7752L107.388 63.0252ZM99.6037 51.9242L97.3525 44.9723C97.1144 44.2621 96.6661 42.5896 96.0098 39.9569H95.9297C95.6656 41.0892 95.2433 42.7617 94.665 44.9723L92.4518 51.9242H99.6037ZM129.396 53.1905C129.396 56.4554 128.509 59.0361 126.734 60.9307C125.145 62.6171 123.17 63.4594 120.815 63.4594C118.272 63.4594 116.443 62.5531 115.332 60.7366V70.8094H111.066V50.1377C111.066 48.0871 111.012 45.9846 110.908 43.828H114.66L114.898 46.8708H114.978C116.401 44.5782 118.56 43.4319 121.457 43.4319C123.723 43.4319 125.614 44.3261 127.127 46.1166C128.637 47.9111 129.396 50.2677 129.396 53.1905ZM125.049 53.3466C125.049 51.4781 124.629 49.9376 123.785 48.7233C122.862 47.461 121.624 46.8288 120.071 46.8288C119.018 46.8288 118.062 47.1809 117.207 47.8751C116.351 48.5753 115.79 49.4895 115.528 50.6218C115.411 51.0453 115.345 51.4811 115.33 51.9202V55.1231C115.33 56.5175 115.758 57.6958 116.615 58.66C117.471 59.6203 118.584 60.1024 119.953 60.1024C121.56 60.1024 122.81 59.4803 123.705 58.2459C124.601 57.0076 125.049 55.3751 125.049 53.3466ZM151.482 53.1905C151.482 56.4554 150.595 59.0361 148.82 60.9307C147.229 62.6171 145.256 63.4594 142.899 63.4594C140.356 63.4594 138.527 62.5531 137.416 60.7366V70.8094H133.15V50.1377C133.15 48.0871 133.096 45.9846 132.992 43.828H136.744L136.982 46.8708H137.062C138.483 44.5782 140.642 43.4319 143.541 43.4319C145.805 43.4319 147.696 44.3261 149.212 46.1166C150.721 47.9111 151.482 50.2677 151.482 53.1905ZM147.133 53.3466C147.133 51.4781 146.711 49.9376 145.867 48.7233C144.944 47.461 143.71 46.8288 142.157 46.8288C141.104 46.8288 140.148 47.1809 139.289 47.8751C138.433 48.5753 137.874 49.4895 137.612 50.6218C137.482 51.15 137.412 51.5801 137.412 51.9202V55.1231C137.412 56.5175 137.842 57.6958 138.695 58.66C139.551 59.6183 140.664 60.1024 142.037 60.1024C143.645 60.1024 144.896 59.4803 145.789 58.2459C146.685 57.0076 147.133 55.3751 147.133 53.3466ZM176.175 55.5572C176.175 57.8238 175.383 59.6663 173.808 61.0887C172.075 62.6411 169.656 63.4194 166.554 63.4194C163.688 63.4194 161.391 62.8672 159.658 61.7609L160.645 58.2059C162.516 59.3142 164.571 59.8664 166.808 59.8664C168.417 59.8664 169.668 59.5023 170.56 58.7801C171.454 58.0559 171.907 57.0876 171.907 55.8793C171.907 54.797 171.533 53.8907 170.798 53.1525C170.06 52.4163 168.839 51.7301 167.124 51.1C162.462 49.3615 160.128 46.8188 160.128 43.4739C160.128 41.2893 160.953 39.5008 162.598 38.1024C164.243 36.706 166.424 36.0078 169.137 36.0078C171.561 36.0078 173.58 36.4299 175.182 37.2722L174.112 40.7491C172.603 39.9329 170.9 39.5248 168.995 39.5248C167.49 39.5248 166.31 39.8949 165.465 40.6311C164.755 41.2893 164.395 42.0915 164.395 43.0437C164.395 44.094 164.805 44.9663 165.621 45.6505C166.33 46.2806 167.622 46.9668 169.491 47.703C171.785 48.6273 173.47 49.7036 174.548 50.9399C175.635 52.1763 176.175 53.7187 176.175 55.5572ZM190.317 47.0288H185.614V56.3494C185.614 58.7201 186.443 59.9024 188.103 59.9024C188.866 59.9024 189.498 59.8384 189.998 59.7043L190.117 62.9432C189.276 63.2573 188.17 63.4153 186.799 63.4153C185.114 63.4153 183.797 62.9012 182.847 61.8729C181.9 60.8446 181.424 59.1222 181.424 56.6975V47.0208H178.622V43.82H181.424V40.305L185.614 39.0406V43.82H190.317V47.0288ZM211.492 53.2686C211.492 56.2194 210.648 58.642 208.963 60.5366C207.2 62.4871 204.855 63.4594 201.931 63.4594C199.109 63.4594 196.866 62.5251 195.193 60.6586C193.52 58.7881 192.684 56.4314 192.684 53.5886C192.684 50.6138 193.548 48.1772 195.271 46.2826C196.998 44.3861 199.324 43.4379 202.247 43.4379C205.065 43.4379 207.328 44.3741 209.041 46.2426C210.678 48.0551 211.492 50.3958 211.492 53.2686ZM207.07 53.3666C207.07 51.6081 206.689 50.0997 205.927 48.8373C205.033 47.3129 203.752 46.5507 202.093 46.5507C200.384 46.5507 199.073 47.3129 198.181 48.8373C197.417 50.0997 197.036 51.6341 197.036 53.4466C197.036 55.2071 197.417 56.7195 198.181 57.9779C199.103 59.5023 200.39 60.2645 202.057 60.2645C203.688 60.2645 204.967 59.4863 205.891 57.9398C206.675 56.6475 207.07 55.1291 207.07 53.3666ZM225.366 47.579C224.922 47.4989 224.472 47.4594 224.021 47.461C222.52 47.461 221.359 48.0251 220.543 49.1614C219.835 50.1617 219.478 51.4261 219.478 52.9525V63.0252H215.212V49.8736C215.216 47.8584 215.175 45.8433 215.088 43.83H218.804L218.96 47.503H219.078C219.53 46.2406 220.239 45.2223 221.211 44.4601C222.102 43.7941 223.183 43.4334 224.295 43.4319C224.689 43.4319 225.045 43.4599 225.362 43.5099L225.366 47.579ZM244.446 52.5184C244.457 53.1667 244.404 53.8146 244.29 54.4529H231.491C231.539 56.3494 232.159 57.8018 233.348 58.8021C234.426 59.6943 235.821 60.1424 237.534 60.1424C239.429 60.1424 241.158 59.8424 242.713 59.2362L243.381 62.195C241.564 62.9872 239.419 63.3813 236.944 63.3813C233.966 63.3813 231.629 62.5051 229.928 60.7566C228.231 59.0061 227.381 56.6535 227.381 53.7067C227.381 50.8139 228.171 48.4032 229.754 46.4807C231.411 44.4281 233.65 43.4018 236.468 43.4018C239.235 43.4018 241.33 44.4281 242.753 46.4807C243.88 48.1071 244.446 50.1237 244.446 52.5184ZM240.378 51.412C240.408 50.1457 240.128 49.0554 239.549 48.1331C238.811 46.9448 237.674 46.3527 236.151 46.3527C234.757 46.3527 233.62 46.9308 232.756 48.0911C232.045 49.0134 231.623 50.1217 231.493 51.408L240.378 51.412Z" fill="white"/>
<path d="M90.4705 26.9872C89.2838 26.9872 88.2573 26.9292 87.4028 26.8312V13.9597C88.5979 13.7751 89.8056 13.6841 91.0148 13.6876C95.9074 13.6876 98.1606 16.0942 98.1606 20.0173C98.1606 24.5426 95.4992 26.9872 90.4705 26.9872ZM91.1869 15.338C90.5265 15.338 89.9642 15.378 89.498 15.4741V25.2588C89.7501 25.2988 90.2344 25.3168 90.9147 25.3168C94.1205 25.3168 95.9454 23.4923 95.9454 20.0753C95.9454 17.0285 94.2945 15.338 91.1869 15.338ZM105.182 27.0853C102.425 27.0853 100.638 25.0267 100.638 22.2319C100.638 19.3191 102.463 17.2426 105.339 17.2426C108.056 17.2426 109.883 19.2031 109.883 22.0779C109.883 25.0267 108 27.0853 105.182 27.0853ZM105.262 18.775C103.748 18.775 102.777 20.1914 102.777 22.1719C102.777 24.1144 103.768 25.5308 105.242 25.5308C106.717 25.5308 107.708 24.0164 107.708 22.1319C107.708 20.2114 106.737 18.775 105.262 18.775ZM125.607 17.4366L122.656 26.8712H120.733L119.51 22.7741C119.206 21.7719 118.953 20.755 118.752 19.7272H118.712C118.558 20.7555 118.265 21.7858 117.955 22.7741L116.655 26.8712H114.712L111.934 17.4366H114.089L115.158 21.9218C115.41 22.9901 115.622 23.9984 115.798 24.9507H115.838C115.992 24.1565 116.244 23.1642 116.615 21.9419L117.955 17.4386H119.664L120.947 21.8458C121.257 22.9141 121.509 23.9624 121.705 24.9527H121.761C121.897 23.9824 122.112 22.9521 122.402 21.8458L123.548 17.4386L125.607 17.4366ZM136.473 26.8712H134.376V21.4537C134.376 19.7853 133.736 18.949 132.473 18.949C131.23 18.949 130.376 20.0173 130.376 21.2597V26.8712H128.279V20.1334C128.279 19.2991 128.259 18.4049 128.201 17.4346H130.046L130.144 18.891H130.202C130.766 17.8827 131.911 17.2426 133.194 17.2426C135.175 17.2426 136.475 18.757 136.475 21.2217L136.473 26.8712ZM142.256 26.8712H140.157V13.1074H142.256V26.8712ZM149.903 27.0853C147.147 27.0853 145.358 25.0267 145.358 22.2319C145.358 19.3191 147.183 17.2426 150.057 17.2426C152.776 17.2426 154.601 19.2031 154.601 22.0779C154.603 25.0267 152.718 27.0853 149.903 27.0853ZM149.981 18.775C148.466 18.775 147.495 20.1914 147.495 22.1719C147.495 24.1144 148.488 25.5308 149.959 25.5308C151.435 25.5308 152.424 24.0164 152.424 22.1319C152.426 20.2114 151.457 18.775 149.981 18.775ZM162.87 26.8712L162.717 25.7849H162.661C162.021 26.6592 161.087 27.0853 159.902 27.0853C158.211 27.0853 157.01 25.9009 157.01 24.3085C157.01 21.9799 159.029 20.7755 162.525 20.7755V20.6015C162.525 19.3591 161.867 18.737 160.566 18.737C159.636 18.737 158.819 18.971 158.101 19.4372L157.675 18.0588C158.547 17.5146 159.636 17.2426 160.915 17.2426C163.38 17.2426 164.625 18.5429 164.625 21.1456V24.6206C164.625 25.5728 164.667 26.3111 164.761 26.8732L162.87 26.8712ZM162.581 22.1719C160.252 22.1719 159.084 22.7361 159.084 24.0744C159.084 25.0647 159.686 25.5488 160.522 25.5488C161.589 25.5488 162.581 24.7346 162.581 23.6283V22.1719ZM174.808 26.8712L174.71 25.3568H174.652C174.05 26.5011 173.037 27.0853 171.622 27.0853C169.347 27.0853 167.662 25.0847 167.662 22.2699C167.662 19.3191 169.409 17.2406 171.794 17.2406C173.057 17.2406 173.952 17.6667 174.456 18.5229H174.498V13.1074H176.597V24.3285C176.597 25.2408 176.619 26.095 176.675 26.8712H174.808ZM174.498 21.3197C174.498 19.9993 173.623 18.873 172.289 18.873C170.734 18.873 169.783 20.2514 169.783 22.1919C169.783 24.0944 170.77 25.3968 172.247 25.3968C173.565 25.3968 174.498 24.2505 174.498 22.8921V21.3197ZM189.906 27.0853C187.151 27.0853 185.364 25.0267 185.364 22.2319C185.364 19.3191 187.189 17.2426 190.062 17.2426C192.782 17.2426 194.607 19.2031 194.607 22.0779C194.609 25.0267 192.726 27.0853 189.906 27.0853ZM189.984 18.775C188.471 18.775 187.501 20.1914 187.501 22.1719C187.501 24.1144 188.491 25.5308 189.964 25.5308C191.441 25.5308 192.43 24.0164 192.43 22.1319C192.434 20.2114 191.463 18.775 189.984 18.775ZM205.885 26.8712H203.786V21.4537C203.786 19.7853 203.145 18.949 201.883 18.949C200.64 18.949 199.787 20.0173 199.787 21.2597V26.8712H197.688V20.1334C197.688 19.2991 197.668 18.4049 197.61 17.4346H199.455L199.553 18.891H199.611C200.174 17.8827 201.32 17.2406 202.601 17.2406C204.582 17.2406 205.885 18.755 205.885 21.2197V26.8712ZM219.994 19.009H217.687V23.5903C217.687 24.7566 218.091 25.3388 218.908 25.3388C219.278 25.3388 219.588 25.2988 219.838 25.2408L219.896 26.8332C219.49 26.9892 218.946 27.0673 218.269 27.0673C216.617 27.0673 215.628 26.155 215.628 23.7664V19.009H214.251V17.4366H215.628V15.7081L217.687 15.086V17.4346H219.994V19.009ZM231.096 26.8712H229.001V21.4937C229.001 19.8053 228.363 18.951 227.098 18.951C226.012 18.951 224.999 19.6892 224.999 21.1836V26.8712H222.904V13.1074H224.999V18.775H225.041C225.701 17.7467 226.658 17.2406 227.879 17.2406C229.876 17.2406 231.096 18.793 231.096 21.2597V26.8712ZM242.471 22.658H236.177C236.217 24.4445 237.4 25.4528 239.151 25.4528C240.081 25.4528 240.938 25.2968 241.694 25.0067L242.02 26.4631C241.128 26.8512 240.077 27.0453 238.855 27.0453C235.903 27.0453 234.156 25.1807 234.156 22.2899C234.156 19.3972 235.945 17.2226 238.618 17.2226C241.03 17.2226 242.543 19.009 242.543 21.7078C242.556 22.0263 242.532 22.3452 242.471 22.658ZM240.547 21.1636C240.547 19.7072 239.813 18.679 238.472 18.679C237.268 18.679 236.315 19.7272 236.179 21.1636H240.547Z" fill="white"/>
<defs>
<linearGradient id="paint0_linear_712_1013" x1="198.025" y1="80.2124" x2="198.025" y2="-208.306" gradientUnits="userSpaceOnUse">
<stop stop-color="#1A1A1A" stop-opacity="0.1"/>
<stop offset="0.123" stop-color="#212121" stop-opacity="0.151"/>
<stop offset="0.308" stop-color="#353535" stop-opacity="0.227"/>
<stop offset="0.532" stop-color="#575757" stop-opacity="0.318"/>
<stop offset="0.783" stop-color="#858585" stop-opacity="0.421"/>
<stop offset="1" stop-color="#B3B3B3" stop-opacity="0.51"/>
</linearGradient>
</defs>
</svg>
