<svg width="90" height="74" viewBox="0 0 90 74" fill="none" xmlns="http://www.w3.org/2000/svg">
<path d="M58.5154 1.31462L55.8765 2.55314V8.28218C55.8765 11.4304 55.9041 16.253 55.939 18.993C56.0083 24.4314 56.0083 31.9179 55.9458 33.454C55.8692 35.3014 55.765 36.7751 55.6608 37.4324C55.1748 40.4976 54.0147 43.0646 52.1259 45.2303C51.0978 46.4135 50.049 47.2784 48.6391 48.1087C45.6108 49.8938 43.0618 50.5649 38.2694 50.8209C37.8666 50.8486 37.179 50.8901 36.7414 50.9247C36.3038 50.9662 35.7134 50.9939 35.4426 50.9939C35.1647 50.9939 34.9355 51.0216 34.9355 51.0492C34.9355 51.077 35.1647 51.1461 35.4426 51.1946C35.7134 51.243 36.5052 51.4229 37.1928 51.5959C37.8804 51.762 38.6305 51.9417 38.8597 51.9972C39.0889 52.0527 39.5404 52.1565 39.8669 52.2323C40.4156 52.3641 41.1309 52.4886 42.3325 52.6547C43.2146 52.7792 45.1315 52.8135 46.0484 52.7304C50.4449 52.3085 54.4247 50.3366 57.0017 47.3129C58.5087 45.5416 59.7448 43.0784 60.4256 40.5184C60.5366 40.0963 60.6408 39.6397 60.6616 39.5082C61.0231 37.1972 61.2732 32.2846 61.3633 25.5315C61.4951 16.4744 61.37 0.297508 61.1757 0.103773C61.1617 0.0899348 59.9604 0.636546 58.5154 1.31462Z" fill="white"/>
<path d="M50.0426 7.6041C48.9383 8.05386 47.952 8.44825 47.8617 8.47591L47.695 8.52438L47.7367 10.0258C48.0145 19.2975 47.959 28.8527 47.6117 33.0388C47.3547 36.0763 47.0977 37.3564 46.4865 38.5741C45.1529 41.231 42.7081 42.9055 39.4507 43.3898C38.6311 43.5143 38.2908 43.5282 36.7766 43.5005C34.8875 43.459 34.0887 43.3621 32.7969 43.0369C31.3522 42.6771 30.5743 42.3796 28.1642 41.2864C26.4209 40.4976 25.1568 39.9787 25.0596 40.0063C24.9762 40.0341 25.6708 41.1272 26.2334 41.8469C27.4627 43.4175 29.1575 44.8636 31.0119 45.9222C32.8524 46.9739 35.0403 47.7143 37.2629 48.0325C38.1935 48.164 40.7634 48.1432 41.6385 47.991C44.4584 47.5136 46.7782 46.372 48.6326 44.5453C50.6955 42.5042 51.6818 40.47 52.154 37.2249C52.4249 35.419 52.4525 34.478 52.4249 28.5206C52.4181 25.3724 52.439 21.2417 52.4733 19.339C52.5567 15.0837 52.5431 10.4963 52.4457 9.06407C52.3416 7.5972 52.2306 6.78076 52.1332 6.78076C52.0915 6.78076 51.1539 7.15439 50.0426 7.6041Z" fill="#EE4223"/>
<path d="M41.0146 16.1631C36.1666 16.5298 33.1939 17.7268 30.5268 20.3837C29.3322 21.5808 28.3737 22.9369 27.5958 24.5352C26.3456 27.1299 25.8317 30.0428 26.1511 32.7136C26.3317 34.2081 26.6443 35.2529 27.2416 36.3946C27.6653 37.218 28.339 38.0759 28.9432 38.5672C29.5267 39.0515 30.6657 39.6327 31.6728 39.9579C34.7983 40.9612 37.9724 40.8782 39.9172 39.7435L40.2158 39.5704L39.9172 39.2107C39.7574 39.01 39.3754 38.5533 39.0768 38.1936C37.9446 36.8443 37.4654 35.9171 37.257 34.7063C37.1528 34.1044 37.1528 33.9937 37.257 33.3432C37.3959 32.4922 37.6807 31.6273 38.0002 31.0876C38.3753 30.4649 39.1879 29.6554 39.9311 29.171C41.0007 28.4722 42.4592 27.9602 44.015 27.7387L44.5846 27.6627L44.5429 21.9405C44.522 18.7993 44.4943 16.2184 44.4873 16.2046C44.4526 16.17 41.4035 16.1354 41.0146 16.1631Z" fill="white"/>
<path d="M0.0347276 62.6042C0.013891 62.625 0 65.1299 0 68.1672V73.6886H2.28508C4.86881 73.6886 5.25774 73.6404 6.08427 73.2387C7.89705 72.3534 8.75135 69.6477 8.23044 66.4376C7.89705 64.4034 6.77188 63.0126 5.17441 62.6805C4.76463 62.5975 0.111128 62.5279 0.0347276 62.6042ZM3.93811 64.4864C4.75768 64.5554 5.01466 64.6524 5.4175 65.0121C5.75089 65.3167 5.98009 65.7318 6.15371 66.3613C6.3204 66.97 6.32738 69.205 6.16762 69.9248C5.95232 70.8516 5.61196 71.3571 5.00772 71.6337C4.72295 71.765 4.52847 71.7857 3.35468 71.8065L2.0142 71.8345V68.1257V64.4168H2.62541C2.95879 64.4241 3.54916 64.4516 3.93811 64.4864Z" fill="white"/>
<path d="M22.6159 62.6042C22.5951 62.625 22.5742 65.1299 22.5742 68.1672V73.6954L25.0954 73.6679C27.8042 73.6404 27.9292 73.6264 28.7279 73.218C29.1447 73.0036 29.7281 72.4432 29.999 72.0005C30.6449 70.9279 30.9088 69.821 30.9088 68.1947C30.9088 66.0639 30.499 64.7422 29.4989 63.6836C29.0405 63.1922 28.3737 62.8118 27.7139 62.6732C27.318 62.5902 22.6923 62.5212 22.6159 62.6042ZM27.2069 64.5902C27.9084 64.7977 28.3668 65.2752 28.6237 66.0639C28.7557 66.4583 28.7835 66.7282 28.8113 67.8833C28.8529 69.8693 28.6446 70.7759 28.0195 71.329C27.5472 71.7442 27.1999 71.8205 25.797 71.8205H24.5884V68.1049V64.3961L25.7275 64.4449C26.3873 64.4724 27.0055 64.5279 27.2069 64.5902Z" fill="white"/>
<path d="M36.6026 62.6042C36.554 62.625 36.5332 64.5139 36.5332 68.1604V73.6886H37.5403H38.5474L38.5613 71.5989L38.5821 69.5024L40.1796 69.4609C41.9229 69.4126 42.1868 69.3644 42.7842 68.9835C43.7218 68.3815 44.1871 67.3992 44.1871 66.0224C44.1802 64.832 43.9579 64.175 43.3328 63.4828C42.9231 63.0401 42.4299 62.7843 41.8049 62.6805C41.409 62.6182 36.7763 62.5487 36.6026 62.6042ZM40.5547 64.4864C41.3117 64.5554 41.6659 64.7422 41.9299 65.2129C42.4508 66.1397 41.9576 67.3229 40.9575 67.5304C40.5547 67.6135 39.1239 67.669 38.7766 67.6207L38.5474 67.586V66.0499C38.5474 65.1989 38.5683 64.4864 38.596 64.4656C38.6585 64.3961 39.7837 64.4101 40.5547 64.4864Z" fill="white"/>
<path d="M45.9093 62.6042C45.8607 62.625 45.8398 64.4376 45.8398 68.1604V73.6886H46.8122H47.7846V71.3156C47.7846 68.9352 47.8332 68.3332 48.0416 67.9113C48.3125 67.3851 48.757 67.1153 49.3612 67.1153C49.8613 67.1153 50.153 67.2746 50.3683 67.683C50.5281 67.9804 50.5281 68.0151 50.5489 70.8381L50.5767 73.6886H51.5074H52.445L52.4242 70.5268C52.4034 67.4474 52.3966 67.3509 52.2507 66.984C52.0214 66.4303 51.7922 66.1262 51.424 65.8771C50.9795 65.5865 50.6323 65.4962 49.9724 65.4962C49.4932 65.4962 49.3543 65.5243 48.9445 65.7111C48.6528 65.8491 48.3472 66.0707 48.1319 66.285L47.7846 66.6379V64.6317C47.7846 62.694 47.7776 62.625 47.6457 62.5835C47.5137 62.5419 46.0551 62.5627 45.9093 62.6042Z" fill="white"/>
<path d="M12.9607 65.5517C12.6343 65.6763 12.2731 66.0084 12.03 66.4236L11.8425 66.7349L11.8217 66.1952L11.8008 65.6623H10.9049H10.002V69.6757V73.6886H10.9743H11.9467V71.6269C11.9467 69.3363 12.0162 68.5683 12.2592 68.0359C12.544 67.4132 13.1413 67.2191 13.8011 67.5377C13.9678 67.6207 14.1137 67.6757 14.1276 67.6623C14.1345 67.6482 14.2734 67.2398 14.4262 66.7557L14.711 65.8771L14.5582 65.7801C14.0859 65.4895 13.3983 65.3924 12.9607 65.5517Z" fill="white"/>
<path d="M56.3285 65.5517C55.2382 65.7593 54.6756 66.23 54.2797 67.2886L54.1063 67.738L54.2657 67.7728C54.7381 67.8833 55.8008 68.0774 55.8216 68.0566C55.8357 68.0426 55.919 67.8973 56.0024 67.7313C56.2384 67.2679 56.516 67.1153 57.1552 67.1153C58.0235 67.1153 58.4121 67.4339 58.4121 68.1397C58.4121 68.4163 58.3986 68.4438 58.1553 68.5476C58.0095 68.6098 57.3635 68.7899 56.7108 68.9492C55.0439 69.3571 54.5991 69.5994 54.224 70.2912C53.8979 70.8796 53.8698 72.0971 54.1688 72.6508C54.9397 74.069 56.9536 74.3046 58.2455 73.1214C58.4121 72.9621 58.5653 72.8516 58.5788 72.8651C58.5861 72.8791 58.6413 73.0659 58.6971 73.2735L58.7945 73.6539L59.7457 73.6746L60.6906 73.6954L60.5099 73.1557C60.3364 72.6233 60.3291 72.5745 60.2874 69.8833C60.253 67.8698 60.2114 67.0738 60.1416 66.8735C60.0864 66.7142 59.8848 66.4303 59.6623 66.202C59.3362 65.8839 59.1904 65.7868 58.7872 65.6623C58.2038 65.4755 57.0093 65.4272 56.3285 65.5517ZM58.3986 70.6721C58.3637 71.3986 58.2178 71.7649 57.8428 72.0348C57.5026 72.2911 57.2594 72.3742 56.8911 72.3742C55.8216 72.3742 55.4325 70.9212 56.3775 70.4505C56.5233 70.3742 56.9676 70.2362 57.3635 70.1324C57.7594 70.0286 58.1486 69.9175 58.2319 69.8833C58.4194 69.8138 58.433 69.8833 58.3986 70.6721Z" fill="white"/>
<path d="M65.0593 65.5517C64.7124 65.6763 64.4967 65.8771 64.1706 66.382L63.8998 66.7904V66.23V65.6623H62.9965H62.0938V69.6757V73.6886H63.0663H64.0383V71.6959C64.0383 68.9284 64.1498 68.1189 64.6009 67.669C64.9067 67.3644 65.2333 67.3021 65.6636 67.4547C65.8584 67.5237 66.0668 67.6 66.1293 67.6275C66.2126 67.6622 66.2819 67.5169 66.497 66.8247C66.6429 66.3545 66.7679 65.9394 66.7752 65.9046C66.7752 65.8631 66.6361 65.7661 66.4627 65.6763C66.0595 65.4755 65.4135 65.4205 65.0593 65.5517Z" fill="white"/>
<path d="M70.9638 65.531C70.533 65.628 70.1439 65.8631 69.6855 66.3058L69.2479 66.7209V66.1952V65.6623H68.3801H67.5117V69.6757V73.6886H68.4494H69.387V71.5574C69.387 68.6446 69.4771 67.9871 69.9288 67.5029C70.3106 67.1018 71.068 66.9773 71.429 67.2606C71.8525 67.5927 71.8525 67.5652 71.8733 70.7618L71.8942 73.6886H72.8318H73.7627V71.6269C73.7695 68.8589 73.832 68.2777 74.1653 67.738C74.6587 66.9492 75.7698 66.901 76.1104 67.655C76.2146 67.8766 76.2282 68.2642 76.249 70.7966L76.2698 73.6886H77.2075H78.1384V70.6233C78.1384 67.1776 78.1175 67.0188 77.6659 66.3545C77.4575 66.0499 77.3117 65.9254 76.9298 65.7318C76.4923 65.5102 76.4022 65.4895 75.8531 65.4895C75.0962 65.4895 74.6378 65.683 74.0195 66.2783L73.5892 66.6867L73.2767 66.299C72.8526 65.7733 72.3526 65.517 71.6999 65.4895C71.4431 65.4827 71.1097 65.4962 70.9638 65.531Z" fill="white"/>
<path d="M82.124 65.5242C81.117 65.6695 80.5336 66.0847 80.0893 66.9632C79.7975 67.5512 79.7694 67.7245 79.957 67.7728C80.4154 67.8766 81.4363 68.0841 81.478 68.0841C81.5061 68.0841 81.5614 67.9803 81.603 67.8558C81.6447 67.7313 81.7906 67.5169 81.9297 67.3851C82.1589 67.1641 82.2005 67.15 82.749 67.1293C83.694 67.0878 84.0409 67.3369 84.0617 68.0701L84.0758 68.4645L83.6242 68.6171C83.3741 68.7001 82.749 68.8662 82.2354 68.9834C80.742 69.3296 80.1518 69.6965 79.7767 70.4987C79.6585 70.7551 79.6309 70.9486 79.6309 71.5091C79.6309 72.1111 79.6517 72.2496 79.8111 72.5817C80.0195 73.0104 80.4086 73.4328 80.7904 73.6263C80.9363 73.7026 81.2837 73.7924 81.5687 73.8407C82.423 73.9725 83.1314 73.7649 83.8815 73.1557L84.2493 72.8583L84.3675 73.2735L84.4785 73.6886H85.4094C85.9162 73.6886 86.3329 73.6679 86.3329 73.6331C86.3329 73.6056 86.2637 73.384 86.1803 73.1349C86.0412 72.7198 86.0277 72.4987 85.986 70.0561C85.9511 68.3747 85.9094 67.2953 85.8537 67.0603C85.5693 65.8631 84.0618 65.2404 82.124 65.5242ZM84.0899 70.5543C84.0482 71.3363 83.9784 71.5574 83.6731 71.8827C82.8605 72.7338 81.527 72.4017 81.5129 71.343C81.5061 70.9762 81.6379 70.7343 81.9645 70.492C82.1172 70.3815 83.7075 69.9108 83.9992 69.89C84.1243 69.8833 84.1316 69.9248 84.0899 70.5543Z" fill="white"/>
<path d="M14.7949 72.6508V73.6887H15.7326H16.6702V72.6508V71.6129H15.7326H14.7949V72.6508Z" fill="white"/>
<path d="M87.0711 61.9088C87.0711 60.4902 85.9167 59.3401 84.4926 59.3401C83.0685 59.3401 81.9141 60.4902 81.9141 61.9088C81.9141 63.3275 83.0685 64.4776 84.4926 64.4776C85.9167 64.4776 87.0711 63.3275 87.0711 61.9088Z" stroke="white"/>
<path d="M83.1309 61.9088V63.4309H83.4434H83.756V62.7739V62.1164H83.9503C84.2352 62.1164 84.3878 62.255 84.7978 62.8704L85.1656 63.4309H85.5062H85.8532L85.6938 63.1683C85.6031 63.0297 85.4922 62.8362 85.4297 62.7391C85.3739 62.6421 85.2213 62.4553 85.0963 62.3172L84.8671 62.0749L85.1379 61.9571C85.3187 61.8741 85.4505 61.7568 85.5198 61.6042C85.6589 61.3136 85.6589 61.1408 85.5271 60.8295C85.3739 60.4626 85.1103 60.3868 84.0336 60.3868H83.1309V61.9088ZM84.9363 61.0095C85.0478 61.1891 85.0129 61.4107 84.853 61.5212C84.7488 61.5975 84.5405 61.6323 84.2279 61.6323H83.756V61.2446V60.857L84.3113 60.885C84.7144 60.8985 84.8947 60.9332 84.9363 61.0095Z" fill="white"/>
</svg>
