<svg width="56" height="56" viewBox="0 0 56 56" fill="none" xmlns="http://www.w3.org/2000/svg">
<path d="M10.7793 7.11046C10.7007 7.19438 10.6394 7.29296 10.599 7.40057C10.5585 7.50818 10.5396 7.62271 10.5435 7.73761C10.5473 7.85251 10.5737 7.96554 10.6212 8.07022C10.6687 8.17491 10.7364 8.2692 10.8204 8.34771L17.2079 14.3275C17.3773 14.4861 17.6028 14.5709 17.8347 14.5633C18.0667 14.5556 18.2861 14.4562 18.4447 14.2868C18.6033 14.1174 18.6882 13.8919 18.6805 13.6599C18.6729 13.428 18.5734 13.2086 18.404 13.05L12.0165 7.07021C11.9327 6.99158 11.8341 6.93024 11.7266 6.8897C11.619 6.84916 11.5045 6.83022 11.3896 6.83396C11.2747 6.8377 11.1616 6.86404 11.0569 6.91148C10.9522 6.95893 10.8579 7.02654 10.7793 7.11046Z" fill="#253746"/>
<path d="M48.1259 12.7753C48.2846 12.9445 48.5039 13.0438 48.7358 13.0513C48.9676 13.0589 49.193 12.9741 49.3623 12.8155C50.2082 12.0219 50.7047 10.9253 50.7431 9.76605C50.7815 8.60683 50.3586 7.47971 49.567 6.6319C49.4076 6.46497 49.1886 6.36783 48.9578 6.36164C48.727 6.35546 48.5032 6.44072 48.335 6.59887C48.1668 6.75702 48.0679 6.97523 48.0599 7.20595C48.0519 7.43667 48.1354 7.66122 48.2922 7.83065C48.5278 8.08233 48.7116 8.37797 48.833 8.70068C48.9544 9.0234 49.011 9.36687 48.9996 9.71147C48.9883 10.0561 48.9091 10.3951 48.7667 10.7091C48.6243 11.0231 48.4214 11.3059 48.1697 11.5415C48.0008 11.6996 47.9013 11.9182 47.8931 12.1494C47.8849 12.3806 47.9686 12.6056 48.1259 12.7753Z" fill="#253746"/>
<path d="M20.1263 39.4626L20.8831 39.9001C21.1818 40.0727 21.5116 40.1847 21.8536 40.2297C22.1957 40.2747 22.5432 40.2518 22.8764 40.1625C23.2096 40.0731 23.5219 39.9189 23.7954 39.7087C24.069 39.4986 24.2984 39.2365 24.4706 38.9376L27.0956 34.3876C27.2682 34.0889 27.3802 33.7591 27.4252 33.4171C27.4702 33.0751 27.4473 32.7276 27.358 32.3944C27.2686 32.0612 27.1144 31.7489 26.9042 31.4753C26.6941 31.2018 26.432 30.9724 26.1331 30.8001L25.3763 30.3626C24.572 29.8997 23.6169 29.7745 22.7205 30.0147C21.8241 30.2548 21.0595 30.8406 20.5944 31.6436L18.8444 34.6755C18.6137 35.0739 18.4638 35.5138 18.4033 35.9702C18.3429 36.4265 18.3731 36.8903 18.4922 37.335C18.6112 37.7797 18.8169 38.1965 19.0973 38.5616C19.3777 38.9267 19.7273 39.2329 20.1263 39.4626ZM23.6263 31.6506C23.9334 31.65 24.2353 31.7306 24.5013 31.8843L25.2581 32.3218C25.4591 32.4378 25.6057 32.6289 25.6658 32.8531C25.7258 33.0772 25.6944 33.316 25.5784 33.517L22.9534 38.067C22.896 38.1666 22.8196 38.2539 22.7284 38.3239C22.6373 38.394 22.5333 38.4453 22.4223 38.4752C22.3113 38.505 22.1955 38.5127 22.0815 38.4977C21.9676 38.4828 21.8577 38.4455 21.7581 38.3881L21.0013 37.9506C20.7334 37.8006 20.5112 37.5807 20.3582 37.3145C20.2052 37.0483 20.1272 36.7456 20.1324 36.4386L20.681 36.7554C20.7806 36.8137 20.8907 36.8518 21.005 36.8675C21.1193 36.8831 21.2356 36.876 21.3472 36.8465C21.4587 36.817 21.5634 36.7657 21.655 36.6956C21.7467 36.6255 21.8236 36.538 21.8813 36.438C21.939 36.3381 21.9764 36.2277 21.9912 36.1133C22.0061 35.9989 21.9982 35.8826 21.968 35.7713C21.9377 35.6599 21.8858 35.5556 21.8151 35.4644C21.7444 35.3732 21.6563 35.2969 21.556 35.2399L20.7983 34.8024L21.6733 33.2869L22.4319 33.7244C22.633 33.8404 22.8719 33.8718 23.0961 33.8117C23.3204 33.7515 23.5115 33.6048 23.6276 33.4037C23.7436 33.2026 23.775 32.9637 23.7149 32.7394C23.6547 32.5152 23.508 32.324 23.3069 32.208L22.7513 31.8843C23.0174 31.7308 23.3191 31.6497 23.6263 31.6489V31.6506Z" fill="#253746"/>
<path d="M29.3142 27.5943L30.072 28.0318C29.7848 28.5294 29.5984 29.0787 29.5234 29.6483C29.4485 30.2179 29.4865 30.7967 29.6353 31.3517C29.7841 31.9066 30.0407 32.4269 30.3905 32.8826C30.7403 33.3384 31.1765 33.7208 31.6741 34.008C31.7736 34.0664 31.8838 34.1045 31.9981 34.1201C32.1124 34.1357 32.2287 34.1286 32.3403 34.0991C32.4518 34.0696 32.5565 34.0183 32.6481 33.9482C32.7398 33.8781 32.8167 33.7906 32.8744 33.6907C32.9321 33.5907 32.9695 33.4804 32.9843 33.3659C32.9992 33.2515 32.9913 33.1353 32.9611 33.0239C32.9308 32.9125 32.8789 32.8082 32.8082 32.717C32.7375 32.6258 32.6494 32.5495 32.5491 32.4925C32.2502 32.3203 31.9882 32.0908 31.778 31.8173C31.5678 31.5437 31.4137 31.2314 31.3243 30.8982C31.2349 30.5651 31.212 30.2175 31.257 29.8755C31.3021 29.5335 31.414 29.2037 31.5866 28.905L32.2428 27.7675L32.4616 27.3886L33.2193 27.8261C34.2242 28.4063 35.4183 28.5635 36.5391 28.2632C37.6598 27.9629 38.6154 27.2297 39.1956 26.2249C39.2532 26.1253 39.2906 26.0154 39.3057 25.9014C39.3207 25.7874 39.3132 25.6715 39.2834 25.5604C39.2537 25.4493 39.2023 25.3452 39.1323 25.254C39.0623 25.1627 38.975 25.0862 38.8753 25.0288L36.6003 23.7163C35.9714 23.3571 35.2464 23.2019 34.5255 23.2721C33.8046 23.3423 33.1232 23.6345 32.5753 24.1083C32.2717 23.4788 31.7853 22.9555 31.1797 22.6068L28.9047 21.2943C28.8052 21.2368 28.6953 21.1996 28.5813 21.1847C28.4674 21.1697 28.3516 21.1774 28.2406 21.2072C28.1296 21.237 28.0255 21.2884 27.9344 21.3585C27.8433 21.4285 27.7669 21.5158 27.7095 21.6154C27.1302 22.6212 26.9739 23.8158 27.2747 24.9369C27.5756 26.0579 28.3092 27.0137 29.3142 27.5943ZM35.728 25.2318L37.1131 26.0315C36.7005 26.3842 36.1888 26.6003 35.6484 26.6501C35.1079 26.7 34.5653 26.5811 34.0952 26.3098L33.3375 25.8723C33.5701 25.4707 33.9528 25.178 34.4012 25.0585C34.8497 24.9391 35.3273 25.0026 35.7288 25.2353L35.728 25.2318ZM28.9205 23.3216L30.3065 24.1214C30.5055 24.2364 30.68 24.3894 30.8199 24.5719C30.9597 24.7543 31.0623 24.9625 31.1217 25.1846C31.1811 25.4066 31.1962 25.6382 31.166 25.8661C31.1359 26.094 31.0612 26.3137 30.9461 26.5128L30.1892 26.0753C29.7203 25.8034 29.3467 25.3932 29.1198 24.901C28.8928 24.4087 28.8235 23.8583 28.9213 23.3251L28.9205 23.3216Z" fill="#253746"/>
<path d="M22.75 27.125C23.4462 27.125 24.1139 26.8484 24.6062 26.3562C25.0984 25.8639 25.375 25.1962 25.375 24.5C25.375 23.4806 24.556 20.125 22.75 20.125C20.944 20.125 20.125 23.4806 20.125 24.5C20.125 25.1962 20.4016 25.8639 20.8938 26.3562C21.3861 26.8484 22.0538 27.125 22.75 27.125ZM22.75 21.9485C23.2518 22.7118 23.5528 23.5894 23.625 24.5C23.625 24.7321 23.5328 24.9546 23.3687 25.1187C23.2046 25.2828 22.9821 25.375 22.75 25.375C22.5179 25.375 22.2954 25.2828 22.1313 25.1187C21.9672 24.9546 21.875 24.7321 21.875 24.5C21.9472 23.5894 22.2482 22.7118 22.75 21.9485Z" fill="#253746"/>
<path d="M31.5 20.125C31.9832 20.125 32.375 19.7332 32.375 19.25C32.375 18.7668 31.9832 18.375 31.5 18.375C31.0168 18.375 30.625 18.7668 30.625 19.25C30.625 19.7332 31.0168 20.125 31.5 20.125Z" fill="#253746"/>
<path d="M26.25 19.25C26.7332 19.25 27.125 18.8582 27.125 18.375C27.125 17.8918 26.7332 17.5 26.25 17.5C25.7668 17.5 25.375 17.8918 25.375 18.375C25.375 18.8582 25.7668 19.25 26.25 19.25Z" fill="#253746"/>
<path d="M36.75 34.125C37.2332 34.125 37.625 33.7332 37.625 33.25C37.625 32.7668 37.2332 32.375 36.75 32.375C36.2668 32.375 35.875 32.7668 35.875 33.25C35.875 33.7332 36.2668 34.125 36.75 34.125Z" fill="#253746"/>
<path d="M18.375 30.625C18.8582 30.625 19.25 30.2332 19.25 29.75C19.25 29.2668 18.8582 28.875 18.375 28.875C17.8918 28.875 17.5 29.2668 17.5 29.75C17.5 30.2332 17.8918 30.625 18.375 30.625Z" fill="#253746"/>
<path d="M28 39.375C28.4832 39.375 28.875 38.9832 28.875 38.5C28.875 38.0168 28.4832 37.625 28 37.625C27.5168 37.625 27.125 38.0168 27.125 38.5C27.125 38.9832 27.5168 39.375 28 39.375Z" fill="#253746"/>
<path d="M36.3724 40.4252C35.68 39.2216 35.2152 37.9008 35.0013 36.5288C34.9782 36.3888 34.9213 36.2565 34.8357 36.1433C34.75 36.0302 34.6381 35.9395 34.5096 35.8792C34.3811 35.819 34.2399 35.7908 34.0981 35.7973C33.9563 35.8038 33.8183 35.8446 33.6958 35.9163C32.4193 36.6672 31.3161 37.6797 30.4586 38.8872C29.6012 40.0946 29.0088 41.4698 28.7205 42.9225C27.1881 42.3978 25.5547 42.2359 23.9491 42.4495C22.3434 42.6632 20.8093 43.2465 19.4673 44.1537C18.1254 45.0609 17.0123 46.2671 16.2156 47.6775C15.419 49.0878 14.9605 50.6639 14.8763 52.2815C14.8671 52.4509 14.9073 52.6194 14.9922 52.7663C15.077 52.9133 15.2027 53.0324 15.354 53.1092C16.672 53.7819 18.1176 54.1674 19.5955 54.2405C21.0734 54.3135 22.55 54.0723 23.9279 53.5329C25.3057 52.9935 26.5535 52.168 27.589 51.111C28.6245 50.054 29.4241 48.7894 29.935 47.4007C30.0152 47.1829 30.0056 46.9422 29.9083 46.7315C29.811 46.5208 29.634 46.3574 29.4162 46.2772C29.1984 46.197 28.9576 46.2067 28.7469 46.304C28.5363 46.4013 28.3728 46.5783 28.2927 46.7961C27.7483 48.2703 26.816 49.5703 25.5942 50.5586C24.9427 48.366 23.7842 46.3577 22.2123 44.6961C23.3109 44.2752 24.4829 44.0797 25.6586 44.1213C26.8343 44.163 27.9896 44.4409 29.0557 44.9385C29.1831 44.9979 29.3231 45.0258 29.4636 45.0197C29.6042 45.0136 29.7412 44.9737 29.863 44.9034C29.9849 44.833 30.0879 44.7344 30.1635 44.6157C30.2391 44.4971 30.285 44.362 30.2973 44.2218C30.3995 43.0392 30.7404 41.8896 31.2994 40.8424C31.8584 39.7952 32.6239 38.8722 33.5497 38.1292C34.1379 40.359 35.3126 42.3906 36.9517 44.0127C35.4321 44.6084 33.7758 44.7651 32.1715 44.4651C31.9434 44.4224 31.7077 44.4721 31.5162 44.6032C31.3247 44.7343 31.1931 44.9361 31.1504 45.1642C31.1077 45.3923 31.1574 45.6281 31.2885 45.8196C31.4196 46.0111 31.6214 46.1426 31.8495 46.1853C34.2783 46.6369 36.7886 46.2158 38.937 44.9962C39.0606 44.9258 39.1651 44.8262 39.2416 44.7062C39.318 44.5863 39.364 44.4495 39.3757 44.3077C39.3873 44.1659 39.3642 44.0234 39.3084 43.8926C39.2525 43.7618 39.1656 43.6465 39.0552 43.5568C37.9767 42.6861 37.0674 41.6246 36.3724 40.4252ZM24.0507 51.5456C22.9147 52.1245 21.6654 52.4469 20.3911 52.49C19.1169 52.5331 17.8487 52.2958 16.6762 51.795C16.8286 50.5291 17.2571 49.3121 17.9314 48.23C18.6057 47.148 19.5094 46.2271 20.5787 45.5326C22.2708 47.1765 23.4728 49.2583 24.0507 51.5456Z" fill="#253746"/>
<path d="M18.8262 48.533C18.6763 48.6195 18.5555 48.7486 18.4789 48.9038C18.4024 49.059 18.3736 49.2334 18.3962 49.405C18.4187 49.5766 18.4917 49.7376 18.6058 49.8677C18.7199 49.9978 18.8701 50.0912 19.0372 50.136C19.2044 50.1808 19.3811 50.175 19.5449 50.1193C19.7088 50.0637 19.8525 49.9607 19.9579 49.8234C20.0632 49.6861 20.1255 49.5207 20.1368 49.348C20.1481 49.1753 20.108 49.0031 20.0214 48.8532C19.9054 48.6523 19.7143 48.5056 19.4901 48.4456C19.266 48.3855 19.0271 48.417 18.8262 48.533Z" fill="#253746"/>
<path d="M52.1248 4.24387C50.6976 2.71935 48.7232 1.82419 46.6359 1.75527C44.5487 1.68635 42.5196 2.44932 40.9948 3.87637L30.7731 13.4436C30.6037 13.6022 30.5043 13.8214 30.4966 14.0533C30.4889 14.2851 30.5735 14.5106 30.732 14.68L40.3001 24.9009C40.3789 24.985 40.4736 25.0528 40.5787 25.1003C40.6839 25.1477 40.7973 25.1739 40.9126 25.1774H40.9415C41.1637 25.1775 41.3777 25.093 41.54 24.9411L44.7775 21.9119C44.8613 21.8333 44.9289 21.739 44.9764 21.6344C45.0238 21.5297 45.0502 21.4167 45.054 21.3019C45.0577 21.187 45.0389 21.0726 44.9984 20.965C44.9579 20.8575 44.8967 20.7589 44.8182 20.6751C44.7396 20.5912 44.6453 20.5236 44.5407 20.4761C44.436 20.4287 44.323 20.4023 44.2082 20.3986C44.0933 20.3948 43.9789 20.4137 43.8713 20.4541C43.7638 20.4946 43.6652 20.5558 43.5813 20.6344L40.9843 23.0651L32.6123 14.1226L42.191 5.15387C42.7755 4.59023 43.4662 4.14845 44.2231 3.85421C44.9799 3.55997 45.7876 3.41916 46.5994 3.43995C47.4111 3.46075 48.2106 3.64274 48.9514 3.97535C49.6921 4.30795 50.3594 4.78453 50.9143 5.37736C51.4691 5.97018 51.9006 6.66743 52.1836 7.42853C52.4665 8.18964 52.5953 8.99941 52.5625 9.81075C52.5296 10.6221 52.3358 11.4188 51.9922 12.1545C51.6487 12.8903 51.1622 13.5503 50.5612 14.0964L46.1337 18.2421C46.0498 18.3207 45.9822 18.4149 45.9348 18.5196C45.8874 18.6243 45.861 18.7372 45.8572 18.8521C45.8534 18.9669 45.8723 19.0814 45.9128 19.189C45.9532 19.2965 46.0145 19.395 46.093 19.4789C46.1716 19.5628 46.2659 19.6304 46.3705 19.6778C46.4752 19.7253 46.5882 19.7516 46.703 19.7554C46.8179 19.7592 46.9323 19.7403 47.0399 19.6999C47.1474 19.6594 47.246 19.5982 47.3298 19.5196L51.7573 15.3739C53.28 13.9455 54.1738 11.9715 54.2427 9.88486C54.3116 7.79827 53.5499 5.76956 52.1248 4.24387Z" fill="#253746"/>
<path d="M15.0925 25.1775C15.2078 25.174 15.3213 25.1478 15.4264 25.1004C15.5315 25.0529 15.6262 24.9852 15.705 24.901L25.2705 14.6801C25.429 14.5107 25.5136 14.2852 25.5059 14.0534C25.4982 13.8216 25.3987 13.6023 25.2294 13.4437L21.8764 10.3077C21.7925 10.2292 21.694 10.1679 21.5864 10.1275C21.4789 10.087 21.3644 10.0681 21.2496 10.0719C21.0176 10.0795 20.7982 10.179 20.6396 10.3484C20.481 10.5178 20.3961 10.7433 20.4038 10.9752C20.4114 11.2072 20.5109 11.4266 20.6803 11.5852L23.3928 14.1227L15.0208 23.0652L5.44127 14.0965C4.84026 13.5505 4.35383 12.8904 4.01026 12.1546C3.66669 11.4189 3.47284 10.6222 3.43999 9.81086C3.40713 8.99952 3.53594 8.18975 3.8189 7.42864C4.10186 6.66754 4.53334 5.9703 5.08823 5.37747C5.64312 4.78464 6.31035 4.30807 7.05111 3.97546C7.79186 3.64286 8.59136 3.46086 9.4031 3.44006C10.2148 3.41927 11.0226 3.56008 11.7794 3.85432C12.5362 4.14856 13.227 4.59034 13.8115 5.15398L18.1261 9.18773C18.21 9.26627 18.3086 9.32751 18.4161 9.36797C18.5237 9.40843 18.6381 9.42731 18.753 9.42354C18.8678 9.41976 18.9808 9.3934 19.0855 9.34595C19.1901 9.29851 19.2844 9.23092 19.363 9.14704C19.4415 9.06316 19.5027 8.96463 19.5432 8.85708C19.5837 8.74952 19.6025 8.63506 19.5988 8.52021C19.595 8.40536 19.5686 8.29238 19.5212 8.18772C19.4737 8.08306 19.4061 7.98877 19.3223 7.91023L15.0076 3.87648C14.2556 3.15466 13.3676 2.58935 12.3954 2.21332C11.4232 1.83729 10.3859 1.65802 9.34389 1.68593C8.30184 1.71383 7.2757 1.94834 6.32498 2.37586C5.37425 2.80339 4.51787 3.41541 3.80549 4.17644C3.09311 4.93747 2.53891 5.83236 2.17504 6.80921C1.81116 7.78607 1.64485 8.82544 1.68575 9.86707C1.72665 10.9087 1.97394 11.9318 2.41329 12.8771C2.85263 13.8225 3.47529 14.6711 4.24514 15.374L14.4651 24.9421C14.6274 25.094 14.8414 25.1785 15.0636 25.1784L15.0925 25.1775Z" fill="#253746"/>
</svg>
