<svg width="56" height="56" viewBox="0 0 56 56" fill="none" xmlns="http://www.w3.org/2000/svg">
<path d="M35.0551 31.055H30.6154V26.6152H25.3851V31.055H20.9453V36.2854H25.3851V40.7252H30.6154V36.2854H35.0551V31.055Z" fill="#253746"/>
<path d="M52.6123 15.8586H22.103L16.338 10.1348C16.2924 10.0899 16.2687 10.0295 16.2745 9.97362C16.4568 8.21651 15.7691 6.47231 14.4352 5.30779C12.4065 3.53745 9.34281 3.53187 7.30844 5.29488C6.15027 6.29862 5.48264 7.69118 5.42839 9.21609C5.37491 10.7198 5.95438 12.1922 7.01816 13.2556C8.18737 14.4244 9.80175 14.9937 11.4473 14.817C11.4968 14.8121 11.5558 14.8354 11.5977 14.8767L12.5905 15.8586H3.38767C1.51977 15.8586 0 17.3783 0 19.2462C0 21.1141 1.51977 22.6338 3.38767 22.6338H4.81994V35.3371C4.81994 42.0716 10.2989 47.5505 17.0333 47.5505H17.451C16.9443 48.2119 16.5825 48.9896 16.4131 49.8361H7.39091C6.78694 49.8361 6.29716 50.3258 6.29716 50.9299C6.29716 51.5339 6.78694 52.0236 7.39091 52.0236H48.6091C49.2131 52.0236 49.7028 51.5339 49.7028 50.9299C49.7028 50.3258 49.2131 49.8361 48.6091 49.8361H39.5869C39.4175 48.9895 39.0557 48.2118 38.549 47.5505H38.9667C45.7011 47.5505 51.1801 42.0716 51.1801 35.3371V22.6339H52.6123C54.4802 22.6339 56 21.1142 56 19.2462C56 17.3783 54.4802 15.8586 52.6123 15.8586ZM13.1335 13.3191C12.6187 12.8131 11.9182 12.5664 11.214 12.642C10.2292 12.7477 9.26363 12.4073 8.56461 11.7086C7.91952 11.0636 7.58198 10.206 7.61436 9.29385C7.64684 8.38265 8.04683 7.54954 8.74092 6.94809C9.95553 5.89535 11.785 5.89863 12.9965 6.95596C13.8075 7.66384 14.2091 8.68157 14.0984 9.74831C14.0238 10.4691 14.28 11.1775 14.7989 11.6896L18.9981 15.8588H15.7011L13.1335 13.3191ZM48.9927 35.3372C48.9927 40.8655 44.4951 45.3631 38.9668 45.3631H34.128C33.524 45.3631 33.0342 45.8528 33.0342 46.4569C33.0342 47.0609 33.524 47.5506 34.128 47.5506C35.6088 47.5506 36.8702 48.508 37.3258 49.8362H18.6742C19.1298 48.5079 20.3912 47.5506 21.872 47.5506C21.8776 47.5506 21.8832 47.5505 21.8888 47.5504H28C28.604 47.5504 29.0938 47.0607 29.0938 46.4566C29.0938 45.8526 28.604 45.3629 28 45.3629L17.0332 45.3631C11.5049 45.3631 7.00733 40.8655 7.00733 35.3372V22.6339H48.9926V35.3372H48.9927ZM52.6123 20.4464H3.38767C2.72584 20.4464 2.1875 19.908 2.1875 19.2462C2.1875 18.5844 2.72584 18.0461 3.38767 18.0461H52.6124C53.2743 18.0461 53.8126 18.5845 53.8126 19.2463C53.8126 19.9082 53.2742 20.4464 52.6123 20.4464Z" fill="#253746"/>
</svg>
