<svg width="56" height="56" viewBox="0 0 56 56" fill="none" xmlns="http://www.w3.org/2000/svg">
<path d="M31.6628 37.0462C33.5731 35.2262 36.159 34.1089 39.0058 34.1089C44.886 34.1089 49.6529 38.8758 49.6529 44.756C49.6529 50.6362 44.886 55.4031 39.0058 55.4031C34.8528 55.4031 31.2551 53.0254 29.5 49.557" fill="#253746"/>
<path d="M39.0039 39.4966C38.3999 39.4966 37.9102 39.9864 37.9102 40.5903V48.9216C37.9102 49.5256 38.3999 50.0154 39.0039 50.0154C39.6079 50.0154 40.0977 49.5256 40.0977 48.9216V40.5903C40.0977 39.9864 39.608 39.4966 39.0039 39.4966Z" fill="#253746"/>
<path d="M12.8906 23.0261C13.4947 23.0261 13.9844 22.5363 13.9844 21.9323V14.5469C13.9844 13.9429 13.4947 13.4531 12.8906 13.4531C12.2865 13.4531 11.7969 13.9429 11.7969 14.5469V21.9323C11.7969 22.5364 12.2865 23.0261 12.8906 23.0261Z" fill="#253746"/>
<path d="M45.8095 14.4126C42.3406 10.9436 37.0536 10.3739 32.9874 12.7032C32.6806 5.6467 26.8263 0 19.6738 0C12.3258 0 6.34766 5.95984 6.34766 13.2856V42.7144C6.34766 50.0402 12.3258 56 19.6739 56C27.0219 56 33 50.0402 33 42.7144V31.1845C34.6304 32.1153 36.4562 32.5808 38.282 32.5808C41.008 32.5808 43.7342 31.5432 45.8095 29.4678C49.9601 25.3171 49.9601 18.5633 45.8095 14.4126ZM19.6739 2.1875C25.8158 2.1875 30.8125 7.16614 30.8125 13.2856V14.3549C30.7931 14.3741 30.7737 14.3933 30.7544 14.4127C27.3783 17.7889 26.7483 22.8874 28.8645 26.9064H8.53516V13.2856C8.53516 7.16614 13.532 2.1875 19.6739 2.1875ZM30.8125 42.7144C30.8125 48.8339 25.8158 53.8125 19.6738 53.8125C13.5318 53.8125 8.53516 48.8339 8.53516 42.7144V29.0938H30.3978C30.513 29.2206 30.6319 29.3453 30.7543 29.4678C30.7736 29.4872 30.793 29.5064 30.8124 29.5256V42.7144H30.8125ZM44.2627 27.9209C40.9648 31.2186 35.5989 31.2186 32.3012 27.9209C29.0036 24.6232 29.0036 19.2572 32.3012 15.9595C33.9503 14.3104 36.1158 13.4862 38.2821 13.4862C40.4478 13.4862 42.6141 14.3107 44.2628 15.9595C47.5604 19.2572 47.5604 24.6232 44.2627 27.9209Z" fill="#253746"/>
<path d="M39.9942 18.6806L35.0996 23.5751C34.6725 24.0022 34.6725 24.6948 35.0996 25.122C35.3132 25.3355 35.5931 25.4424 35.873 25.4424C36.1529 25.4424 36.4328 25.3355 36.6464 25.122L41.5409 20.2275C41.9681 19.8004 41.9681 19.1078 41.5409 18.6806C41.1137 18.2536 40.4214 18.2536 39.9942 18.6806Z" fill="#253746"/>
</svg>
