<svg width="48" height="48" viewBox="0 0 48 48" fill="none" xmlns="http://www.w3.org/2000/svg">
<path d="M23 44C14.9861 44 10.9792 44 8.48959 41.0711C6 38.1421 6 33.4281 6 24C6 14.5719 6 9.85787 8.48959 6.92893C10.9792 4 14.9861 4 23 4C31.0139 4 35.0208 4 37.5104 6.92893C39.5145 9.28665 39.9053 12.8011 39.9815 19" stroke="white" stroke-width="1.5" stroke-linecap="round" stroke-linejoin="round"/>
<path d="M16 16.0007H30M16 26.0007H22" stroke="white" stroke-width="1.5" stroke-linecap="round" stroke-linejoin="round"/>
<path d="M39.2185 36.2115C40.9043 34.9843 42 32.9955 42 30.7507C42 27.0228 38.9779 24.0007 35.25 24.0007H34.75C31.0221 24.0007 28 27.0228 28 30.7507C28 32.9955 29.0957 34.9843 30.7815 36.2115M39.2185 36.2115C38.1046 37.0224 36.7332 37.5007 35.25 37.5007H34.75C33.2668 37.5007 31.8954 37.0224 30.7815 36.2115M39.2185 36.2115L40.3841 39.8816C40.8287 41.2813 41.0509 41.9812 40.9901 42.4171C40.8636 43.3242 40.1239 43.9975 39.2505 44.0007C38.8307 44.0023 38.202 43.6723 36.9446 43.0125C36.4054 42.7295 36.1358 42.588 35.8599 42.5048C35.298 42.3354 34.702 42.3354 34.1401 42.5048C33.8642 42.588 33.5946 42.7295 33.0554 43.0125C31.798 43.6723 31.1693 44.0023 30.7495 44.0007C29.8761 43.9975 29.1364 43.3242 29.0099 42.4171C28.9491 41.9812 29.1713 41.2814 29.6159 39.8816L30.7815 36.2115" stroke="white" stroke-width="1.5"/>
</svg>
