<svg width="48" height="48" viewBox="0 0 48 48" fill="none" xmlns="http://www.w3.org/2000/svg">
<path d="M42 14V24M6 14C6 20.129 6 33.5484 6 34.3226C6 37.0876 9.89128 38.7313 17.6739 42.0189C20.8004 43.3396 22.3636 44 24 44L24 22.7097" stroke="white" stroke-width="1.5" stroke-linecap="round" stroke-linejoin="round"/>
<path d="M30 38C30 38 31.75 38 33.5 42C33.5 42 39.0588 32 44 30" stroke="white" stroke-width="1.5" stroke-linecap="round" stroke-linejoin="round"/>
<path d="M16.6518 19.3828L10.8094 16.5557C7.60314 15.0042 6 14.2285 6 13C6 11.7715 7.60314 10.9958 10.8094 9.44431L16.6518 6.61723C20.2577 4.87241 22.0606 4 24 4C25.9394 4 27.7423 4.87241 31.3482 6.61723L37.1906 9.4443C40.3969 10.9958 42 11.7715 42 13C42 14.2285 40.3969 15.0042 37.1906 16.5557L31.3482 19.3828C27.7423 21.1276 25.9394 22 24 22C22.0606 22 20.2577 21.1276 16.6518 19.3828Z" stroke="white" stroke-width="1.5" stroke-linecap="round" stroke-linejoin="round"/>
<path d="M12 24L16 26" stroke="white" stroke-width="1.5" stroke-linecap="round" stroke-linejoin="round"/>
<path d="M34 8L14 18" stroke="white" stroke-width="1.5" stroke-linecap="round" stroke-linejoin="round"/>
</svg>
