<svg width="44" height="44" viewBox="0 0 44 44" fill="none" xmlns="http://www.w3.org/2000/svg">
<rect x="0.5" y="0.5" width="43" height="43" rx="3.5" stroke="white"/>
<path d="M12 16L18.913 19.917C21.4616 21.361 22.5384 21.361 25.087 19.917L32 16" stroke="white" stroke-width="1.5" stroke-linejoin="round"/>
<path d="M12.0158 22.9756C12.0811 26.0412 12.1138 27.5739 13.245 28.7094C14.3761 29.8448 15.9503 29.8843 19.0988 29.9634C21.0393 30.0122 22.9607 30.0122 24.9012 29.9634C28.0497 29.8843 29.6239 29.8448 30.7551 28.7094C31.8862 27.5739 31.9189 26.0412 31.9842 22.9756C32.0053 21.9899 32.0053 21.0101 31.9842 20.0244C31.9189 16.9589 31.8862 15.4261 30.7551 14.2907C29.6239 13.1552 28.0497 13.1157 24.9012 13.0366C22.9607 12.9878 21.0393 12.9878 19.0988 13.0366C15.9503 13.1157 14.3761 13.1552 13.245 14.2906C12.1138 15.4261 12.0811 16.9588 12.0158 20.0244C11.9947 21.0101 11.9947 21.9899 12.0158 22.9756Z" stroke="white" stroke-width="1.5" stroke-linejoin="round"/>
</svg>
