<svg width="44" height="44" viewBox="0 0 44 44" fill="none" xmlns="http://www.w3.org/2000/svg">
<rect x="0.5" y="0.5" width="43" height="43" rx="3.5" stroke="white"/>
<path d="M24.5 19C24.5 20.3807 23.3807 21.5 22 21.5C20.6193 21.5 19.5 20.3807 19.5 19C19.5 17.6193 20.6193 16.5 22 16.5C23.3807 16.5 24.5 17.6193 24.5 19Z" stroke="white" stroke-width="1.5"/>
<path d="M28.2222 27C29.6167 28.9885 30.2838 30.0475 29.8865 30.8999C29.8466 30.9854 29.7999 31.0679 29.7469 31.1467C29.1724 32 27.6875 32 24.7178 32H19.2822C16.3125 32 14.8276 32 14.2531 31.1467C14.2001 31.0679 14.1534 30.9854 14.1135 30.8999C13.7162 30.0475 14.3833 28.9885 15.7778 27" stroke="white" stroke-width="1.5" stroke-linecap="round" stroke-linejoin="round"/>
<path d="M23.2574 27.4936C22.9201 27.8184 22.4693 28 22.0002 28C21.531 28 21.0802 27.8184 20.7429 27.4936C17.6543 24.5008 13.5152 21.1575 15.5337 16.3037C16.6251 13.6793 19.2449 12 22.0002 12C24.7554 12 27.3752 13.6793 28.4666 16.3037C30.4826 21.1514 26.3536 24.5111 23.2574 27.4936Z" stroke="white" stroke-width="1.5"/>
</svg>
