<svg width="80" height="80" viewBox="0 0 80 80" fill="none" xmlns="http://www.w3.org/2000/svg">
<path fill-rule="evenodd" clip-rule="evenodd" d="M39.9998 56.6129C39.4597 56.6129 38.9582 56.3331 38.6785 55.8775C37.6694 54.2695 36.3089 52.2448 34.7336 49.9079C28.3931 40.4947 19.709 27.6118 19.709 20.2946C19.709 9.10421 28.8098 0.00341797 40 0.00341797C51.1904 0.00341797 60.2912 9.10421 60.2912 20.2946C60.2912 27.6116 51.6071 40.5011 45.2666 49.9079C43.6912 52.2448 42.3307 54.2695 41.3217 55.8775C41.0412 56.3396 40.5402 56.6129 39.9998 56.6129ZM39.9998 3.12818C30.5346 3.12818 22.8336 10.8294 22.8336 20.2946C22.8336 26.6547 31.5503 39.5963 37.3244 48.1632C38.3073 49.628 39.2124 50.9624 39.9998 52.1668C40.7875 50.9624 41.6925 49.628 42.6754 48.1632C48.4433 39.5963 57.1598 26.6545 57.1598 20.2946C57.1663 10.8292 49.4651 3.12818 39.9998 3.12818Z" fill="white"/>
<path fill-rule="evenodd" clip-rule="evenodd" d="M39.9991 31.1399C33.8798 31.1399 28.9062 26.1599 28.9062 20.0469C28.9062 13.9277 33.8863 8.9541 39.9991 8.9541C46.1185 8.9541 51.092 13.9341 51.092 20.0469C51.0918 26.1599 46.1183 31.1399 39.9991 31.1399ZM39.9991 12.0726C35.605 12.0726 32.031 15.6465 32.031 20.0406C32.031 24.4349 35.605 28.0088 39.9991 28.0088C44.3933 28.0088 47.9673 24.4349 47.9673 20.0406C47.9671 15.6464 44.3933 12.0726 39.9991 12.0726Z" fill="white"/>
<path fill-rule="evenodd" clip-rule="evenodd" d="M28.4452 79.9962C28.2824 79.9962 28.1132 79.9701 27.9504 79.9181L4.84691 72.2105C4.20892 71.9955 3.7793 71.4032 3.7793 70.7261V25.8081C3.7793 25.3069 4.02013 24.8317 4.4302 24.5388C4.84026 24.2459 5.36124 24.1677 5.83645 24.324L26.1668 31.1008C26.5444 31.2244 26.8568 31.4915 27.0456 31.8362C27.8333 33.2879 28.7512 34.8829 29.7861 36.5754C29.936 36.8227 30.0141 37.1028 30.0141 37.3891V78.4336C30.0141 78.935 29.7732 79.41 29.3632 79.7031C29.0897 79.8919 28.7706 79.9962 28.4452 79.9962ZM6.90406 69.6065L26.8828 76.2661L26.8827 37.8253C26.0299 36.4191 25.2813 35.1173 24.5911 33.8738L6.90406 27.9696V69.6065Z" fill="white"/>
<path fill-rule="evenodd" clip-rule="evenodd" d="M28.4454 79.9961C28.1198 79.9961 27.8009 79.8918 27.5339 79.7032C27.124 79.4101 26.883 78.9349 26.883 78.4337L26.8828 37.3892C26.8828 36.6862 27.3517 36.0743 28.0222 35.8855C28.6991 35.6967 29.4154 35.9831 29.7798 36.5755C32.2406 40.6247 34.9422 44.6282 37.3184 48.1631C38.3013 49.6278 39.2064 50.9687 39.9938 52.1666C40.7815 50.9687 41.6865 49.6278 42.6694 48.1631C45.0521 44.6282 47.7472 40.6247 50.208 36.5755C50.5725 35.9766 51.2885 35.6967 51.9656 35.8855C52.6425 36.0743 53.105 36.6862 53.105 37.3892V70.7325C53.105 71.4032 52.6752 72.002 52.0372 72.2168L28.9339 79.918C28.7772 79.9701 28.6146 79.9961 28.4454 79.9961ZM30.0076 42.8053V76.2658L49.9865 69.6062V42.8053C48.3786 45.2921 46.7575 47.6943 45.2669 49.9141C43.6914 52.251 42.3309 54.2757 41.322 55.8836C41.0354 56.3393 40.5344 56.619 39.9938 56.619C39.4537 56.619 38.9522 56.3393 38.6725 55.8836C37.6634 54.2692 36.3029 52.251 34.7276 49.9141C33.2366 47.6943 31.622 45.2921 30.0076 42.8053Z" fill="white"/>
<path fill-rule="evenodd" clip-rule="evenodd" d="M74.6579 79.9962C74.4952 79.9962 74.3261 79.9702 74.1633 79.9181L51.06 72.2169C50.422 72.0021 49.9924 71.4097 49.9924 70.7326L49.9922 37.3893C49.9922 37.1028 50.0702 36.8229 50.2201 36.5756C52.5246 32.7804 54.2106 29.6296 55.3692 26.9411C55.6883 26.1924 56.5279 25.8213 57.2962 26.0752L75.1527 32.0252C75.7907 32.24 76.2203 32.8324 76.2203 33.5093V78.4338C76.2203 78.9352 75.9795 79.4102 75.5694 79.7033C75.3024 79.8919 74.9835 79.9962 74.6579 79.9962ZM53.1169 69.6065L73.0957 76.2661L73.0955 34.6356L57.6476 29.4864C56.5215 31.908 55.0243 34.6552 53.1169 37.8255V69.6065Z" fill="white"/>
</svg>
