<svg width="48" height="48" viewBox="0 0 48 48" fill="none" xmlns="http://www.w3.org/2000/svg">
<path d="M20.7472 6.47807C21.8354 5.12275 22.3795 4.44508 23.0286 4.18654C23.653 3.93782 24.347 3.93782 24.9714 4.18654C25.6205 4.44508 26.1646 5.12275 27.2528 6.47807C27.8588 7.23284 28.1618 7.61022 28.5402 7.84838C28.9065 8.0789 29.3225 8.21561 29.7524 8.24672C30.1966 8.27886 30.6661 8.15177 31.6051 7.89758C33.257 7.45041 34.083 7.22682 34.7442 7.39148C35.4211 7.56005 36.0056 7.99159 36.3719 8.59315C36.7297 9.18076 36.7734 10.035 36.8609 11.7436C36.9098 12.6984 36.9342 13.1758 37.0952 13.5877C37.2609 14.0114 37.5297 14.3856 37.8766 14.6754C38.2137 14.957 38.658 15.1282 39.5465 15.4707C41.1262 16.0796 41.9161 16.3841 42.3559 16.9022C42.8216 17.4507 43.0503 18.1661 42.9907 18.8874C42.9344 19.5688 42.4753 20.2792 41.557 21.7001C41.0452 22.4921 40.7892 22.8882 40.679 23.3122C40.5618 23.763 40.5618 24.237 40.679 24.6878C40.7892 25.1118 41.0452 25.5079 41.557 26.2999C42.4753 27.7208 42.9344 28.4312 42.9907 29.1126C43.0503 29.8339 42.8216 30.5493 42.3559 31.0978C41.9161 31.6159 41.1262 31.9204 39.5465 32.5293C38.658 32.8718 38.2137 33.043 37.8766 33.3246C37.5297 33.6144 37.2609 33.9886 37.0952 34.4123C36.9342 34.8242 36.9098 35.3016 36.8609 36.2564C36.7734 37.965 36.7297 38.8192 36.3719 39.4069C36.0056 40.0084 35.4211 40.4399 34.7442 40.6085C34.083 40.7732 33.257 40.5496 31.6051 40.1024C30.6661 39.8482 30.1966 39.7211 29.7524 39.7533C29.3225 39.7844 28.9065 39.9211 28.5402 40.1516C28.1618 40.3898 27.8588 40.7672 27.2528 41.5219C26.1646 42.8773 25.6205 43.5549 24.9714 43.8135C24.347 44.0622 23.653 44.0622 23.0286 43.8135C22.3795 43.5549 21.8354 42.8773 20.7472 41.5219C20.1412 40.7672 19.8382 40.3898 19.4598 40.1516C19.0935 39.9211 18.6775 39.7844 18.2476 39.7533C17.8034 39.7211 17.3339 39.8482 16.3949 40.1024C14.743 40.5496 13.917 40.7732 13.2558 40.6085C12.5789 40.4399 11.9944 40.0084 11.6281 39.4069C11.2703 38.8192 11.2266 37.965 11.1391 36.2564C11.0902 35.3016 11.0658 34.8242 10.9048 34.4123C10.7391 33.9886 10.4703 33.6144 10.1234 33.3246C9.78625 33.043 9.34202 32.8718 8.45355 32.5293C6.87381 31.9204 6.08394 31.6159 5.64408 31.0978C5.17843 30.5493 4.94968 29.8339 5.0093 29.1126C5.06562 28.4312 5.52473 27.7208 6.44296 26.2999C6.95482 25.5079 7.21075 25.1118 7.321 24.6878C7.43823 24.237 7.43823 23.763 7.321 23.3122C7.21075 22.8882 6.95482 22.4921 6.44296 21.7001C5.52473 20.2792 5.06562 19.5688 5.0093 18.8874C4.94968 18.1661 5.17843 17.4507 5.64408 16.9022C6.08394 16.3841 6.87381 16.0796 8.45355 15.4707C9.34202 15.1282 9.78625 14.957 10.1234 14.6754C10.4703 14.3856 10.7391 14.0114 10.9048 13.5877C11.0658 13.1758 11.0902 12.6984 11.1391 11.7436C11.2266 10.035 11.2703 9.18076 11.6281 8.59315C11.9944 7.99159 12.5789 7.56005 13.2558 7.39148C13.917 7.22682 14.743 7.45041 16.3949 7.89758C17.3339 8.15177 17.8034 8.27886 18.2476 8.24672C18.6775 8.21561 19.0935 8.0789 19.4598 7.84838C19.8382 7.61022 20.1412 7.23284 20.7472 6.47807Z" stroke="white" stroke-width="1.5" stroke-linejoin="round"/>
<path d="M18 26.6667C18 26.6667 19.75 26.6667 21.5 30C21.5 30 27.0588 21.6667 32 20" stroke="white" stroke-width="1.5" stroke-linecap="round" stroke-linejoin="round"/>
</svg>
