<svg width="81" height="81" viewBox="0 0 81 81" fill="none" xmlns="http://www.w3.org/2000/svg">
<g clip-path="url(#clip0_335_1628)">
<path d="M60.8743 47.3721C58.7423 47.3721 57.0078 49.1072 57.0078 51.2402V55.4932C57.0078 57.626 58.7422 59.3613 60.8743 59.3613C63.0064 59.3613 64.7407 57.6262 64.7407 55.4932V51.2402C64.7407 49.1072 63.0064 47.3721 60.8743 47.3721ZM60.8743 49.0683C62.0713 49.0683 63.0452 50.0426 63.0452 51.2402V52.5185H58.7035V51.2402C58.7035 50.0426 59.6774 49.0683 60.8743 49.0683ZM60.8743 57.6649C59.6772 57.6649 58.7033 56.6906 58.7033 55.493V54.2145H63.045V55.493C63.0452 56.6906 62.0713 57.6649 60.8743 57.6649Z" fill="white"/>
<path d="M17.9723 58.5089C14.8056 58.5089 12.2857 61.3696 12.694 64.5126C9.51879 64.0266 6.55859 66.5498 6.55859 69.7671C6.55859 72.6983 8.9474 75.0829 11.8837 75.0829C15.0507 75.0829 17.5733 72.2195 17.1622 69.0753C20.337 69.5684 23.2974 67.0412 23.2974 63.8248C23.2974 60.8935 20.9086 58.5089 17.9723 58.5089ZM8.25411 69.7671C8.25411 68.0627 9.44283 66.6334 11.0359 66.2512V73.283C9.44283 72.9005 8.25411 71.4714 8.25411 69.7671ZM12.7315 73.2829V66.2511C14.3246 66.6334 15.5133 68.0627 15.5133 69.7669C15.5133 71.4711 14.3244 72.9005 12.7315 73.2829ZM17.9723 67.4444C17.4607 67.4444 16.9694 67.3404 16.508 67.1363C16.0538 66.3437 15.4021 65.6781 14.6189 65.2081C14.5463 65.0335 14.4873 64.8551 14.4432 64.6729H21.4971C21.1129 66.2602 19.6803 67.4444 17.9723 67.4444ZM14.4475 62.9766C14.8319 61.3893 16.2642 60.2052 17.9723 60.2052C19.6803 60.2052 21.1127 61.3893 21.4971 62.9766H14.4475Z" fill="white"/>
<path d="M11.8837 47.5444C8.9474 47.5444 6.55859 49.9292 6.55859 52.8603C6.55859 55.7914 8.9474 58.1762 11.8837 58.1762C14.82 58.1762 17.2088 55.7914 17.2088 52.8603C17.2088 49.9292 14.82 47.5444 11.8837 47.5444ZM8.25411 52.8605C8.25411 51.1561 9.44283 49.7268 11.0359 49.3447V56.3764C9.44283 55.9941 8.25411 54.5648 8.25411 52.8605ZM12.7315 56.3763V49.3445C14.3246 49.7268 15.5133 51.1561 15.5133 52.8603C15.5133 54.5645 14.3244 55.9941 12.7315 56.3763Z" fill="white"/>
<path d="M40.0145 74.0027C35.4521 74.0027 31.7402 70.2851 31.7402 65.7157C31.7402 61.1464 35.4521 57.4287 40.0145 57.4287C44.577 57.4287 48.2888 61.1462 48.2888 65.7157C48.2888 70.2852 44.577 74.0027 40.0145 74.0027ZM40.0145 59.125C36.387 59.125 33.4357 62.0815 33.4357 65.7157C33.4357 69.3499 36.387 72.3065 40.0145 72.3065C43.6421 72.3065 46.5933 69.3497 46.5933 65.7157C46.5933 62.0817 43.6421 59.125 40.0145 59.125Z" fill="white"/>
<path d="M58.159 0H21.8702C18.6108 0 15.959 2.65615 15.959 5.92108V20.6421C15.959 21.1104 16.3386 21.4902 16.8067 21.4902C17.2749 21.4902 17.6545 21.1104 17.6545 20.6421V5.92108C17.6545 3.59146 19.5457 1.69624 21.8702 1.69624H32.3287V5.1956H21.3305C20.8624 5.1956 20.4828 5.57539 20.4828 6.04372V23.1787C20.4828 23.647 20.8624 24.0268 21.3305 24.0268C21.7987 24.0268 22.1783 23.647 22.1783 23.1787V6.89184H32.3946C32.6635 8.1033 33.7436 9.01249 35.033 9.01249H44.1522C45.4418 9.01249 46.5216 8.1033 46.7905 6.89184H57.8507V20.473C57.8507 20.9413 58.2302 21.3211 58.6985 21.3211C59.1668 21.3211 59.5462 20.9413 59.5462 20.473V6.04372C59.5462 5.57539 59.1668 5.1956 58.6985 5.1956H46.8565V1.69624H58.1588C60.4833 1.69624 62.3745 3.59146 62.3745 5.92108V23.1787C62.3745 23.647 62.754 24.0268 63.2223 24.0268C63.6906 24.0268 64.07 23.647 64.07 23.1787V5.92108C64.0702 2.65615 61.4184 0 58.159 0ZM45.1612 6.30443C45.1612 6.8625 44.7086 7.31641 44.1523 7.31641H35.0332C34.4769 7.31641 34.0243 6.8625 34.0243 6.30443V1.69624H45.1612V6.30443Z" fill="white"/>
<path d="M72.4842 43.7268V39.3948H72.6868C74.0892 39.3948 75.2301 38.2534 75.2301 36.8504V31.6387C75.2301 30.2358 74.0892 29.0944 72.6868 29.0944H57.5117C56.1093 29.0944 54.9684 30.2358 54.9684 31.6387V36.8504C54.9684 38.2534 56.1093 39.3948 57.5117 39.3948H57.7141V43.7268C54.5143 44.1443 52.0351 46.892 52.0351 50.2085V51.6721H48.4571V45.4607C48.4571 40.7979 44.6697 37.0046 40.0141 37.0046C35.3586 37.0046 31.5711 40.7979 31.5711 45.4607V51.6721H27.9933V50.2085C27.9933 46.8919 25.5139 44.1443 22.3141 43.7268V39.3948H22.5168C23.9191 39.3948 25.06 38.2534 25.06 36.8504V31.6387C25.06 30.2358 23.9191 29.0944 22.5168 29.0944H7.34174C5.93938 29.0944 4.79847 30.2358 4.79847 31.6387V36.8504C4.79847 38.2534 5.93938 39.3948 7.34174 39.3948H7.54436V43.7268C4.34458 44.1445 1.86523 46.892 1.86523 50.2087V75.5906C1.86523 77.9228 3.7598 79.82 6.09774 79.82L11.7019 79.7597C12.1701 79.7546 12.5456 79.3709 12.5405 78.9025C12.5354 78.4342 12.1533 78.0595 11.6838 78.0636L6.08876 78.124C4.69488 78.124 3.56075 76.9877 3.56075 75.5908V50.2087C3.56075 47.5397 5.72812 45.3683 8.39211 45.3683C8.86025 45.3683 9.23987 44.9885 9.23987 44.5202V39.395H20.6188V44.5202C20.6188 44.9885 20.9984 45.3683 21.4666 45.3683C24.1306 45.3683 26.2979 47.5397 26.2979 50.2087V51.9111C26.175 52.0293 26.085 52.1828 26.0509 52.3604L20.9874 78.7516C20.8862 79.2789 21.3206 79.7595 21.8199 79.7595H58.2087C58.708 79.7595 59.1424 79.2788 59.0412 78.7516L58.3453 75.1243C58.9867 75.5033 59.7336 75.7216 60.531 75.7216H65.9117C68.2897 75.7216 70.2246 73.786 70.2246 71.407C70.2246 69.3456 68.7714 67.6181 66.8365 67.1934V65.9621H72.2852V67.5084C72.2852 67.9767 72.6646 68.3565 73.1329 68.3565C73.6012 68.3565 73.9807 67.9767 73.9807 67.5084V62.7195C73.9807 60.2785 71.9979 58.2927 69.5608 58.2927C67.1237 58.2927 65.1411 60.2786 65.1411 62.7195V67.0926H60.5314C59.1478 67.0926 57.9154 67.7485 57.1256 68.7649L53.9782 52.3604C53.9441 52.1828 53.8543 52.0295 53.7313 51.9112V50.2087C53.7313 47.5397 55.8985 45.3683 58.5625 45.3683C59.0308 45.3683 59.4103 44.9885 59.4103 44.5202V39.395H70.7892L70.7894 44.5202C70.7894 44.9887 71.1688 45.3683 71.6371 45.3683C74.3011 45.3683 76.4683 47.5397 76.4683 50.2087V75.5906C76.4683 76.9875 75.3344 78.1238 73.9497 78.124L68.3453 78.0636C68.3421 78.0636 68.3392 78.0636 68.336 78.0636C67.8721 78.0636 67.4935 78.4374 67.4884 78.9025C67.4835 79.3709 67.8589 79.7546 68.327 79.7597L73.9403 79.8202C76.2691 79.8202 78.1637 77.9228 78.1637 75.5908V50.2087C78.1633 46.892 75.684 44.1445 72.4842 43.7268ZM7.34174 37.6987C6.87429 37.6987 6.49399 37.3183 6.49399 36.8506V31.6389C6.49399 31.1712 6.87429 30.7908 7.34174 30.7908H22.5169C22.9844 30.7908 23.3647 31.1712 23.3647 31.6389V36.8506C23.3647 37.3183 22.9844 37.6987 22.5169 37.6987H7.34174ZM66.8361 62.7195C66.8361 61.2139 68.0583 59.9889 69.5603 59.9889C71.0625 59.9889 72.2847 61.2139 72.2847 62.7195V64.2658H66.836V62.7195H66.8361ZM64.069 68.7889H65.9116C67.3548 68.7889 68.5289 69.9635 68.5289 71.4072C68.5289 72.8508 67.3548 74.0255 65.9116 74.0255H64.069V68.7889ZM60.5309 68.7889H62.3735V74.0255H60.5309C59.0878 74.0255 57.9137 72.8508 57.9137 71.4072C57.9137 69.9635 59.0878 68.7889 60.5309 68.7889ZM33.2668 45.4607C33.2668 41.7332 36.2938 38.7009 40.0143 38.7009C43.7348 38.7009 46.7618 41.7332 46.7618 45.4607V51.6721H33.2668V45.4607ZM57.1827 78.0632H22.8459L27.584 53.3685H31.5713V56.245C31.5713 56.7133 31.9509 57.0931 32.4191 57.0931C32.8872 57.0931 33.2668 56.7133 33.2668 56.245V53.3685H46.7618V56.245C46.7618 56.7133 47.1412 57.0931 47.6095 57.0931C48.0778 57.0931 48.4573 56.7133 48.4573 56.245V53.3685H52.4446L57.1827 78.0632ZM56.6639 36.8506V31.6389C56.6639 31.1712 57.0442 30.7908 57.5117 30.7908H72.6868C73.1543 30.7908 73.5346 31.1712 73.5346 31.6389V36.8506C73.5346 37.3183 73.1543 37.6987 72.6868 37.6987H57.5117C57.0442 37.6987 56.6639 37.3181 56.6639 36.8506Z" fill="white"/>
<path d="M43.4635 65.0721H40.8628V62.4709C40.8628 62.0026 40.4833 61.6228 40.015 61.6228C39.5469 61.6228 39.1673 62.0026 39.1673 62.4709V65.0721H36.5665C36.0984 65.0721 35.7188 65.4519 35.7188 65.9202C35.7188 66.3886 36.0984 66.7684 36.5665 66.7684H39.1673V69.3695C39.1673 69.8379 39.5469 70.2177 40.015 70.2177C40.4833 70.2177 40.8628 69.8379 40.8628 69.3695V66.7684H43.4635C43.9318 66.7684 44.3113 66.3886 44.3113 65.9202C44.3113 65.4519 43.9318 65.0721 43.4635 65.0721Z" fill="white"/>
<path d="M74.0548 16.372C73.5865 16.372 73.207 15.9922 73.207 15.5239V14.4006C73.207 13.9323 73.5865 13.5525 74.0548 13.5525C74.5231 13.5525 74.9025 13.9323 74.9025 14.4006V15.5239C74.9025 15.9922 74.5229 16.372 74.0548 16.372Z" fill="white"/>
<path d="M74.0548 21.782C73.5865 21.782 73.207 21.4022 73.207 20.9339V19.9797C73.207 19.5114 73.5865 19.1316 74.0548 19.1316C74.5231 19.1316 74.9025 19.5114 74.9025 19.9797V20.9339C74.9025 21.4022 74.5229 21.782 74.0548 21.782Z" fill="white"/>
<path d="M77.3159 18.5153H76.3634C75.8951 18.5153 75.5156 18.1355 75.5156 17.6672C75.5156 17.1989 75.8951 16.8191 76.3634 16.8191H77.3159C77.7842 16.8191 78.1637 17.1989 78.1637 17.6672C78.1637 18.1355 77.7842 18.5153 77.3159 18.5153Z" fill="white"/>
<path d="M71.7456 18.5153H70.7931C70.3248 18.5153 69.9453 18.1355 69.9453 17.6672C69.9453 17.1989 70.3248 16.8191 70.7931 16.8191H71.7456C72.2139 16.8191 72.5934 17.1989 72.5934 17.6672C72.5934 18.1355 72.2139 18.5153 71.7456 18.5153Z" fill="white"/>
<path d="M5.97276 16.372C5.50463 16.372 5.125 15.9922 5.125 15.5239V14.4006C5.125 13.9323 5.50463 13.5525 5.97276 13.5525C6.44089 13.5525 6.82051 13.9323 6.82051 14.4006V15.5239C6.82051 15.9922 6.44106 16.372 5.97276 16.372Z" fill="white"/>
<path d="M5.97276 21.782C5.50463 21.782 5.125 21.4022 5.125 20.9339V19.9797C5.125 19.5114 5.50463 19.1316 5.97276 19.1316C6.44089 19.1316 6.82051 19.5114 6.82051 19.9797V20.9339C6.82051 21.4022 6.44106 21.782 5.97276 21.782Z" fill="white"/>
<path d="M9.23406 18.5153H8.28135C7.81322 18.5153 7.43359 18.1355 7.43359 17.6672C7.43359 17.1989 7.81322 16.8191 8.28135 16.8191H9.23406C9.70219 16.8191 10.0818 17.1989 10.0818 17.6672C10.0818 18.1355 9.70219 18.5153 9.23406 18.5153Z" fill="white"/>
<path d="M3.6657 18.5153H2.71299C2.24486 18.5153 1.86523 18.1355 1.86523 17.6672C1.86523 17.1989 2.24486 16.8191 2.71299 16.8191H3.6657C4.13383 16.8191 4.51346 17.1989 4.51346 17.6672C4.51346 18.1355 4.13383 18.5153 3.6657 18.5153Z" fill="white"/>
<path d="M58.6994 26.1017C59.3014 26.1017 59.7895 25.6133 59.7895 25.0107C59.7895 24.4081 59.3014 23.9197 58.6994 23.9197C58.0974 23.9197 57.6094 24.4081 57.6094 25.0107C57.6094 25.6133 58.0974 26.1017 58.6994 26.1017Z" fill="white"/>
<path d="M16.2092 80.0627C16.8112 80.0627 17.2992 79.5742 17.2992 78.9716C17.2992 78.3691 16.8112 77.8806 16.2092 77.8806C15.6072 77.8806 15.1191 78.3691 15.1191 78.9716C15.1191 79.5742 15.6072 80.0627 16.2092 80.0627Z" fill="white"/>
<path d="M63.4689 80.0627C64.071 80.0627 64.559 79.5742 64.559 78.9716C64.559 78.3691 64.071 77.8806 63.4689 77.8806C62.8669 77.8806 62.3789 78.3691 62.3789 78.9716C62.3789 79.5742 62.8669 80.0627 63.4689 80.0627Z" fill="white"/>
<path d="M16.8068 26.3473C17.4089 26.3473 17.8969 25.8589 17.8969 25.2563C17.8969 24.6538 17.4089 24.1653 16.8068 24.1653C16.2048 24.1653 15.7168 24.6538 15.7168 25.2563C15.7168 25.8589 16.2048 26.3473 16.8068 26.3473Z" fill="white"/>
</g>
<defs>
<clipPath id="clip0_335_1628">
<rect width="80.0283" height="80.0627" rx="16" fill="white"/>
</clipPath>
</defs>
</svg>
