<svg width="80" height="80" viewBox="0 0 80 80" fill="none" xmlns="http://www.w3.org/2000/svg">
<path d="M38.9062 48.0874V53.4374C38.9062 53.7275 39.0215 54.0057 39.2266 54.2108C39.4317 54.4159 39.7099 54.5312 40 54.5312C40.2901 54.5312 40.5683 54.4159 40.7734 54.2108C40.9785 54.0057 41.0938 53.7275 41.0938 53.4374V48.0874C41.0938 47.7973 40.9785 47.5191 40.7734 47.314C40.5683 47.1089 40.2901 46.9937 40 46.9937C39.7099 46.9937 39.4317 47.1089 39.2266 47.314C39.0215 47.5191 38.9062 47.7973 38.9062 48.0874Z" fill="white"/>
<path d="M64.0625 28.125H65.4688V53.4375C65.4688 53.7276 65.584 54.0058 65.7891 54.2109C65.9942 54.416 66.2724 54.5312 66.5625 54.5312C66.8526 54.5312 67.1308 54.416 67.3359 54.2109C67.541 54.0058 67.6562 53.7276 67.6562 53.4375V27.0312C67.6562 26.7412 67.541 26.463 67.3359 26.2579C67.1308 26.0527 66.8526 25.9375 66.5625 25.9375H64.0625C63.7724 25.9375 63.4942 26.0527 63.2891 26.2579C63.084 26.463 62.9688 26.7412 62.9688 27.0312C62.9688 27.3213 63.084 27.5995 63.2891 27.8046C63.4942 28.0098 63.7724 28.125 64.0625 28.125Z" fill="white"/>
<path d="M13.4375 54.5312C13.7276 54.5312 14.0058 54.416 14.2109 54.2109C14.416 54.0058 14.5312 53.7276 14.5312 53.4375V28.125H15.9375C16.2276 28.125 16.5058 28.0098 16.7109 27.8046C16.916 27.5995 17.0312 27.3213 17.0312 27.0312C17.0312 26.7412 16.916 26.463 16.7109 26.2579C16.5058 26.0527 16.2276 25.9375 15.9375 25.9375H13.4375C13.1474 25.9375 12.8692 26.0527 12.6641 26.2579C12.459 26.463 12.3438 26.7412 12.3438 27.0312V53.4375C12.3438 53.7276 12.459 54.0058 12.6641 54.2109C12.8692 54.416 13.1474 54.5312 13.4375 54.5312Z" fill="white"/>
<path d="M29.2188 8.90625H32.9688C33.2588 8.90625 33.537 8.79102 33.7421 8.5859C33.9473 8.38078 34.0625 8.10258 34.0625 7.8125C34.0625 7.52242 33.9473 7.24422 33.7421 7.0391C33.537 6.83398 33.2588 6.71875 32.9688 6.71875H29.2188C28.9287 6.71875 28.6505 6.83398 28.4454 7.0391C28.2402 7.24422 28.125 7.52242 28.125 7.8125C28.125 8.10258 28.2402 8.38078 28.4454 8.5859C28.6505 8.79102 28.9287 8.90625 29.2188 8.90625Z" fill="white"/>
<path d="M21.3869 56.8025C21.3086 56.5942 21.1687 56.4148 20.9858 56.2881C20.8028 56.1615 20.5856 56.0937 20.3631 56.0938H6.51188C6.28938 56.0937 6.07216 56.1615 5.88922 56.2881C5.70629 56.4148 5.56636 56.5942 5.48813 56.8025L3.03875 63.3087C2.97651 63.4742 2.95532 63.6524 2.977 63.8279C2.99868 64.0033 3.06258 64.1709 3.16323 64.3163C3.26387 64.4617 3.39826 64.5805 3.55488 64.6626C3.7115 64.7446 3.88568 64.7875 4.0625 64.7875H4.45625V75.9375C4.45625 76.2276 4.57148 76.5058 4.7766 76.7109C4.98172 76.916 5.25992 77.0312 5.55 77.0312H21.325C21.6151 77.0312 21.8933 76.916 22.0984 76.7109C22.3035 76.5058 22.4187 76.2276 22.4187 75.9375V64.7875H22.8125C22.9893 64.7875 23.1635 64.7446 23.3201 64.6626C23.4767 64.5805 23.6111 64.4617 23.7118 64.3163C23.8124 64.1709 23.8763 64.0033 23.898 63.8279C23.9197 63.6524 23.8985 63.4742 23.8363 63.3087L21.3869 56.8025ZM7.26875 58.2813H19.6063L21.2313 62.6H5.64313L7.26875 58.2813ZM11.7188 74.8438V69.5312H15.1562V74.8438H11.7188ZM20.2312 74.8438H17.3438V68.4375C17.3438 68.1474 17.2285 67.8692 17.0234 67.6641C16.8183 67.459 16.5401 67.3438 16.25 67.3438H10.625C10.3349 67.3438 10.0567 67.459 9.8516 67.6641C9.64648 67.8692 9.53125 68.1474 9.53125 68.4375V74.8438H6.64375V64.7875H20.2312V74.8438Z" fill="white"/>
<path d="M48.4181 56.7088C48.3399 56.5005 48.2 56.321 48.017 56.1944C47.8341 56.0677 47.6169 55.9999 47.3944 56H33.5431C33.3206 55.9999 33.1034 56.0677 32.9205 56.1944C32.7375 56.321 32.5976 56.5005 32.5194 56.7088L30.07 63.215C30.0078 63.3805 29.9866 63.5586 30.0083 63.7341C30.0299 63.9096 30.0938 64.0772 30.1945 64.2226C30.2951 64.368 30.4295 64.4868 30.5861 64.5688C30.7428 64.6509 30.9169 64.6938 31.0938 64.6938H31.4875V75.8438C31.4875 76.1338 31.6027 76.412 31.8079 76.6171C32.013 76.8223 32.2912 76.9375 32.5813 76.9375H48.3563C48.6463 76.9375 48.9245 76.8223 49.1297 76.6171C49.3348 76.412 49.45 76.1338 49.45 75.8438V64.6938H49.8438C50.0206 64.6938 50.1947 64.6509 50.3514 64.5688C50.508 64.4868 50.6424 64.368 50.743 64.2226C50.8437 64.0772 50.9076 63.9096 50.9292 63.7341C50.9509 63.5586 50.9297 63.3805 50.8675 63.215L48.4181 56.7088ZM34.3 58.1875H46.6375L48.2625 62.5063H32.6744L34.3 58.1875ZM38.75 74.75V69.4375H42.1875V74.75H38.75ZM47.2625 74.75H44.375V68.3438C44.375 68.0537 44.2598 67.7755 44.0546 67.5704C43.8495 67.3652 43.5713 67.25 43.2813 67.25H37.6563C37.3662 67.25 37.088 67.3652 36.8829 67.5704C36.6777 67.7755 36.5625 68.0537 36.5625 68.3438V74.75H33.675V64.6938H47.2625V74.75Z" fill="white"/>
<path d="M76.9613 63.3087L74.5119 56.8025C74.4336 56.5942 74.2937 56.4148 74.1108 56.2881C73.9278 56.1615 73.7106 56.0937 73.4881 56.0938H59.6369C59.4144 56.0937 59.1972 56.1615 59.0142 56.2881C58.8313 56.4148 58.6914 56.5942 58.6131 56.8025L56.1637 63.3087C56.1015 63.4742 56.0803 63.6524 56.102 63.8279C56.1237 64.0033 56.1876 64.1709 56.2882 64.3163C56.3889 64.4617 56.5233 64.5805 56.6799 64.6626C56.8365 64.7446 57.0107 64.7875 57.1875 64.7875H57.5812V75.9375C57.5812 76.2276 57.6965 76.5058 57.9016 76.7109C58.1067 76.916 58.3849 77.0312 58.675 77.0312H74.45C74.7401 77.0312 75.0183 76.916 75.2234 76.7109C75.4285 76.5058 75.5438 76.2276 75.5438 75.9375V64.7875H75.9375C76.1143 64.7875 76.2885 64.7446 76.4451 64.6626C76.6017 64.5805 76.7361 64.4617 76.8368 64.3163C76.9374 64.1709 77.0013 64.0033 77.023 63.8279C77.0447 63.6524 77.0235 63.4742 76.9613 63.3087ZM60.3937 58.2813H72.7313L74.3562 62.6H58.7681L60.3937 58.2813ZM64.8437 74.8438V69.5312H68.2812V74.8438H64.8437ZM73.3563 74.8438H70.4687V68.4375C70.4687 68.2939 70.4405 68.1516 70.3855 68.0189C70.3305 67.8862 70.25 67.7657 70.1484 67.6641C70.0468 67.5625 69.9263 67.482 69.7936 67.427C69.6609 67.372 69.5186 67.3438 69.375 67.3438H63.75C63.4599 67.3438 63.1817 67.459 62.9766 67.6641C62.7715 67.8692 62.6562 68.1474 62.6562 68.4375V74.8438H59.7687V64.7875H73.3563V74.8438Z" fill="white"/>
<path d="M49.375 25.9556C49.3748 25.6655 49.2595 25.3874 49.0545 25.1824C48.8494 24.9773 48.5713 24.862 48.2812 24.8618H31.7188C31.4287 24.8618 31.1505 24.9771 30.9454 25.1822C30.7402 25.3873 30.625 25.6655 30.625 25.9556C30.625 26.2456 30.7402 26.5238 30.9454 26.729C31.1505 26.9341 31.4287 27.0493 31.7188 27.0493H48.2812C48.5713 27.0493 48.8495 26.9341 49.0546 26.729C49.2598 26.5238 49.375 26.2456 49.375 25.9556Z" fill="white"/>
<path d="M55.7812 29.3945H48.2812C47.9912 29.3945 47.713 29.5098 47.5079 29.7149C47.3027 29.92 47.1875 30.1982 47.1875 30.4883V36.1133C47.1875 36.4034 47.3027 36.6816 47.5079 36.8867C47.713 37.0918 47.9912 37.207 48.2812 37.207H55.7812C56.0713 37.207 56.3495 37.0918 56.5546 36.8867C56.7598 36.6816 56.875 36.4034 56.875 36.1133V30.4883C56.875 30.1982 56.7598 29.92 56.5546 29.7149C56.3495 29.5098 56.0713 29.3945 55.7812 29.3945ZM54.6875 35.0195H49.375V31.582H54.6875V35.0195Z" fill="white"/>
<path d="M31.7188 29.3945H24.2188C23.9287 29.3945 23.6505 29.5098 23.4454 29.7149C23.2402 29.92 23.125 30.1982 23.125 30.4883V36.1133C23.125 36.4034 23.2402 36.6816 23.4454 36.8867C23.6505 37.0918 23.9287 37.207 24.2188 37.207H31.7188C32.0088 37.207 32.287 37.0918 32.4921 36.8867C32.6973 36.6816 32.8125 36.4034 32.8125 36.1133V30.4883C32.8125 30.1982 32.6973 29.92 32.4921 29.7149C32.287 29.5098 32.0088 29.3945 31.7188 29.3945ZM30.625 35.0195H25.3125V31.582H30.625V35.0195Z" fill="white"/>
<path d="M18.5938 21.7831V39.4962H17.8125C17.5225 39.4964 17.2444 39.6117 17.0393 39.8168C16.8342 40.0219 16.7189 40.3 16.7188 40.59V44.34C16.7188 44.6301 16.834 44.9083 17.0391 45.1134C17.2442 45.3185 17.5224 45.4337 17.8125 45.4337H62.1875C62.4776 45.4337 62.7558 45.3185 62.9609 45.1134C63.166 44.9083 63.2812 44.6301 63.2812 44.34V40.59C63.2811 40.3 63.1658 40.0219 62.9607 39.8168C62.7556 39.6117 62.4775 39.4964 62.1875 39.4962H61.4062V21.7831C61.9835 21.393 62.4563 20.8672 62.7832 20.2519C63.1101 19.6366 63.2811 18.9505 63.2812 18.2537V15.7981C63.2812 15.6682 63.2582 15.5393 63.2131 15.4175L58.8569 3.68188C58.7792 3.47247 58.6393 3.29187 58.456 3.16438C58.2726 3.03688 58.0546 2.96861 57.8312 2.96875H22.1688C21.9454 2.96861 21.7274 3.03688 21.544 3.16438C21.3607 3.29187 21.2208 3.47247 21.1431 3.68188L16.7869 15.4175C16.7418 15.5393 16.7188 15.6682 16.7188 15.7981V18.2537C16.7189 18.9505 16.8899 19.6366 17.2168 20.2519C17.5437 20.8672 18.0165 21.393 18.5938 21.7831ZM23.0581 16.8919V18.2537C23.0487 18.7981 22.8258 19.3169 22.4375 19.6985C22.0492 20.0801 21.5266 20.294 20.9822 20.294C20.4378 20.294 19.9151 20.0801 19.5268 19.6985C19.1386 19.3169 18.9157 18.7981 18.9062 18.2537V16.8919H23.0581ZM29.3975 16.8919V18.2537C29.3881 18.7981 29.1652 19.3169 28.7769 19.6985C28.3886 20.0801 27.866 20.294 27.3216 20.294C26.7771 20.294 26.2545 20.0801 25.8662 19.6985C25.4779 19.3169 25.2551 18.7981 25.2456 18.2537V16.8919H29.3975ZM35.7369 16.8919V18.2537C35.7274 18.7981 35.5046 19.3169 35.1163 19.6985C34.728 20.0801 34.2054 20.294 33.6609 20.294C33.1165 20.294 32.5939 20.0801 32.2056 19.6985C31.8173 19.3169 31.5944 18.7981 31.585 18.2537V16.8919H35.7369ZM42.0756 16.8919V18.2537C42.0756 18.8042 41.8569 19.3322 41.4677 19.7214C41.0784 20.1107 40.5505 20.3294 40 20.3294C39.4495 20.3294 38.9216 20.1107 38.5323 19.7214C38.1431 19.3322 37.9244 18.8042 37.9244 18.2537V16.8919H42.0756ZM48.415 16.8919V18.2537C48.4056 18.7981 48.1827 19.3169 47.7944 19.6985C47.4061 20.0801 46.8835 20.294 46.3391 20.294C45.7946 20.294 45.272 20.0801 44.8837 19.6985C44.4954 19.3169 44.2726 18.7981 44.2631 18.2537V16.8919H48.415ZM54.7544 16.8919V18.2537C54.7449 18.7981 54.5221 19.3169 54.1338 19.6985C53.7455 20.0801 53.2229 20.294 52.6784 20.294C52.134 20.294 51.6114 20.0801 51.2231 19.6985C50.8348 19.3169 50.6119 18.7981 50.6025 18.2537V16.8919H54.7544ZM61.0938 16.8919V18.2537C61.0843 18.7981 60.8614 19.3169 60.4732 19.6985C60.0849 20.0801 59.5622 20.294 59.0178 20.294C58.4734 20.294 57.9508 20.0801 57.5625 19.6985C57.1742 19.3169 56.9513 18.7981 56.9419 18.2537V16.8919H61.0938ZM61.0938 43.2462H18.9062V41.6837H61.0938V43.2462ZM42.6562 39.4962H37.3438V31.5812H42.6562V39.4962ZM59.2188 39.4962H44.8438V30.4875C44.8438 30.1974 44.7285 29.9192 44.5234 29.7141C44.3183 29.509 44.0401 29.3937 43.75 29.3937H36.25C35.9599 29.3937 35.6817 29.509 35.4766 29.7141C35.2715 29.9192 35.1562 30.1974 35.1562 30.4875V39.4962H20.7812V22.5069C20.8481 22.5069 20.9144 22.5169 20.9819 22.5169C21.5806 22.5165 22.1725 22.3897 22.7188 22.1447C23.2651 21.8996 23.7535 21.5419 24.1519 21.095C24.55 21.5422 25.0383 21.9001 25.5845 22.1452C26.1308 22.3903 26.7228 22.517 27.3216 22.517C27.9203 22.517 28.5123 22.3903 29.0586 22.1452C29.6049 21.9001 30.0931 21.5422 30.4912 21.095C30.8894 21.5422 31.3776 21.9001 31.9239 22.1452C32.4702 22.3903 33.0622 22.517 33.6609 22.517C34.2597 22.517 34.8517 22.3903 35.398 22.1452C35.9442 21.9001 36.4325 21.5422 36.8306 21.095C37.2287 21.5422 37.7169 21.9001 38.2631 22.1452C38.8094 22.3902 39.4013 22.5169 40 22.5169C40.5987 22.5169 41.1906 22.3902 41.7369 22.1452C42.2831 21.9001 42.7713 21.5422 43.1694 21.095C43.5675 21.5422 44.0558 21.9001 44.602 22.1452C45.1483 22.3903 45.7403 22.517 46.3391 22.517C46.9378 22.517 47.5298 22.3903 48.0761 22.1452C48.6224 21.9001 49.1106 21.5422 49.5087 21.095C49.9069 21.5422 50.3951 21.9001 50.9414 22.1452C51.4877 22.3903 52.0797 22.517 52.6784 22.517C53.2772 22.517 53.8692 22.3903 54.4155 22.1452C54.9618 21.9001 55.45 21.5422 55.8481 21.095C56.2465 21.5419 56.7349 21.8996 57.2812 22.1447C57.8275 22.3897 58.4194 22.5165 59.0181 22.5169C59.0856 22.5169 59.1519 22.51 59.2188 22.5069V39.4962ZM22.9294 5.15625H57.0706L60.615 14.7044H19.385L22.9294 5.15625Z" fill="white"/>
</svg>
