<svg width="40" height="40" viewBox="0 0 40 40" fill="none" xmlns="http://www.w3.org/2000/svg">
<rect width="40" height="40" rx="4" fill="white"/>
<path d="M16.125 26H13.2188V16.6562H16.125V26ZM14.6562 15.4062C13.75 15.4062 13 14.625 13 13.6875C13 12.7812 13.75 12.0312 14.6562 12.0312C15.5938 12.0312 16.3438 12.7812 16.3438 13.6875C16.3438 14.625 15.5938 15.4062 14.6562 15.4062ZM26.9688 26H24.0938V21.4688C24.0938 20.375 24.0625 19 22.5625 19C21.0625 19 20.8438 20.1562 20.8438 21.375V26H17.9375V16.6562H20.7188V17.9375H20.75C21.1562 17.2188 22.0938 16.4375 23.5 16.4375C26.4375 16.4375 27 18.375 27 20.875V26H26.9688Z" fill="#253746"/>
</svg>
