<svg width="24" height="24" viewBox="0 0 24 24" fill="none" xmlns="http://www.w3.org/2000/svg">
<path d="M11.7184 23.7125C13.4841 23.7378 15.2313 23.3503 16.8208 22.581C16.9261 22.5397 17.0218 22.4773 17.1018 22.3974C17.1819 22.3175 17.2446 22.222 17.286 22.1168C17.3275 22.0116 17.3468 21.899 17.3428 21.786C17.3388 21.673 17.3115 21.562 17.2627 21.46C17.2139 21.3581 17.1445 21.2672 17.059 21.1933C16.9735 21.1193 16.8736 21.0637 16.7657 21.0301C16.6577 20.9965 16.544 20.9854 16.4316 20.9977C16.3192 21.01 16.2105 21.0454 16.1124 21.1015C14.5997 21.8286 12.9266 22.1579 11.2512 22.0582C9.57583 21.9585 7.95355 21.4332 6.53774 20.5319C5.12194 19.6306 3.9594 18.3831 3.16004 16.9073C2.36068 15.4315 1.95092 13.7763 1.96948 12.098C2.01094 8.0851 4.21165 3.63391 7.81921 3.11194C8.20265 3.0245 8.60063 3.02248 8.98493 3.10605C9.36924 3.18961 9.73045 3.3567 10.0429 3.59547C10.7504 4.39363 11.12 5.43545 11.0738 6.50101C9.70296 6.68444 8.44395 7.35531 7.52714 8.39089C6.61033 9.42647 6.09702 10.7575 6.08111 12.1405L6.03013 17.0745C6.02788 17.2926 6.11235 17.5026 6.26498 17.6584C6.4176 17.8142 6.62587 17.903 6.84396 17.9053L9.31093 17.9308C9.52903 17.933 9.73908 17.8486 9.89489 17.6959C10.0507 17.5433 10.1395 17.335 10.1417 17.1169C10.144 16.8989 10.0595 16.6888 9.90691 16.533C9.75429 16.3772 9.54602 16.2884 9.32792 16.2861L7.68328 16.2691L7.72576 12.1575C7.73702 11.067 8.18101 10.0257 8.96006 9.2626C9.7391 8.49949 10.7893 8.0771 11.8798 8.08837C12.9703 8.09964 14.0116 8.54363 14.7747 9.32267C15.5378 10.1017 15.9602 11.152 15.949 12.2425L15.9065 16.3541L14.2618 16.3371C14.0437 16.3348 13.8337 16.4193 13.6779 16.5719C13.5221 16.7246 13.4333 16.9328 13.431 17.1509C13.4288 17.369 13.5132 17.5791 13.6659 17.7349C13.8185 17.8907 14.0267 17.9795 14.2448 17.9818L16.7118 18.0072C16.9299 18.0095 17.14 17.925 17.2958 17.7724C17.4516 17.6198 17.5404 17.4115 17.5426 17.1934L17.5936 12.2595C17.6063 10.8764 17.1206 9.53506 16.2254 8.48076C15.3301 7.42646 14.0853 6.72972 12.7185 6.518C12.6311 4.62555 12.111 3.22208 11.1656 2.3899C10.4279 1.7604 9.47942 1.43329 8.51051 1.47426C8.20807 1.47085 7.90572 1.48695 7.60536 1.52248C2.94403 2.1487 0.372836 7.43491 0.324834 12.081C0.293288 15.1344 1.47596 18.0752 3.61268 20.2565C5.74939 22.4378 8.66512 23.681 11.7184 23.7125Z" fill="#253746"/>
<path d="M19.2898 7.34251C19.6427 7.34084 19.993 7.2834 20.3278 7.17231C21.4359 9.04241 21.8955 11.226 21.6352 13.3841C21.375 15.5422 20.4095 17.554 18.8887 19.1071C18.8038 19.1818 18.7352 19.2733 18.6873 19.3758C18.6394 19.4783 18.6131 19.5896 18.6101 19.7027C18.6072 19.8158 18.6276 19.9282 18.6701 20.0331C18.7126 20.1379 18.7763 20.2329 18.8571 20.312C18.938 20.3911 19.0343 20.4527 19.1401 20.4929C19.2458 20.5331 19.3587 20.551 19.4717 20.5456C19.5847 20.5402 19.6954 20.5115 19.7968 20.4613C19.8982 20.4112 19.9882 20.3406 20.0611 20.2541C21.8413 18.4367 22.9695 16.0809 23.2694 13.5546C23.5692 11.0283 23.0239 8.47387 21.7186 6.29025C22.2321 5.73674 22.5395 5.02344 22.5893 4.27008C22.6391 3.51671 22.4283 2.76915 21.9921 2.15286C21.556 1.53657 20.9211 1.08907 20.1941 0.885472C19.467 0.681874 18.6921 0.734574 17.9993 1.03472C17.3065 1.33487 16.7381 1.8642 16.3894 2.53386C16.0407 3.20352 15.933 3.97275 16.0843 4.71243C16.2356 5.45212 16.6368 6.11723 17.2205 6.59613C17.8042 7.07503 18.5348 7.33857 19.2898 7.34251ZM19.3408 2.40857C19.6661 2.41193 19.9831 2.51167 20.2517 2.69518C20.5203 2.87869 20.7284 3.13773 20.8498 3.43953C20.9712 3.74134 21.0003 4.07236 20.9336 4.39074C20.8668 4.70911 20.7071 5.00054 20.4748 5.22817C20.2424 5.45581 19.9477 5.60942 19.628 5.66958C19.3083 5.72974 18.978 5.69376 18.6787 5.56617C18.3795 5.43859 18.1248 5.22514 17.9469 4.95281C17.769 4.68048 17.6758 4.36151 17.6792 4.03622C17.6837 3.60004 17.8613 3.1835 18.1729 2.87826C18.4845 2.57302 18.9046 2.40406 19.3408 2.40857Z" fill="#253746"/>
</svg>
