<svg width="48" height="48" viewBox="0 0 48 48" fill="none" xmlns="http://www.w3.org/2000/svg">
<path d="M41.5481 36C43.0467 36 44.2387 35.0569 45.3089 33.7383C47.4998 31.0389 43.9027 28.8817 42.5307 27.8252C41.1361 26.7512 39.5788 26.1428 38 26M36 22C38.7614 22 41 19.7614 41 17C41 14.2386 38.7614 12 36 12" stroke="white" stroke-width="1.5" stroke-linecap="round"/>
<path d="M6.45192 36C4.95331 36 3.76134 35.0569 2.69109 33.7383C0.500177 31.0389 4.09734 28.8817 5.46929 27.8252C6.86395 26.7512 8.42116 26.1428 10 26M11 22C8.23858 22 6 19.7614 6 17C6 14.2386 8.23858 12 11 12" stroke="white" stroke-width="1.5" stroke-linecap="round"/>
<path d="M16.1676 30.2224C14.1241 31.486 8.76597 34.0662 12.0294 37.2948C13.6236 38.872 15.399 40 17.6313 40H30.3687C32.601 40 34.3764 38.872 35.9706 37.2948C39.234 34.0662 33.8759 31.486 31.8324 30.2224C27.0403 27.2592 20.9597 27.2592 16.1676 30.2224Z" stroke="white" stroke-width="1.5" stroke-linecap="round" stroke-linejoin="round"/>
<path d="M31 15C31 18.866 27.866 22 24 22C20.134 22 17 18.866 17 15C17 11.134 20.134 8 24 8C27.866 8 31 11.134 31 15Z" stroke="white" stroke-width="1.5"/>
</svg>
