<svg width="56" height="56" viewBox="0 0 56 56" fill="none" xmlns="http://www.w3.org/2000/svg">
<path d="M15.3438 1.6272H15.0858C7.66558 1.6272 1.62891 7.66387 1.62891 15.0843V40.668C1.62891 48.088 7.66558 54.1251 15.0858 54.1251H15.3438C22.7638 54.1251 28.8009 48.088 28.8009 40.668V15.0843C28.8005 7.66387 22.7638 1.6272 15.3438 1.6272ZM27.2627 27.1073H15.1376C14.713 27.1073 14.3686 27.4516 14.3686 27.8763C14.3686 28.3007 14.713 28.6454 15.1376 28.6454H27.2627V40.668C27.2627 47.2397 21.9159 52.5868 15.3438 52.5868H15.0858C8.51387 52.5868 3.16714 47.2397 3.16714 40.668V28.6454H11.2021C11.6265 28.6454 11.9711 28.3007 11.9711 27.8763C11.9711 27.4516 11.6265 27.1073 11.2021 27.1073H3.16714V15.0843C3.16714 8.51237 8.51387 3.16522 15.0858 3.16522H15.3438C21.9159 3.16522 27.2627 8.51237 27.2627 15.0843V27.1073Z" fill="#253746"/>
<path d="M50.7361 25.786C55.2601 21.2617 55.2609 13.938 50.7361 9.41282C46.2112 4.8883 38.8877 4.88727 34.3624 9.41282C29.8376 13.9373 29.8374 21.2613 34.3624 25.786C38.8867 30.3107 46.2102 30.3113 50.7361 25.786ZM34.9266 11.0644L42.0057 18.1433C42.3056 18.4432 42.7926 18.4432 43.0928 18.1433C43.3933 17.8428 43.3933 17.3558 43.0928 17.0559L36.014 9.97705C39.95 6.59167 45.9004 6.75209 49.6482 10.5C53.3932 14.2452 53.5591 20.1958 50.1717 24.1342L45.4381 19.4012C45.1378 19.1005 44.651 19.1005 44.3503 19.4012C44.0502 19.7012 44.0502 20.188 44.3503 20.4885L49.0839 25.2217C45.1475 28.6073 39.1971 28.4457 35.45 24.6984C31.7051 20.9536 31.5392 15.0034 34.9266 11.0644Z" fill="#253746"/>
<path d="M50.736 33.1835C46.2111 28.6598 38.8876 28.6585 34.3622 33.1835C29.8379 37.7082 29.8373 45.0319 34.3622 49.557C38.8865 54.0816 46.2102 54.0824 50.736 49.557C51.0359 49.2567 51.0359 48.7697 50.736 48.4696C50.4355 48.1696 49.9481 48.1692 49.648 48.4696C45.9021 52.2157 39.9513 52.3792 36.014 48.993L40.7477 44.2594L50.1709 34.8363C52.8395 37.9386 53.3715 42.3336 51.4557 46.0094C51.2593 46.3857 51.4056 46.8503 51.7823 47.0464C52.159 47.2426 52.6236 47.0968 52.82 46.7201C55.1266 42.2933 54.3555 36.8042 50.736 33.1835ZM35.4498 34.2715C39.1944 30.5264 45.1448 30.3613 49.0838 33.7483L34.9265 47.9054C31.5409 43.969 31.7025 38.0185 35.4498 34.2715Z" fill="#253746"/>
</svg>
