<svg width="56" height="56" viewBox="0 0 56 56" fill="none" xmlns="http://www.w3.org/2000/svg">
<path d="M42.6211 31.9892C42.6211 33.8027 44.0963 35.2777 45.9091 35.2777C47.7224 35.2777 49.198 33.8027 49.198 31.9892C49.198 30.176 47.7224 28.7008 45.9091 28.7008C44.0963 28.7008 42.6211 30.176 42.6211 31.9892ZM47.6597 31.9892C47.6597 32.954 46.8743 33.7392 45.9091 33.7392C44.9442 33.7392 44.1593 32.954 44.1593 31.9892C44.1593 31.0245 44.9442 30.2395 45.9091 30.2395C46.8743 30.2395 47.6597 31.0245 47.6597 31.9892Z" fill="#253746"/>
<path d="M52.7788 27.5089C52.5446 27.1542 52.0673 27.0574 51.7128 27.2918C51.3587 27.5264 51.2615 28.0035 51.4959 28.3576C54.3285 32.6379 51.4199 38.6191 45.8698 38.6191C40.1044 38.6191 37.1074 31.4895 41.2738 27.3228C43.4935 25.1033 47.0015 24.7473 49.6154 26.4768C49.9695 26.7115 50.4471 26.6142 50.6815 26.2601C50.9154 25.906 50.8187 25.4288 50.4646 25.1943C45.0671 21.622 37.7937 25.5028 37.7937 32.0108C37.7937 36.299 41.0606 39.7125 45.1006 40.1336V44.45C45.1006 48.9384 41.4496 52.5898 36.9616 52.5898H28.5861C24.0981 52.5898 20.4469 48.9384 20.4469 44.45V41.6096C21.6547 41.2727 22.5436 40.1633 22.5436 38.8494V35.6333H24.5602C30.7325 35.6333 35.9609 31.0151 36.7229 24.8905L37.7086 16.969C37.8719 15.6553 37.1222 14.4525 35.9747 13.9725V9.67389C35.9747 7.12899 33.904 5.05877 31.3593 5.05877H29.6165V3.8613C29.6165 2.65581 28.636 1.67523 27.4307 1.67523H26.3866C24.1139 1.67523 22.2651 3.52424 22.2651 5.79698V5.85839C22.2651 8.13093 24.1139 9.98034 26.3866 9.98034H27.4307C28.636 9.98034 29.6165 8.99936 29.6165 7.79469V6.5968H31.3593C33.0559 6.5968 34.4358 7.97729 34.4358 9.67389V13.7823C33.1991 13.97 32.1828 14.9598 32.0207 16.261L31.0352 24.1825C30.6292 27.4432 27.846 29.9022 24.5602 29.9022H21.2301C20.8053 29.9022 20.4611 30.2465 20.4611 30.6712C20.4611 31.0956 20.8053 31.4402 21.2301 31.4402H24.5602C28.6206 31.4402 32.0606 28.402 32.5613 24.3729L33.5469 16.4514C33.6374 15.7247 34.3027 15.2069 35.0284 15.2979C35.7561 15.3885 36.2721 16.0509 36.1815 16.7788L35.1962 24.7009C34.5299 30.0561 29.9573 34.095 24.5602 34.095H21.7746C21.3494 34.095 21.0056 34.4393 21.0056 34.8642V38.8494C21.0056 39.5819 20.4099 40.1771 19.6777 40.1771C18.9458 40.1771 18.35 39.5819 18.35 38.8494V34.8642C18.35 34.4393 18.0061 34.095 17.581 34.095H14.7956C9.39807 34.095 4.82568 30.0561 4.15937 24.7009L3.17366 16.7788C3.08287 16.0528 3.60048 15.3885 4.32718 15.2979C5.05737 15.2073 5.71794 15.7247 5.80811 16.4514L6.79423 24.3729C7.2952 28.402 10.7348 31.4402 14.7947 31.4402H18.1255C18.55 31.4402 18.8945 31.0956 18.8945 30.6712C18.8945 30.2465 18.55 29.9022 18.1255 29.9022H14.7947C11.5094 29.9022 8.7258 27.4432 8.32014 24.1825L7.33463 16.2614C7.17401 14.9676 6.1844 14.0068 5.0015 13.7946V9.67389C5.0015 7.97729 6.38137 6.5968 8.07777 6.5968H9.82058V7.79407C9.82058 8.99936 10.8014 9.98014 12.0064 9.98014H13.0507C15.3232 9.98014 17.1722 8.13093 17.1722 5.85839V5.79698C17.1722 3.52424 15.3232 1.67523 13.0507 1.67523H12.0064C10.8014 1.67523 9.82058 2.65581 9.82058 3.8613V5.05857H8.07838C5.53369 5.05857 3.46347 7.12879 3.46347 9.67348V13.9398C2.26251 14.402 1.48137 15.6366 1.64713 16.969L2.63284 24.8905C3.39467 31.0151 8.62331 35.6333 14.7956 35.6333H16.812V38.85C16.812 40.1637 17.7007 41.2727 18.9087 41.6102V44.4508C18.9087 49.7867 23.2502 54.1278 28.5861 54.1278H36.9616C42.2975 54.1278 46.6388 49.7867 46.6388 44.4508V40.1496C48.5652 39.9927 50.3559 39.169 51.7378 37.7875C54.4725 35.0518 54.9102 30.7298 52.7788 27.5089ZM28.0781 7.79407C28.0781 8.15126 27.7879 8.44211 27.4307 8.44211H26.3866C24.962 8.44211 23.8031 7.28304 23.8031 5.85839V5.79698C23.8031 4.37253 24.962 3.21326 26.3866 3.21326H27.4307C27.7879 3.21326 28.0781 3.50411 28.0781 3.8613V7.79407ZM11.3592 3.8613C11.3592 3.50431 11.6495 3.21408 12.0064 3.21408H13.0509C14.4753 3.21408 15.6342 4.37253 15.6342 5.79698V5.85839C15.6342 7.28304 14.4753 8.44211 13.0509 8.44211H12.0064C11.6495 8.44211 11.3592 8.15126 11.3592 7.79469V3.8613Z" fill="#253746"/>
</svg>
