<svg width="56" height="56" viewBox="0 0 56 56" fill="none" xmlns="http://www.w3.org/2000/svg">
<path d="M25.4668 19.6951C25.4668 18.1681 24.2246 16.9265 22.6982 16.9265C21.1716 16.9265 19.9297 18.1681 19.9297 19.6951C19.9297 21.2213 21.1716 22.4636 22.6982 22.4636C24.2246 22.4636 25.4668 21.2213 25.4668 19.6951ZM21.4678 19.6951C21.4678 19.0165 22.0196 18.4646 22.6982 18.4646C23.3771 18.4646 23.9287 19.0165 23.9287 19.6951C23.9287 20.3731 23.3771 20.9255 22.6982 20.9255C22.0196 20.9255 21.4678 20.3731 21.4678 19.6951Z" fill="#253746"/>
<path d="M32.8945 26.3046C32.8945 27.8314 34.1365 29.0731 35.6631 29.0731C37.1891 29.0731 38.4316 27.8314 38.4316 26.3046C38.4316 24.778 37.1891 23.536 35.6631 23.536C34.1365 23.536 32.8945 24.778 32.8945 26.3046ZM35.6631 25.0741C36.3413 25.0741 36.8936 25.6258 36.8936 26.3046C36.8936 26.9828 36.3413 27.535 35.6631 27.535C34.9843 27.535 34.4326 26.9828 34.4326 26.3046C34.4326 25.6258 34.9843 25.0741 35.6631 25.0741Z" fill="#253746"/>
<path d="M18.7773 33.9041C18.7773 36.0675 20.5371 37.8273 22.7001 37.8273C24.863 37.8273 26.6228 36.0675 26.6228 33.9041C26.6228 31.7412 24.863 29.9818 22.7001 29.9818C20.5371 29.9818 18.7773 31.7412 18.7773 33.9041ZM22.7001 31.5199C24.015 31.5199 25.0847 32.5896 25.0847 33.9041C25.0847 35.2193 24.015 36.2892 22.7001 36.2892C21.3849 36.2892 20.3154 35.2193 20.3154 33.9041C20.3154 32.5894 21.3849 31.5199 22.7001 31.5199Z" fill="#253746"/>
<path d="M51.3564 25.1079C50.1024 25.1079 49.0827 25.9617 48.7438 27.1074H45.3743C44.9398 25.6715 44.0981 24.9861 43.9226 24.2134C43.6917 23.198 44.4652 21.5508 43.8133 20.2C43.158 18.8409 41.3685 18.4004 40.742 17.6158C40.5406 17.3635 40.3991 16.9837 40.2617 16.5773L46.1879 10.6513C46.6842 10.9497 47.2256 11.1608 47.8195 11.1608C48.6822 11.1608 49.4927 10.8248 50.1028 10.2147C51.3616 8.95616 51.3616 6.90743 50.1028 5.64846C48.8412 4.38702 46.7986 4.38682 45.5367 5.64846C44.4703 6.71466 44.3633 8.32165 45.1028 9.56114L39.6485 15.0154C39.175 14.1044 38.5756 13.6026 37.2136 13.4057C36.793 13.345 36.4034 13.6365 36.3423 14.0567C36.2816 14.4771 36.573 14.8669 36.994 14.928C38.0854 15.0859 38.2481 15.3878 38.6949 16.7567C39.257 18.4784 39.5768 18.8737 41.12 19.7958C42.608 20.6854 42.6734 20.8538 42.4499 22.5323C42.2069 24.3567 42.3357 24.8485 43.3041 26.3154C44.2628 27.77 44.2628 27.9835 43.3041 29.4373C42.3324 30.9106 42.2081 31.4032 42.4499 33.221C42.6738 34.9024 42.6049 35.0696 41.1192 35.9576C39.577 36.879 39.257 37.2744 38.6949 38.9968C38.1607 40.6329 38.0161 40.7412 36.3164 40.8989C34.5074 41.0663 34.0513 41.2923 32.8186 42.5812C31.6177 43.8367 31.4366 43.8633 29.8612 43.2752C29.2279 43.0391 28.5737 42.7953 27.8752 42.7953C26.5022 42.7953 25.114 43.8131 24.2804 43.6238C23.8319 43.5221 23.3951 43.065 22.9322 42.5812C21.7028 41.2958 21.2495 41.0671 19.4342 40.8985C17.7339 40.7412 17.5893 40.6323 17.0555 38.9962C16.4928 37.2742 16.1734 36.879 14.6306 35.9572C13.1428 35.0677 13.077 34.9 13.3003 33.2208C13.5423 31.405 13.4184 30.911 12.4464 29.4373C11.4876 27.9835 11.4876 27.7694 12.4464 26.3152C13.4182 24.8423 13.5425 24.3491 13.3003 22.5317C13.077 20.8527 13.1428 20.6846 14.6311 19.7954C15.1997 19.4555 15.7879 19.1042 16.2106 18.5747C16.6353 18.0426 16.849 17.3888 17.0555 16.7561C17.2616 16.1255 17.456 15.5297 17.8067 15.2498C18.1533 14.9725 18.7753 14.9151 19.4342 14.854C21.2452 14.686 21.7003 14.4598 22.9322 13.1717C24.1307 11.9185 24.3101 11.8882 25.8894 12.4776C27.609 13.1192 28.141 13.1192 29.8612 12.4776C31.7998 11.7542 31.6651 12.0742 33.2679 13.6293C33.5723 13.9246 34.0593 13.9178 34.3549 13.6127C34.651 13.3079 34.6438 12.8209 34.3384 12.5249C34.2041 12.3951 34.0716 12.2557 33.9299 12.1082C32.2618 10.365 31.4446 10.2455 29.3233 11.0369C29.0887 11.124 28.8631 11.2046 28.6442 11.2723V7.00792C29.7896 6.66852 30.6436 5.64928 30.6436 4.39502C30.6436 2.86842 29.4014 1.62646 27.875 1.62646C26.3484 1.62646 25.1064 2.86842 25.1064 4.39502C25.1064 5.64928 25.9602 6.66852 27.106 7.00792V11.2723C26.8875 11.2046 26.662 11.124 26.4267 11.0369C24.306 10.2455 23.4884 10.3648 21.8203 12.1084C21.4431 12.5028 21.0869 12.8752 20.7332 13.0462C20.3665 13.223 19.8446 13.2712 19.2919 13.3225C17.7448 13.466 16.8022 13.6668 16.1017 15.0154L11.8002 10.7139C12.6065 9.40139 12.5019 7.68406 11.3662 6.54793C10.0377 5.21902 7.87537 5.21902 6.54647 6.54793C3.79473 9.30008 7.15124 13.989 10.7124 11.8016L15.4883 16.5773C15.1249 17.6517 14.9879 17.7903 13.8415 18.4751C11.8032 19.6932 11.4708 20.4461 11.7758 22.7352C11.8494 23.288 11.9189 23.8108 11.8272 24.2134C11.6517 24.9861 10.81 25.6713 10.3757 27.1074H7.00646C6.66705 25.9617 5.64781 25.1079 4.39355 25.1079C2.86695 25.1079 1.625 26.3499 1.625 27.8765C1.625 29.4029 2.86695 30.645 4.39355 30.645C5.64781 30.645 6.66705 29.7911 7.00646 28.6455H10.3757C10.81 30.0817 11.6517 30.7664 11.8276 31.5394C12.0584 32.5545 11.2848 34.2025 11.9365 35.5527C12.5922 36.9122 14.3815 37.3523 15.0084 38.1369C15.2096 38.3894 15.3509 38.7694 15.4883 39.1757L12.5747 42.089C11.5251 41.5189 10.1999 41.6358 9.31358 42.5227C7.56837 44.2684 8.8214 47.2473 11.2713 47.2473C13.3257 47.2473 14.6987 45.085 13.6625 43.1767L16.1019 40.7373C17.2431 42.9339 19.5328 42.1278 20.7332 42.7069C21.6406 43.1447 22.4517 44.7858 23.9398 45.1237C25.0486 45.376 26.1146 44.7884 27.106 44.4808V48.7452C25.9602 49.0842 25.1064 50.1039 25.1064 51.3579C25.1064 52.8843 26.3484 54.1265 27.875 54.1265C29.4014 54.1265 30.6436 52.8843 30.6436 51.3579C30.6436 50.1039 29.7896 49.0842 28.644 48.7452V44.4808C29.65 44.7923 30.7032 45.3758 31.8107 45.1237C33.2948 44.7864 34.1166 43.1415 35.0168 42.7069C36.2319 42.1204 38.5005 42.946 39.6485 40.7373L40.4559 41.5455C40.7566 41.8456 41.2434 41.8456 41.5441 41.5455C41.8443 41.2449 41.8443 40.7578 41.5441 40.4574L40.2617 39.1752C40.6253 38.0998 40.7631 37.9622 41.9085 37.2777C43.9464 36.0597 44.2794 35.3067 43.9742 33.0178C43.7829 31.5808 43.8223 31.4444 44.5874 30.2843C44.9088 29.7974 45.1938 29.2415 45.3739 28.6455H48.7431C49.0827 29.7911 50.1024 30.645 51.3564 30.645C52.8828 30.645 54.125 29.4029 54.125 27.8765C54.125 26.3499 52.8828 25.1079 51.3564 25.1079ZM47.8195 6.24093C49.3223 6.24093 50.0731 8.06961 49.0155 9.1274C48.3543 9.78796 47.285 9.78816 46.6239 9.1274C45.5657 8.0692 46.3173 6.24093 47.8195 6.24093ZM26.6445 4.39502C26.6445 3.71642 27.1964 3.16455 27.875 3.16455C28.5538 3.16455 29.1055 3.71642 29.1055 4.39502C29.1055 5.07383 28.5538 5.62549 27.875 5.62549C27.1964 5.62549 26.6445 5.07383 26.6445 4.39502ZM7.6344 10.2801C6.90515 9.55109 6.90515 8.36472 7.6344 7.63525C8.36325 6.90661 9.54963 6.90661 10.2787 7.63525C11.0079 8.36472 11.0079 9.55109 10.2787 10.2801C9.54963 11.0094 8.36325 11.009 7.6344 10.2801ZM4.39355 29.1069C3.71495 29.1069 3.16309 28.5553 3.16309 27.8765C3.16309 27.1979 3.71495 26.646 4.39355 26.646C5.07236 26.646 5.62402 27.1979 5.62402 27.8765C5.62402 28.5553 5.07236 29.1069 4.39355 29.1069ZM12.1414 45.3504C11.6611 45.8304 10.8806 45.8304 10.4009 45.3504C9.6251 44.5745 10.1821 43.2506 11.2708 43.2506C12.3592 43.2506 12.9178 44.5739 12.1414 45.3504ZM29.1055 51.3579C29.1055 52.0367 28.5538 52.5884 27.875 52.5884C27.1964 52.5884 26.6445 52.0367 26.6445 51.3579C26.6445 50.6793 27.1964 50.1274 27.875 50.1274C28.5538 50.1274 29.1055 50.6793 29.1055 51.3579ZM51.3564 29.1069C50.6778 29.1069 50.126 28.5553 50.126 27.8765C50.126 27.1979 50.6778 26.646 51.3564 26.646C52.0353 26.646 52.5869 27.1979 52.5869 27.8765C52.5869 28.5553 52.0353 29.1069 51.3564 29.1069Z" fill="#253746"/>
<path d="M45.0754 43.988L43.7627 42.6749C43.4616 42.3749 42.975 42.3749 42.6745 42.6749C42.3741 42.9754 42.3741 43.4624 42.6745 43.7631L43.9877 45.0758C43.2059 46.3616 43.3109 48.0381 44.4214 49.1484C45.7275 50.4546 47.8419 50.455 49.148 49.1484C50.4542 47.8423 50.4542 45.7281 49.148 44.4218C48.0378 43.3113 46.3614 43.2063 45.0754 43.988ZM48.0605 48.0609C47.3555 48.7659 46.2146 48.7659 45.5091 48.0609C44.8059 47.3575 44.8059 46.2129 45.5091 45.5095C46.2126 44.8063 47.3569 44.8063 48.0605 45.5095C48.7656 46.2146 48.7658 47.3558 48.0605 48.0609Z" fill="#253746"/>
</svg>
