<svg width="56" height="56" viewBox="0 0 56 56" fill="none" xmlns="http://www.w3.org/2000/svg">
<path d="M42.0182 45.4418L39.8218 36.4286C38.7337 31.9627 34.6795 29.2727 30.7703 29.2244V26.286C32.4874 25.3738 33.8006 23.8366 34.4175 21.9643H34.5335C36.5142 21.9643 38.1902 20.4808 38.4312 18.5136C38.6638 16.6162 38.8166 14.9034 38.8964 13.2774C38.9178 12.849 38.5877 12.4846 38.1594 12.4635C37.73 12.4423 37.3666 12.7723 37.345 13.2009C37.2669 14.7882 37.118 16.4644 36.8895 18.3248C36.7528 19.4371 35.8484 20.2646 34.7536 20.3703C34.9156 18.7793 34.77 21.3422 34.8307 13.721C34.8307 13.6159 34.7571 13.5427 34.7186 13.4507C34.6797 13.3572 34.6748 13.247 34.6049 13.1758C34.5354 13.1055 34.4258 13.1003 34.3336 13.0604C34.2415 13.0205 34.1683 12.9457 34.0618 12.9445C28.7978 12.8928 25.2069 10.2113 25.1722 10.1854C24.8594 9.94581 24.4177 9.97851 24.1435 10.2604C24.1257 10.2785 22.3506 12.088 20.1249 13.0033C20.0731 13.0245 20.0593 13.082 20.0149 13.1127C19.8514 13.221 19.7418 13.3837 19.7036 13.5778C19.6923 13.6303 19.6435 13.6652 19.6435 13.721V19.6062C19.6435 19.8817 19.6964 20.1433 19.7254 20.4111H19.5388C18.3597 20.4111 17.3494 19.5305 17.1878 18.3621C16.8162 15.6787 16.6422 13.2679 16.6551 10.9921C16.685 5.67405 22.0018 1.76894 27.105 3.67913C28.0238 4.02296 28.8093 4.52267 29.4398 5.16324C29.7528 5.48136 30.2628 5.46861 30.5614 5.14843L30.6224 5.08365C31.6739 3.97628 33.2254 3.59872 34.6717 4.09843C36.1219 4.59834 37.1129 5.85665 37.2574 7.38127C37.2792 7.61077 37.2988 7.80016 37.3154 7.96652C37.381 8.60668 37.408 8.87134 37.4078 9.79179C37.4075 10.2205 37.7553 10.5687 38.184 10.5689H38.1845C38.613 10.5689 38.9612 10.2214 38.9612 9.79261C38.9614 8.79258 38.9283 8.46376 38.8614 7.8088C38.8446 7.64531 38.8252 7.459 38.8043 7.23403C38.6005 5.09558 37.2118 3.3316 35.1786 2.62975C33.3628 2.00254 31.4279 2.36118 29.9843 3.5576C29.3086 2.99949 28.5261 2.55243 27.6493 2.22443C21.5124 -0.0740123 15.1381 4.61006 15.1022 10.9827C15.0882 13.3339 15.2673 15.8175 15.6492 18.5745C15.9161 20.5075 17.5888 21.9643 19.539 21.9643H20.0566C20.6744 23.8366 21.9872 25.3734 23.7045 26.286V29.2244C19.6614 29.2744 15.7203 32.047 14.6528 36.4282L14.3129 37.8232C14.2113 38.2399 14.4667 38.66 14.8836 38.7618C15.3004 38.8632 15.7203 38.608 15.8221 38.1909L16.1618 36.7959C16.6346 34.8556 17.8071 33.2564 19.3577 32.187L18.2125 35.7818C18.0169 36.3965 18.6147 36.9688 19.2199 36.7473L21.5239 35.9034L26.5898 44.5481V52.5635C22.8813 52.4449 19.1703 51.3381 15.4096 49.1697C14.2415 48.496 13.6479 47.1143 13.966 45.8091L14.922 41.884C15.0236 41.4674 14.768 41.0473 14.3518 40.9455C13.9345 40.8437 13.5148 41.0995 13.4132 41.5163L12.4568 45.441C11.9764 47.4131 12.8716 49.4997 14.6335 50.5154C22.9928 55.3345 31.4779 55.3376 39.8411 50.5154C41.6032 49.4997 42.4982 47.4131 42.0182 45.4418ZM34.56 34.744L33.1345 34.2214C32.7817 34.0927 32.387 34.2344 32.1977 34.5583L30.686 37.1378L32.7819 31.0941C33.013 31.1588 33.2429 31.2236 33.4658 31.3081L34.56 34.744ZM29.2165 29.4356C27.8588 29.9005 26.5534 29.9022 25.2577 29.4424V27.2576C26.5374 27.6494 27.9374 27.6494 29.2165 27.2576V29.4356ZM27.339 31.6995L29.9734 34.4495L27.3476 42.0218L24.582 34.4528L27.339 31.6995ZM31.2305 30.8261L30.5457 32.8011L28.9524 31.1385C29.3347 31.0474 29.718 30.9279 30.102 30.7772H30.651C30.8482 30.7772 31.0366 30.8117 31.2305 30.8261ZM21.1973 19.6056V14.2038C22.7888 13.4532 24.1117 12.3987 24.779 11.7966C25.9772 12.5634 29.083 14.1847 33.2775 14.4197V19.6056C33.2775 22.9361 30.5675 25.646 27.2372 25.646C23.9068 25.646 21.1973 22.9361 21.1973 19.6056ZM23.8234 30.7772H24.3691C24.7923 30.9501 25.2166 31.1004 25.6457 31.1948L23.9945 32.8439L23.2566 30.8251C23.4462 30.8111 23.6305 30.7772 23.8234 30.7772ZM21.5987 34.2214L20.1734 34.744L21.3039 31.1946C21.433 31.1512 21.5691 31.1288 21.7003 31.0926L23.6798 36.5108L22.5358 34.5583C22.3462 34.2344 21.9518 34.0925 21.5987 34.2214ZM39.0656 49.1701C35.3919 51.2877 31.7662 52.3822 28.1437 52.5454V44.5481L33.2096 35.904L35.5136 36.7473C36.1192 36.9694 36.7166 36.3965 36.521 35.7827L35.4449 32.4044C36.835 33.469 37.8729 34.991 38.3126 36.7961L40.509 45.8093C40.8265 47.1143 40.2333 48.496 39.0656 49.1701Z" fill="#253746"/>
</svg>
