<svg width="64" height="64" viewBox="0 0 64 64" fill="none" xmlns="http://www.w3.org/2000/svg">
<rect width="64" height="64" rx="32" fill="#253746"/>
<g clip-path="url(#clip0_1436_10887)">
<path d="M22.875 24.5623C23.22 24.5623 23.5 24.2822 23.5 23.9373C23.5 23.595 23.2222 23.3123 22.875 23.3123C22.53 23.3123 22.25 23.5923 22.25 23.9373C22.25 24.2844 22.532 24.5623 22.875 24.5623Z" fill="white"/>
<path d="M47.3743 29.5623H46.7493L47.8743 28.0623C48.1826 27.6511 47.8887 27.0623 47.3743 27.0623H41.8743C40.4578 21.2764 35.2468 17.0625 29.1248 17.0625C21.8877 17.0625 16 22.9502 16 30.1873C16 35.5308 19.1934 40.1404 23.7947 42.1841L22.4409 45.8118H20.375C20.0298 45.8118 19.75 46.0916 19.75 46.4368C19.75 46.7818 20.0298 47.0618 20.375 47.0618H37.8745C38.2195 47.0618 38.4995 46.7818 38.4995 46.4368C38.4995 46.0916 38.2195 45.8118 37.8745 45.8118H35.8084L34.4541 42.1829C38.1621 40.5313 40.908 37.2564 41.8736 33.312H47.3743C47.888 33.312 48.1829 32.7239 47.8743 32.312L46.7493 30.8123H47.3743C47.7193 30.8123 47.9993 30.5322 47.9993 30.1873C47.9993 29.8421 47.7193 29.5623 47.3743 29.5623ZM23.7752 45.8118L24.9597 42.6372C26.2976 43.085 27.6956 43.3118 29.1248 43.3118C30.5525 43.3118 31.9505 43.085 33.2896 42.6372L34.4741 45.8118H23.7752ZM29.1248 42.0618C22.6731 42.0618 17.25 36.8987 17.25 30.1873C17.25 23.6394 22.5769 18.3125 29.1248 18.3125C34.5374 18.3125 39.2722 22.0107 40.6182 27.1931C40.4873 27.294 40.5879 27.2087 38.812 29.5623H38.478C38.1553 24.6834 34.0838 20.8125 29.1248 20.8125C27.624 20.8125 26.0684 21.1746 24.627 21.9629C24.3242 22.1289 24.2134 22.5088 24.3792 22.8115C24.5452 23.1143 24.9248 23.2251 25.2278 23.0591C26.4788 22.3721 27.8313 22.0623 29.1248 22.0623C33.3945 22.0623 36.9055 25.3731 37.2258 29.5623H34.7146C34.4028 26.7537 32.0149 24.5623 29.1248 24.5623C26.0232 24.5623 23.4998 27.0857 23.4998 30.1873C23.4998 33.2888 26.0232 35.812 29.1248 35.812C32.0152 35.812 34.4028 33.6201 34.7146 30.8115H37.2258C36.9055 35.0007 33.3945 38.312 29.1248 38.312C24.6448 38.312 21 34.6673 21 30.1873C21 28.8235 21.3445 27.4761 21.9963 26.291C22.1626 25.9885 22.0523 25.6084 21.7498 25.4421C21.4473 25.2759 21.0674 25.386 20.9009 25.6885C20.148 27.0579 19.75 28.6133 19.75 30.1873C19.75 35.3565 23.9553 39.562 29.1248 39.562C34.0982 39.562 38.1592 35.7056 38.4785 30.8123H38.812C40.5872 33.1646 40.4868 33.0798 40.6179 33.1812C39.2512 38.4668 34.4944 42.0618 29.1248 42.0618ZM30.8921 29.5623C30.634 28.8347 29.9395 28.3123 29.1248 28.3123C28.0908 28.3123 27.2498 29.1533 27.2498 30.1873C27.2498 31.221 28.0908 32.062 29.1248 32.062C29.9395 32.062 30.634 31.5388 30.8921 30.8115H33.4541C33.1499 32.9287 31.3247 34.562 29.1248 34.562C26.7124 34.562 24.7498 32.5994 24.7498 30.1873C24.7498 27.7749 26.7124 25.8123 29.1248 25.8123C31.3247 25.8123 33.1499 27.4451 33.4541 29.5623H30.8921ZM29.7498 30.1873C29.7498 30.5318 29.4692 30.8123 29.1248 30.8123C28.78 30.8123 28.4998 30.5318 28.4998 30.1873C28.4998 29.8425 28.78 29.5623 29.1248 29.5623C29.4692 29.5623 29.7498 29.8425 29.7498 30.1873ZM46.1243 32.062H41.3118L39.9058 30.1873L41.3118 28.3123H46.1243L45.1868 29.5623H42.8743C42.5293 29.5623 42.2493 29.8421 42.2493 30.1873C42.2493 30.5322 42.5293 30.8123 42.8743 30.8123H45.1868L46.1243 32.062Z" fill="white"/>
</g>
<defs>
<clipPath id="clip0_1436_10887">
<rect width="32" height="32" fill="white" transform="translate(16 16)"/>
</clipPath>
</defs>
</svg>
