<svg width="64" height="64" viewBox="0 0 64 64" fill="none" xmlns="http://www.w3.org/2000/svg">
<rect width="64" height="64" rx="32" fill="#253746"/>
<g clip-path="url(#clip0_1436_10867)">
<path fill-rule="evenodd" clip-rule="evenodd" d="M31.999 24.7113C33.2384 24.7113 34.4059 25.0211 35.4277 25.5667C35.3142 25.7896 35.25 26.0417 35.25 26.3089C35.25 27.2132 35.9825 27.9465 36.8867 27.9466C37.2425 27.9466 37.5723 27.8327 37.8408 27.64C38.7497 28.8559 39.2881 30.3655 39.2881 32.0003C39.288 36.0256 36.0243 39.2884 31.999 39.2884C27.9738 39.2884 24.7111 36.0256 24.7109 32.0003C24.7109 27.975 27.9736 24.7113 31.999 24.7113ZM30.7295 27.9496C30.3844 27.9496 30.1045 28.2294 30.1045 28.5746V30.1048H28.5732C28.2283 30.1049 27.9485 30.3849 27.9482 30.7298V33.2699C27.9482 33.6149 28.2282 33.8948 28.5732 33.8949H30.1045V35.4261C30.1047 35.7711 30.3845 36.0511 30.7295 36.0511H33.2686C33.6136 36.0511 33.8934 35.7711 33.8936 35.4261V33.8949H35.4248C35.7699 33.8948 36.0498 33.615 36.0498 33.2699V30.7298C36.0496 30.3849 35.7698 30.1049 35.4248 30.1048H33.8936V28.5746C33.8936 28.2294 33.6137 27.9496 33.2686 27.9496H30.7295ZM32.6436 30.7298C32.6436 31.0748 32.9236 31.3547 33.2686 31.3548H34.7998V32.6449H33.2686C32.9236 32.645 32.6436 32.9249 32.6436 33.2699V34.8011H31.3545V33.2699C31.3545 32.9249 31.0745 32.645 30.7295 32.6449H29.1982V31.3548H30.7295C31.0745 31.3547 31.3545 31.0749 31.3545 30.7298V29.1996H32.6436V30.7298Z" fill="white"/>
<path d="M47.8919 31.6487C47.82 31.5428 46.0972 29.0263 43.2924 26.4741C41.6366 24.9674 39.9473 23.7647 38.2713 22.8997C36.1475 21.8035 34.0376 21.2477 32 21.2477C29.9625 21.2477 27.8525 21.8036 25.7287 22.8997C24.0528 23.7647 22.3634 24.9674 20.7076 26.4741C17.9028 29.0263 16.1801 31.5428 16.1081 31.6487C15.964 31.8607 15.964 32.1393 16.1081 32.3513C16.18 32.4572 17.9028 34.9737 20.7076 37.5259C22.3634 39.0326 24.0527 40.2353 25.7287 41.1002C27.8525 42.1964 29.9624 42.7523 32 42.7523C34.0377 42.7523 36.1475 42.1964 38.2713 41.1002C39.9473 40.2352 41.6367 39.0326 43.2925 37.5259C46.0972 34.9737 47.82 32.4572 47.892 32.3513C48.036 32.1392 48.036 31.8607 47.8919 31.6487ZM42.4311 36.6196C39.9787 38.8471 36.1782 41.5023 32 41.5023C27.8218 41.5023 24.0214 38.8471 21.569 36.6196C19.4648 34.7086 17.963 32.7739 17.3938 32C17.9632 31.2259 19.4651 29.2912 21.569 27.3804C24.0214 25.1529 27.8218 22.4977 32 22.4977C36.1782 22.4977 39.9787 25.1529 42.4311 27.3804C44.535 29.2912 46.0369 31.2259 46.6063 32C46.0369 32.7741 44.535 34.7087 42.4311 36.6196Z" fill="white"/>
<path d="M32 19.8626C32.3451 19.8626 32.625 19.5827 32.625 19.2376V18.1181C32.625 17.7729 32.3451 17.4931 32 17.4931C31.6549 17.4931 31.375 17.7729 31.375 18.1181V19.2376C31.375 19.5827 31.6548 19.8626 32 19.8626Z" fill="white"/>
<path d="M39.4844 22.3381C39.6444 22.3381 39.8043 22.2771 39.9264 22.1551L40.7179 21.3635C40.962 21.1194 40.962 20.7237 40.7179 20.4796C40.4738 20.2356 40.0782 20.2356 39.834 20.4796L39.0424 21.2711C38.7984 21.5152 38.7984 21.9109 39.0424 22.1551C39.1645 22.2771 39.3245 22.3381 39.4844 22.3381Z" fill="white"/>
<path d="M24.0723 22.1551C24.1944 22.2771 24.3543 22.3381 24.5143 22.3381C24.6742 22.3381 24.8341 22.2771 24.9562 22.1551C25.2003 21.911 25.2003 21.5152 24.9562 21.2711L24.1646 20.4796C23.9205 20.2356 23.5249 20.2356 23.2807 20.4796C23.0366 20.7236 23.0366 21.1194 23.2807 21.3635L24.0723 22.1551Z" fill="white"/>
<path d="M32 44.1374C31.6549 44.1374 31.375 44.4172 31.375 44.7624V45.8819C31.375 46.227 31.6549 46.5069 32 46.5069C32.3451 46.5069 32.625 46.227 32.625 45.8819V44.7624C32.625 44.4172 32.3451 44.1374 32 44.1374Z" fill="white"/>
<path d="M24.0723 41.8449L23.2807 42.6364C23.0366 42.8805 23.0366 43.2762 23.2807 43.5204C23.4028 43.6424 23.5627 43.7034 23.7226 43.7034C23.8826 43.7034 24.0425 43.6424 24.1646 43.5204L24.9561 42.7288C25.2002 42.4847 25.2002 42.089 24.9561 41.8449C24.712 41.6009 24.3164 41.6009 24.0723 41.8449Z" fill="white"/>
<path d="M39.9264 41.8449C39.6822 41.6009 39.2866 41.6009 39.0424 41.8449C38.7984 42.0889 38.7984 42.4847 39.0424 42.7288L39.834 43.5204C39.956 43.6424 40.116 43.7034 40.2759 43.7034C40.4359 43.7034 40.5958 43.6424 40.7179 43.5204C40.9619 43.2763 40.9619 42.8806 40.7179 42.6364L39.9264 41.8449Z" fill="white"/>
</g>
<defs>
<clipPath id="clip0_1436_10867">
<rect width="32" height="32" fill="white" transform="translate(16 16)"/>
</clipPath>
</defs>
</svg>
